%TF.GenerationSoftware,Altium Limited,Altium Designer,20.0.13 (296)*%
G04 Layer_Color=32896*
%FSLAX25Y25*%
%MOIN*%
%TF.FileFunction,Legend,Bot*%
%TF.Part,Single*%
G01*
G75*
%TA.AperFunction,NonConductor*%
%ADD40C,0.00787*%
%ADD41C,0.00984*%
%ADD42C,0.02362*%
%ADD43C,0.01000*%
D40*
X559425Y156295D02*
G03*
X559425Y156295I-394J0D01*
G01*
X528394Y117500D02*
G03*
X528394Y117500I-394J0D01*
G01*
X580469Y205980D02*
Y203315D01*
X579935Y202781D01*
X578869D01*
X578336Y203315D01*
Y205980D01*
X575137Y202781D02*
X577270D01*
X575137Y204914D01*
Y205447D01*
X575670Y205980D01*
X576736D01*
X577270Y205447D01*
X583967Y167260D02*
X580768D01*
Y165660D01*
X581302Y165127D01*
X582368D01*
X582901Y165660D01*
Y167260D01*
Y166193D02*
X583967Y165127D01*
Y164061D02*
Y162994D01*
Y163528D01*
X580768D01*
X581302Y164061D01*
X583967Y159262D02*
Y161395D01*
X581835Y159262D01*
X581302D01*
X580768Y159795D01*
Y160862D01*
X581302Y161395D01*
X614268Y181535D02*
X611069D01*
Y179935D01*
X611602Y179402D01*
X612669D01*
X613202Y179935D01*
Y181535D01*
Y180468D02*
X614268Y179402D01*
Y178336D02*
Y177269D01*
Y177802D01*
X611069D01*
X611602Y178336D01*
X614268Y175670D02*
Y174603D01*
Y175137D01*
X611069D01*
X611602Y175670D01*
X565787Y265565D02*
Y268764D01*
X564188D01*
X563655Y268231D01*
Y267165D01*
X564188Y266632D01*
X565787D01*
X564721D02*
X563655Y265565D01*
X562588D02*
X561522D01*
X562055D01*
Y268764D01*
X562588Y268231D01*
X559923D02*
X559389Y268764D01*
X558323D01*
X557790Y268231D01*
Y266098D01*
X558323Y265565D01*
X559389D01*
X559923Y266098D01*
Y268231D01*
X543465Y132721D02*
Y135920D01*
X541866D01*
X541333Y135387D01*
Y134321D01*
X541866Y133787D01*
X543465D01*
X542399D02*
X541333Y132721D01*
X540266Y133254D02*
X539733Y132721D01*
X538667D01*
X538134Y133254D01*
Y135387D01*
X538667Y135920D01*
X539733D01*
X540266Y135387D01*
Y134854D01*
X539733Y134321D01*
X538134D01*
X527879Y132186D02*
Y135385D01*
X526279D01*
X525746Y134852D01*
Y133786D01*
X526279Y133253D01*
X527879D01*
X526813D02*
X525746Y132186D01*
X524680Y134852D02*
X524147Y135385D01*
X523081D01*
X522547Y134852D01*
Y134319D01*
X523081Y133786D01*
X522547Y133253D01*
Y132719D01*
X523081Y132186D01*
X524147D01*
X524680Y132719D01*
Y133253D01*
X524147Y133786D01*
X524680Y134319D01*
Y134852D01*
X524147Y133786D02*
X523081D01*
X539111Y197374D02*
Y200573D01*
X537511D01*
X536978Y200040D01*
Y198973D01*
X537511Y198440D01*
X539111D01*
X538045D02*
X536978Y197374D01*
X535912Y200573D02*
X533779D01*
Y200040D01*
X535912Y197907D01*
Y197374D01*
X539007Y188239D02*
Y191438D01*
X537408D01*
X536875Y190905D01*
Y189839D01*
X537408Y189306D01*
X539007D01*
X537941D02*
X536875Y188239D01*
X533676Y191438D02*
X534742Y190905D01*
X535808Y189839D01*
Y188773D01*
X535275Y188239D01*
X534209D01*
X533676Y188773D01*
Y189306D01*
X534209Y189839D01*
X535808D01*
X635166Y148722D02*
Y151921D01*
X633566D01*
X633033Y151388D01*
Y150322D01*
X633566Y149789D01*
X635166D01*
X634099D02*
X633033Y148722D01*
X629834Y151921D02*
X631967D01*
Y150322D01*
X630900Y150855D01*
X630367D01*
X629834Y150322D01*
Y149256D01*
X630367Y148722D01*
X631434D01*
X631967Y149256D01*
X614199Y268533D02*
Y271732D01*
X612600D01*
X612067Y271199D01*
Y270133D01*
X612600Y269600D01*
X614199D01*
X613133D02*
X612067Y268533D01*
X609401D02*
Y271732D01*
X611000Y270133D01*
X608868D01*
X556053Y251444D02*
Y254643D01*
X554453D01*
X553920Y254110D01*
Y253043D01*
X554453Y252510D01*
X556053D01*
X554986D02*
X553920Y251444D01*
X552854Y254110D02*
X552321Y254643D01*
X551254D01*
X550721Y254110D01*
Y253576D01*
X551254Y253043D01*
X551787D01*
X551254D01*
X550721Y252510D01*
Y251977D01*
X551254Y251444D01*
X552321D01*
X552854Y251977D01*
X556145Y242676D02*
Y245875D01*
X554545D01*
X554012Y245342D01*
Y244275D01*
X554545Y243742D01*
X556145D01*
X555078D02*
X554012Y242676D01*
X550813D02*
X552946D01*
X550813Y244809D01*
Y245342D01*
X551346Y245875D01*
X552413D01*
X552946Y245342D01*
X555993Y234222D02*
Y237421D01*
X554393D01*
X553860Y236888D01*
Y235822D01*
X554393Y235289D01*
X555993D01*
X554926D02*
X553860Y234222D01*
X552794D02*
X551727D01*
X552261D01*
Y237421D01*
X552794Y236888D01*
X560305Y116744D02*
Y114611D01*
X558706D01*
Y115677D01*
Y114611D01*
X557106D01*
Y117810D02*
Y118876D01*
Y118343D01*
X560305D01*
X559772Y117810D01*
X538296Y115897D02*
Y112698D01*
X536696D01*
X536163Y113231D01*
Y115364D01*
X536696Y115897D01*
X538296D01*
X532964D02*
X535097D01*
Y114298D01*
X534030Y114831D01*
X533497D01*
X532964Y114298D01*
Y113231D01*
X533497Y112698D01*
X534563D01*
X535097Y113231D01*
X546488Y167194D02*
X549687D01*
Y165594D01*
X549154Y165061D01*
X547021D01*
X546488Y165594D01*
Y167194D01*
X549687Y162395D02*
X546488D01*
X548087Y163995D01*
Y161862D01*
X587086Y238665D02*
X587619Y238131D01*
Y237065D01*
X587086Y236532D01*
X584953D01*
X584420Y237065D01*
Y238131D01*
X584953Y238665D01*
X584420Y239731D02*
Y240797D01*
Y240264D01*
X587619D01*
X587086Y239731D01*
X584420Y244529D02*
Y242397D01*
X586553Y244529D01*
X587086D01*
X587619Y243996D01*
Y242930D01*
X587086Y242397D01*
X605065Y230732D02*
X604532Y231265D01*
Y232331D01*
X605065Y232865D01*
X607198D01*
X607731Y232331D01*
Y231265D01*
X607198Y230732D01*
X607731Y229666D02*
Y228599D01*
Y229133D01*
X604532D01*
X605065Y229666D01*
Y227000D02*
X604532Y226467D01*
Y225400D01*
X605065Y224867D01*
X607198D01*
X607731Y225400D01*
Y226467D01*
X607198Y227000D01*
X605065D01*
X619178Y195832D02*
X618645Y196365D01*
Y197431D01*
X619178Y197964D01*
X621311D01*
X621844Y197431D01*
Y196365D01*
X621311Y195832D01*
X619178Y194765D02*
X618645Y194232D01*
Y193166D01*
X619178Y192633D01*
X619711D01*
X620244Y193166D01*
X620777Y192633D01*
X621311D01*
X621844Y193166D01*
Y194232D01*
X621311Y194765D01*
X620777D01*
X620244Y194232D01*
X619711Y194765D01*
X619178D01*
X620244Y194232D02*
Y193166D01*
X618645Y161036D02*
X618112Y161569D01*
Y162635D01*
X618645Y163168D01*
X620778D01*
X621311Y162635D01*
Y161569D01*
X620778Y161036D01*
X618112Y159969D02*
Y157836D01*
X618645D01*
X620778Y159969D01*
X621311D01*
X535772Y216252D02*
X535239Y216785D01*
Y217851D01*
X535772Y218385D01*
X537905D01*
X538438Y217851D01*
Y216785D01*
X537905Y216252D01*
X538438Y213053D02*
Y215186D01*
X536305Y213053D01*
X535772D01*
X535239Y213586D01*
Y214652D01*
X535772Y215186D01*
D41*
X588357Y202645D02*
G03*
X588357Y202645I-492J0D01*
G01*
D42*
X581632Y197337D02*
G03*
X581632Y197337I-1181J0D01*
G01*
D43*
X541430Y215456D02*
Y216456D01*
X546630Y215456D02*
Y216456D01*
X583851Y182697D02*
Y200617D01*
X569851Y182697D02*
X583851D01*
X569851D02*
Y200617D01*
X583851D01*
X555400Y114835D02*
Y119165D01*
X548600Y114835D02*
Y119165D01*
X576926Y240295D02*
Y241295D01*
X582126Y240295D02*
Y241295D01*
X615321Y229051D02*
Y230051D01*
X610121Y229051D02*
Y230051D01*
X630400Y140358D02*
Y141358D01*
X635600Y140358D02*
Y141358D01*
%TF.MD5,c41239d992cac413161ff525c4d54db1*%
M02*
