%TF.GenerationSoftware,Altium Limited,Altium Designer,20.0.13 (296)*%
G04 Layer_Color=2752767*
%FSLAX25Y25*%
%MOIN*%
%TF.FileFunction,Drawing*%
%TF.Part,Single*%
G01*
G75*
%TA.AperFunction,NonConductor*%
%ADD61C,0.00500*%
%ADD80C,0.00667*%
D61*
X596453Y113033D02*
Y117033D01*
X600453D01*
Y113033D01*
X596453D01*
X582674D02*
Y117033D01*
X586674D01*
Y113033D01*
X582674D01*
X568894D02*
Y117033D01*
X572894D01*
Y113033D01*
X568894D01*
Y132718D02*
Y136718D01*
X572894D01*
Y132718D01*
X568894D01*
X582674D02*
Y136718D01*
X586674D01*
Y132718D01*
X582674D01*
X596453D02*
Y136718D01*
X600453D01*
Y132718D01*
X596453D01*
X610233D02*
Y136718D01*
X614233D01*
Y132718D01*
X610233D01*
Y113033D02*
Y117033D01*
X614233D01*
Y113033D01*
X610233D01*
X495469Y189607D02*
X493469Y193607D01*
X497469D01*
X495469Y189607D01*
X658523Y189869D02*
X656523Y193869D01*
X660523D01*
X658523Y189869D01*
X598907Y197863D02*
X599907Y198863D01*
X600907D01*
X599907Y199863D01*
X600907Y200863D01*
X599907D01*
X598907Y201863D01*
X597907Y200863D01*
X596907D01*
X597907Y199863D01*
X596907Y198863D01*
X597907D01*
X598907Y197863D01*
X599549Y209605D02*
X600550Y210605D01*
X601549D01*
X600550Y211605D01*
X601549Y212605D01*
X600550D01*
X599549Y213605D01*
X598550Y212605D01*
X597549D01*
X598550Y211605D01*
X597549Y210605D01*
X598550D01*
X599549Y209605D01*
X598553Y206143D02*
X599553Y207143D01*
X600553D01*
X599553Y208143D01*
X600553Y209143D01*
X599553D01*
X598553Y210143D01*
X597553Y209143D01*
X596553D01*
X597553Y208143D01*
X596553Y207143D01*
X597553D01*
X598553Y206143D01*
X597000Y215000D02*
X598000Y216000D01*
X599000D01*
X598000Y217000D01*
X599000Y218000D01*
X598000D01*
X597000Y219000D01*
X596000Y218000D01*
X595000D01*
X596000Y217000D01*
X595000Y216000D01*
X596000D01*
X597000Y215000D01*
X578505Y180768D02*
X579505Y181768D01*
X580505D01*
X579505Y182768D01*
X580505Y183768D01*
X579505D01*
X578505Y184768D01*
X577505Y183768D01*
X576505D01*
X577505Y182768D01*
X576505Y181768D01*
X577505D01*
X578505Y180768D01*
X566257Y155135D02*
X567257Y156135D01*
X568257D01*
X567257Y157135D01*
X568257Y158135D01*
X567257D01*
X566257Y159135D01*
X565257Y158135D01*
X564257D01*
X565257Y157135D01*
X564257Y156135D01*
X565257D01*
X566257Y155135D01*
X575311Y165361D02*
X576311Y166361D01*
X577311D01*
X576311Y167361D01*
X577311Y168361D01*
X576311D01*
X575311Y169361D01*
X574311Y168361D01*
X573311D01*
X574311Y167361D01*
X573311Y166361D01*
X574311D01*
X575311Y165361D01*
X592000Y179833D02*
X593000Y180833D01*
X594000D01*
X593000Y181833D01*
X594000Y182833D01*
X593000D01*
X592000Y183833D01*
X591000Y182833D01*
X590000D01*
X591000Y181833D01*
X590000Y180833D01*
X591000D01*
X592000Y179833D01*
X595668Y180206D02*
X596668Y181206D01*
X597668D01*
X596668Y182206D01*
X597668Y183206D01*
X596668D01*
X595668Y184206D01*
X594668Y183206D01*
X593668D01*
X594668Y182206D01*
X593668Y181206D01*
X594668D01*
X595668Y180206D01*
X573895Y175609D02*
X574895Y176609D01*
X575895D01*
X574895Y177609D01*
X575895Y178609D01*
X574895D01*
X573895Y179609D01*
X572895Y178609D01*
X571895D01*
X572895Y177609D01*
X571895Y176609D01*
X572895D01*
X573895Y175609D01*
X567000Y202500D02*
X568000Y203500D01*
X569000D01*
X568000Y204500D01*
X569000Y205500D01*
X568000D01*
X567000Y206500D01*
X566000Y205500D01*
X565000D01*
X566000Y204500D01*
X565000Y203500D01*
X566000D01*
X567000Y202500D01*
X554583Y186124D02*
X555583Y187124D01*
X556583D01*
X555583Y188124D01*
X556583Y189123D01*
X555583D01*
X554583Y190123D01*
X553583Y189123D01*
X552583D01*
X553583Y188124D01*
X552583Y187124D01*
X553583D01*
X554583Y186124D01*
X560797Y192669D02*
X561797Y193669D01*
X562797D01*
X561797Y194669D01*
X562797Y195669D01*
X561797D01*
X560797Y196669D01*
X559797Y195669D01*
X558797D01*
X559797Y194669D01*
X558797Y193669D01*
X559797D01*
X560797Y192669D01*
X552779Y191870D02*
X553779Y192870D01*
X554779D01*
X553779Y193870D01*
X554779Y194870D01*
X553779D01*
X552779Y195870D01*
X551779Y194870D01*
X550779D01*
X551779Y193870D01*
X550779Y192870D01*
X551779D01*
X552779Y191870D01*
X573182Y170442D02*
X574182Y171442D01*
X575182D01*
X574182Y172442D01*
X575182Y173442D01*
X574182D01*
X573182Y174442D01*
X572182Y173442D01*
X571182D01*
X572182Y172442D01*
X571182Y171442D01*
X572182D01*
X573182Y170442D01*
X562999Y209675D02*
X563999Y210675D01*
X564999D01*
X563999Y211675D01*
X564999Y212675D01*
X563999D01*
X562999Y213675D01*
X561999Y212675D01*
X560999D01*
X561999Y211675D01*
X560999Y210675D01*
X561999D01*
X562999Y209675D01*
X550662Y200863D02*
X551661Y201863D01*
X552662D01*
X551661Y202863D01*
X552662Y203863D01*
X551661D01*
X550662Y204863D01*
X549661Y203863D01*
X548662D01*
X549661Y202863D01*
X548662Y201863D01*
X549661D01*
X550662Y200863D01*
X601079Y248744D02*
X602079Y249744D01*
X603079D01*
X602079Y250744D01*
X603079Y251744D01*
X602079D01*
X601079Y252744D01*
X600079Y251744D01*
X599079D01*
X600079Y250744D01*
X599079Y249744D01*
X600079D01*
X601079Y248744D01*
X611007Y218676D02*
X612007Y219676D01*
X613007D01*
X612007Y220676D01*
X613007Y221676D01*
X612007D01*
X611007Y222676D01*
X610007Y221676D01*
X609007D01*
X610007Y220676D01*
X609007Y219676D01*
X610007D01*
X611007Y218676D01*
X546345Y200849D02*
X547345Y201849D01*
X548345D01*
X547345Y202849D01*
X548345Y203849D01*
X547345D01*
X546345Y204849D01*
X545345Y203849D01*
X544345D01*
X545345Y202849D01*
X544345Y201849D01*
X545345D01*
X546345Y200849D01*
X550892Y209401D02*
X551892Y210402D01*
X552892D01*
X551892Y211402D01*
X552892Y212402D01*
X551892D01*
X550892Y213402D01*
X549892Y212402D01*
X548892D01*
X549892Y211402D01*
X548892Y210402D01*
X549892D01*
X550892Y209401D01*
X578500Y193500D02*
X579500Y194500D01*
X580500D01*
X579500Y195500D01*
X580500Y196500D01*
X579500D01*
X578500Y197500D01*
X577500Y196500D01*
X576500D01*
X577500Y195500D01*
X576500Y194500D01*
X577500D01*
X578500Y193500D01*
X581463Y196422D02*
X582464Y197422D01*
X583463D01*
X582464Y198422D01*
X583463Y199422D01*
X582464D01*
X581463Y200422D01*
X580464Y199422D01*
X579463D01*
X580464Y198422D01*
X579463Y197422D01*
X580464D01*
X581463Y196422D01*
X584621Y208018D02*
X585621Y209018D01*
X586621D01*
X585621Y210018D01*
X586621Y211018D01*
X585621D01*
X584621Y212018D01*
X583621Y211018D01*
X582621D01*
X583621Y210018D01*
X582621Y209018D01*
X583621D01*
X584621Y208018D01*
X610056Y188386D02*
X611056Y189386D01*
X612056D01*
X611056Y190386D01*
X612056Y191386D01*
X611056D01*
X610056Y192386D01*
X609056Y191386D01*
X608056D01*
X609056Y190386D01*
X608056Y189386D01*
X609056D01*
X610056Y188386D01*
X549389Y214043D02*
X550389Y215043D01*
X551389D01*
X550389Y216043D01*
X551389Y217043D01*
X550389D01*
X549389Y218043D01*
X548389Y217043D01*
X547389D01*
X548389Y216043D01*
X547389Y215043D01*
X548389D01*
X549389Y214043D01*
X589024Y200985D02*
X590024Y201985D01*
X591024D01*
X590024Y202985D01*
X591024Y203985D01*
X590024D01*
X589024Y204985D01*
X588024Y203985D01*
X587024D01*
X588024Y202985D01*
X587024Y201985D01*
X588024D01*
X589024Y200985D01*
X588617Y213207D02*
X589617Y214207D01*
X590617D01*
X589617Y215207D01*
X590617Y216207D01*
X589617D01*
X588617Y217207D01*
X587617Y216207D01*
X586617D01*
X587617Y215207D01*
X586617Y214207D01*
X587617D01*
X588617Y213207D01*
X584271Y212098D02*
X585271Y213098D01*
X586271D01*
X585271Y214098D01*
X586271Y215098D01*
X585271D01*
X584271Y216098D01*
X583271Y215098D01*
X582271D01*
X583271Y214098D01*
X582271Y213098D01*
X583271D01*
X584271Y212098D01*
X585000Y200500D02*
X586000Y201500D01*
X587000D01*
X586000Y202500D01*
X587000Y203500D01*
X586000D01*
X585000Y204500D01*
X584000Y203500D01*
X583000D01*
X584000Y202500D01*
X583000Y201500D01*
X584000D01*
X585000Y200500D01*
X536098Y164442D02*
X537098Y165442D01*
X538098D01*
X537098Y166442D01*
X538098Y167442D01*
X537098D01*
X536098Y168442D01*
X535098Y167442D01*
X534098D01*
X535098Y166442D01*
X534098Y165442D01*
X535098D01*
X536098Y164442D01*
X536243Y169330D02*
X537243Y170330D01*
X538243D01*
X537243Y171330D01*
X538243Y172330D01*
X537243D01*
X536243Y173330D01*
X535243Y172330D01*
X534243D01*
X535243Y171330D01*
X534243Y170330D01*
X535243D01*
X536243Y169330D01*
X549060Y182862D02*
X550060Y183862D01*
X551060D01*
X550060Y184862D01*
X551060Y185862D01*
X550060D01*
X549060Y186862D01*
X548060Y185862D01*
X547060D01*
X548060Y184862D01*
X547060Y183862D01*
X548060D01*
X549060Y182862D01*
X607977Y164718D02*
X608977Y165718D01*
X609977D01*
X608977Y166718D01*
X609977Y167718D01*
X608977D01*
X607977Y168718D01*
X606977Y167718D01*
X605977D01*
X606977Y166718D01*
X605977Y165718D01*
X606977D01*
X607977Y164718D01*
X571460Y249135D02*
X572460Y250135D01*
X573460D01*
X572460Y251135D01*
X573460Y252135D01*
X572460D01*
X571460Y253135D01*
X570460Y252135D01*
X569460D01*
X570460Y251135D01*
X569460Y250135D01*
X570460D01*
X571460Y249135D01*
X525488Y164720D02*
X526487Y165720D01*
X527488D01*
X526487Y166720D01*
X527488Y167720D01*
X526487D01*
X525488Y168720D01*
X524487Y167720D01*
X523488D01*
X524487Y166720D01*
X523488Y165720D01*
X524487D01*
X525488Y164720D01*
X530724Y164383D02*
X531724Y165383D01*
X532724D01*
X531724Y166383D01*
X532724Y167383D01*
X531724D01*
X530724Y168383D01*
X529724Y167383D01*
X528724D01*
X529724Y166383D01*
X528724Y165383D01*
X529724D01*
X530724Y164383D01*
X531900Y143297D02*
X532900Y144297D01*
X533900D01*
X532900Y145297D01*
X533900Y146297D01*
X532900D01*
X531900Y147297D01*
X530900Y146297D01*
X529900D01*
X530900Y145297D01*
X529900Y144297D01*
X530900D01*
X531900Y143297D01*
X559179Y232178D02*
X560180Y233178D01*
X561179D01*
X560180Y234178D01*
X561179Y235178D01*
X560180D01*
X559179Y236178D01*
X558180Y235178D01*
X557179D01*
X558180Y234178D01*
X557179Y233178D01*
X558180D01*
X559179Y232178D01*
X536610Y106608D02*
X537609Y107608D01*
X538610D01*
X537609Y108608D01*
X538610Y109608D01*
X537609D01*
X536610Y110608D01*
X535609Y109608D01*
X534610D01*
X535609Y108608D01*
X534610Y107608D01*
X535609D01*
X536610Y106608D01*
X517109Y161801D02*
X518110Y162801D01*
X519109D01*
X518110Y163801D01*
X519109Y164801D01*
X518110D01*
X517109Y165800D01*
X516110Y164801D01*
X515109D01*
X516110Y163801D01*
X515109Y162801D01*
X516110D01*
X517109Y161801D01*
X596928Y232133D02*
X597928Y233133D01*
X598928D01*
X597928Y234133D01*
X598928Y235133D01*
X597928D01*
X596928Y236133D01*
X595928Y235133D01*
X594928D01*
X595928Y234133D01*
X594928Y233133D01*
X595928D01*
X596928Y232133D01*
X545942Y178578D02*
X546942Y179578D01*
X547942D01*
X546942Y180578D01*
X547942Y181578D01*
X546942D01*
X545942Y182578D01*
X544942Y181578D01*
X543942D01*
X544942Y180578D01*
X543942Y179578D01*
X544942D01*
X545942Y178578D01*
X535868Y182012D02*
X536868Y183012D01*
X537868D01*
X536868Y184012D01*
X537868Y185012D01*
X536868D01*
X535868Y186012D01*
X534868Y185012D01*
X533868D01*
X534868Y184012D01*
X533868Y183012D01*
X534868D01*
X535868Y182012D01*
X530754D02*
X531754Y183012D01*
X532754D01*
X531754Y184012D01*
X532754Y185012D01*
X531754D01*
X530754Y186012D01*
X529754Y185012D01*
X528754D01*
X529754Y184012D01*
X528754Y183012D01*
X529754D01*
X530754Y182012D01*
X525020D02*
X526020Y183012D01*
X527020D01*
X526020Y184012D01*
X527020Y185012D01*
X526020D01*
X525020Y186012D01*
X524020Y185012D01*
X523020D01*
X524020Y184012D01*
X523020Y183012D01*
X524020D01*
X525020Y182012D01*
X540353Y144526D02*
X541353Y145526D01*
X542353D01*
X541353Y146526D01*
X542353Y147526D01*
X541353D01*
X540353Y148526D01*
X539353Y147526D01*
X538353D01*
X539353Y146526D01*
X538353Y145526D01*
X539353D01*
X540353Y144526D01*
X555546Y146403D02*
X556546Y147403D01*
X557546D01*
X556546Y148403D01*
X557546Y149403D01*
X556546D01*
X555546Y150403D01*
X554546Y149403D01*
X553546D01*
X554546Y148403D01*
X553546Y147403D01*
X554546D01*
X555546Y146403D01*
X530822Y169539D02*
X531822Y170539D01*
X532822D01*
X531822Y171539D01*
X532822Y172539D01*
X531822D01*
X530822Y173539D01*
X529822Y172539D01*
X528822D01*
X529822Y171539D01*
X528822Y170539D01*
X529822D01*
X530822Y169539D01*
X525460Y169459D02*
X526460Y170459D01*
X527460D01*
X526460Y171459D01*
X527460Y172459D01*
X526460D01*
X525460Y173459D01*
X524460Y172459D01*
X523460D01*
X524460Y171459D01*
X523460Y170459D01*
X524460D01*
X525460Y169459D01*
X620022Y228882D02*
X621022Y229882D01*
X622022D01*
X621022Y230882D01*
X622022Y231882D01*
X621022D01*
X620022Y232882D01*
X619022Y231882D01*
X618022D01*
X619022Y230882D01*
X618022Y229882D01*
X619022D01*
X620022Y228882D01*
X533864Y243607D02*
X534864Y244607D01*
X535864D01*
X534864Y245607D01*
X535864Y246607D01*
X534864D01*
X533864Y247607D01*
X532864Y246607D01*
X531864D01*
X532864Y245607D01*
X531864Y244607D01*
X532864D01*
X533864Y243607D01*
X553138Y246837D02*
X554138Y247837D01*
X555138D01*
X554138Y248837D01*
X555138Y249837D01*
X554138D01*
X553138Y250837D01*
X552138Y249837D01*
X551138D01*
X552138Y248837D01*
X551138Y247837D01*
X552138D01*
X553138Y246837D01*
X553455Y255251D02*
X554455Y256251D01*
X555455D01*
X554455Y257251D01*
X555455Y258251D01*
X554455D01*
X553455Y259251D01*
X552455Y258251D01*
X551455D01*
X552455Y257251D01*
X551455Y256251D01*
X552455D01*
X553455Y255251D01*
X533209Y239490D02*
X534209Y240490D01*
X535209D01*
X534209Y241490D01*
X535209Y242490D01*
X534209D01*
X533209Y243490D01*
X532209Y242490D01*
X531209D01*
X532209Y241490D01*
X531209Y240490D01*
X532209D01*
X533209Y239490D01*
X534004Y264329D02*
X535004Y265329D01*
X536004D01*
X535004Y266329D01*
X536004Y267329D01*
X535004D01*
X534004Y268329D01*
X533004Y267329D01*
X532004D01*
X533004Y266329D01*
X532004Y265329D01*
X533004D01*
X534004Y264329D01*
X534770Y253898D02*
X535771Y254897D01*
X536770D01*
X535771Y255897D01*
X536770Y256897D01*
X535771D01*
X534770Y257897D01*
X533771Y256897D01*
X532770D01*
X533771Y255897D01*
X532770Y254897D01*
X533771D01*
X534770Y253898D01*
X594007Y158716D02*
X595007Y159716D01*
X596007D01*
X595007Y160716D01*
X596007Y161716D01*
X595007D01*
X594007Y162716D01*
X593007Y161716D01*
X592007D01*
X593007Y160716D01*
X592007Y159716D01*
X593007D01*
X594007Y158716D01*
X516063Y269997D02*
X517063Y270997D01*
X518063D01*
X517063Y271997D01*
X518063Y272997D01*
X517063D01*
X516063Y273997D01*
X515063Y272997D01*
X514063D01*
X515063Y271997D01*
X514063Y270997D01*
X515063D01*
X516063Y269997D01*
X516425Y259227D02*
X517425Y260227D01*
X518425D01*
X517425Y261227D01*
X518425Y262227D01*
X517425D01*
X516425Y263227D01*
X515425Y262227D01*
X514425D01*
X515425Y261227D01*
X514425Y260227D01*
X515425D01*
X516425Y259227D01*
X516031Y247464D02*
X517031Y248464D01*
X518031D01*
X517031Y249464D01*
X518031Y250464D01*
X517031D01*
X516031Y251464D01*
X515031Y250464D01*
X514031D01*
X515031Y249464D01*
X514031Y248464D01*
X515031D01*
X516031Y247464D01*
X516379Y236966D02*
X517379Y237966D01*
X518379D01*
X517379Y238966D01*
X518379Y239966D01*
X517379D01*
X516379Y240966D01*
X515379Y239966D01*
X514379D01*
X515379Y238966D01*
X514379Y237966D01*
X515379D01*
X516379Y236966D01*
X537640Y220783D02*
X538640Y221783D01*
X539641D01*
X538640Y222783D01*
X539641Y223783D01*
X538640D01*
X537640Y224783D01*
X536641Y223783D01*
X535640D01*
X536641Y222783D01*
X535640Y221783D01*
X536641D01*
X537640Y220783D01*
X608696Y237446D02*
X609696Y238446D01*
X610696D01*
X609696Y239446D01*
X610696Y240446D01*
X609696D01*
X608696Y241446D01*
X607696Y240446D01*
X606696D01*
X607696Y239446D01*
X606696Y238446D01*
X607696D01*
X608696Y237446D01*
X629082Y180595D02*
X630082Y181595D01*
X631082D01*
X630082Y182595D01*
X631082Y183595D01*
X630082D01*
X629082Y184595D01*
X628082Y183595D01*
X627082D01*
X628082Y182595D01*
X627082Y181595D01*
X628082D01*
X629082Y180595D01*
X628868Y174372D02*
X629868Y175372D01*
X630868D01*
X629868Y176372D01*
X630868Y177372D01*
X629868D01*
X628868Y178372D01*
X627868Y177372D01*
X626868D01*
X627868Y176372D01*
X626868Y175372D01*
X627868D01*
X628868Y174372D01*
X594271Y166156D02*
X595271Y167156D01*
X596271D01*
X595271Y168156D01*
X596271Y169156D01*
X595271D01*
X594271Y170156D01*
X593271Y169156D01*
X592271D01*
X593271Y168156D01*
X592271Y167156D01*
X593271D01*
X594271Y166156D01*
X525412Y144894D02*
X526411Y145894D01*
X527412D01*
X526411Y146894D01*
X527412Y147894D01*
X526411D01*
X525412Y148894D01*
X524411Y147894D01*
X523412D01*
X524411Y146894D01*
X523412Y145894D01*
X524411D01*
X525412Y144894D01*
X518172Y144559D02*
X519172Y145559D01*
X520172D01*
X519172Y146559D01*
X520172Y147559D01*
X519172D01*
X518172Y148559D01*
X517172Y147559D01*
X516172D01*
X517172Y146559D01*
X516172Y145559D01*
X517172D01*
X518172Y144559D01*
X571304Y229365D02*
X572304Y230365D01*
X573304D01*
X572304Y231365D01*
X573304Y232365D01*
X572304D01*
X571304Y233365D01*
X570304Y232365D01*
X569304D01*
X570304Y231365D01*
X569304Y230365D01*
X570304D01*
X571304Y229365D01*
X563949Y167868D02*
X564949Y168868D01*
X565949D01*
X564949Y169868D01*
X565949Y170868D01*
X564949D01*
X563949Y171868D01*
X562949Y170868D01*
X561949D01*
X562949Y169868D01*
X561949Y168868D01*
X562949D01*
X563949Y167868D01*
X593819Y229747D02*
X594818Y230747D01*
X595819D01*
X594818Y231747D01*
X595819Y232747D01*
X594818D01*
X593819Y233747D01*
X592818Y232747D01*
X591819D01*
X592818Y231747D01*
X591819Y230747D01*
X592818D01*
X593819Y229747D01*
X603826Y181794D02*
X604826Y182794D01*
X605826D01*
X604826Y183794D01*
X605826Y184794D01*
X604826D01*
X603826Y185794D01*
X602826Y184794D01*
X601826D01*
X602826Y183794D01*
X601826Y182794D01*
X602826D01*
X603826Y181794D01*
X613836Y185672D02*
X614836Y186672D01*
X615836D01*
X614836Y187672D01*
X615836Y188672D01*
X614836D01*
X613836Y189672D01*
X612836Y188672D01*
X611836D01*
X612836Y187672D01*
X611836Y186672D01*
X612836D01*
X613836Y185672D01*
X579195Y227878D02*
X580195Y228878D01*
X581195D01*
X580195Y229878D01*
X581195Y230878D01*
X580195D01*
X579195Y231878D01*
X578195Y230878D01*
X577195D01*
X578195Y229878D01*
X577195Y228878D01*
X578195D01*
X579195Y227878D01*
X536026Y191604D02*
X537026Y192604D01*
X538026D01*
X537026Y193604D01*
X538026Y194604D01*
X537026D01*
X536026Y195604D01*
X535026Y194604D01*
X534026D01*
X535026Y193604D01*
X534026Y192604D01*
X535026D01*
X536026Y191604D01*
X620128Y267240D02*
X621128Y268240D01*
X622128D01*
X621128Y269240D01*
X622128Y270240D01*
X621128D01*
X620128Y271240D01*
X619128Y270240D01*
X618128D01*
X619128Y269240D01*
X618128Y268240D01*
X619128D01*
X620128Y267240D01*
X603624Y259821D02*
X604624Y260821D01*
X605624D01*
X604624Y261821D01*
X605624Y262821D01*
X604624D01*
X603624Y263821D01*
X602624Y262821D01*
X601624D01*
X602624Y261821D01*
X601624Y260821D01*
X602624D01*
X603624Y259821D01*
X553488Y265336D02*
X554488Y266336D01*
X555488D01*
X554488Y267336D01*
X555488Y268336D01*
X554488D01*
X553488Y269336D01*
X552488Y268336D01*
X551488D01*
X552488Y267336D01*
X551488Y266336D01*
X552488D01*
X553488Y265336D01*
X622921Y139068D02*
X623921Y140068D01*
X624921D01*
X623921Y141068D01*
X624921Y142068D01*
X623921D01*
X622921Y143068D01*
X621921Y142068D01*
X620921D01*
X621921Y141068D01*
X620921Y140068D01*
X621921D01*
X622921Y139068D01*
X535945Y128725D02*
X536945Y129725D01*
X537945D01*
X536945Y130725D01*
X537945Y131725D01*
X536945D01*
X535945Y132725D01*
X534945Y131725D01*
X533945D01*
X534945Y130725D01*
X533945Y129725D01*
X534945D01*
X535945Y128725D01*
D80*
X634500Y115961D02*
G03*
X634500Y115961I-2000J0D01*
G01*
Y125961D02*
G03*
X634500Y125961I-2000J0D01*
G01*
X522139Y226137D02*
G03*
X522139Y226137I-2000J0D01*
G01*
Y206137D02*
G03*
X522139Y206137I-2000J0D01*
G01*
Y196137D02*
G03*
X522139Y196137I-2000J0D01*
G01*
Y216137D02*
G03*
X522139Y216137I-2000J0D01*
G01*
X635638Y222554D02*
G03*
X635638Y222554I-2000J0D01*
G01*
Y242554D02*
G03*
X635638Y242554I-2000J0D01*
G01*
Y252554D02*
G03*
X635638Y252554I-2000J0D01*
G01*
Y232554D02*
G03*
X635638Y232554I-2000J0D01*
G01*
%TF.MD5,c1a844fcda7366f848d9d00d80e98c3a*%
M02*
