%TF.GenerationSoftware,Altium Limited,Altium Designer,20.0.13 (296)*%
G04 Layer_Color=128*
%FSLAX25Y25*%
%MOIN*%
%TF.FileFunction,Drillmap*%
%TF.Part,Single*%
G01*
G75*
%TA.AperFunction,NonConductor*%
%ADD61C,0.00500*%
D61*
X596288Y115033D02*
X600619D01*
X598453Y112868D02*
Y117198D01*
X582508Y115033D02*
X586839D01*
X584674Y112868D02*
Y117198D01*
X568729Y115033D02*
X573060D01*
X570894Y112868D02*
Y117198D01*
X568729Y134718D02*
X573060D01*
X570894Y132553D02*
Y136883D01*
X582508Y134718D02*
X586839D01*
X584674Y132553D02*
Y136883D01*
X596288Y134718D02*
X600619D01*
X598453Y132553D02*
Y136883D01*
X610068Y134718D02*
X614398D01*
X612233Y132553D02*
Y136883D01*
X610068Y115033D02*
X614398D01*
X612233Y112868D02*
Y117198D01*
X630500Y115961D02*
X634500D01*
X632500Y113961D02*
Y117961D01*
X630500Y125961D02*
X634500D01*
X632500Y123961D02*
Y127961D01*
X487201Y191607D02*
X503736D01*
X495469Y183339D02*
Y199875D01*
X650256Y191869D02*
X666791D01*
X658523Y183602D02*
Y200137D01*
X518139Y226137D02*
X522139D01*
X520139Y224137D02*
Y228137D01*
X518139Y206137D02*
X522139D01*
X520139Y204137D02*
Y208137D01*
X518139Y196137D02*
X522139D01*
X520139Y194137D02*
Y198137D01*
X518139Y216137D02*
X522139D01*
X520139Y214137D02*
Y218137D01*
X631638Y222554D02*
X635638D01*
X633638Y220554D02*
Y224554D01*
X631638Y242554D02*
X635638D01*
X633638Y240554D02*
Y244554D01*
X631638Y252554D02*
X635638D01*
X633638Y250554D02*
Y254554D01*
X631638Y232554D02*
X635638D01*
X633638Y230554D02*
Y234554D01*
X598316Y199863D02*
X599498D01*
X598907Y199272D02*
Y200453D01*
X598959Y211605D02*
X600140D01*
X599549Y211014D02*
Y212195D01*
X597962Y208143D02*
X599143D01*
X598553Y207552D02*
Y208733D01*
X596410Y217000D02*
X597590D01*
X597000Y216409D02*
Y217590D01*
X577914Y182768D02*
X579095D01*
X578505Y182177D02*
Y183358D01*
X565666Y157135D02*
X566847D01*
X566257Y156545D02*
Y157726D01*
X574720Y167361D02*
X575902D01*
X575311Y166771D02*
Y167952D01*
X591409Y181833D02*
X592591D01*
X592000Y181243D02*
Y182424D01*
X595078Y182206D02*
X596259D01*
X595668Y181616D02*
Y182797D01*
X573305Y177609D02*
X574486D01*
X573895Y177018D02*
Y178199D01*
X566409Y204500D02*
X567591D01*
X567000Y203909D02*
Y205090D01*
X553993Y188124D02*
X555174D01*
X554583Y187533D02*
Y188714D01*
X560207Y194669D02*
X561388D01*
X560797Y194078D02*
Y195259D01*
X552188Y193870D02*
X553369D01*
X552779Y193279D02*
Y194460D01*
X572591Y172442D02*
X573772D01*
X573182Y171852D02*
Y173033D01*
X562409Y211675D02*
X563590D01*
X562999Y211084D02*
Y212265D01*
X550071Y202863D02*
X551252D01*
X550662Y202272D02*
Y203453D01*
X600488Y250744D02*
X601669D01*
X601079Y250154D02*
Y251335D01*
X610417Y220676D02*
X611598D01*
X611007Y220086D02*
Y221267D01*
X545754Y202849D02*
X546935D01*
X546345Y202258D02*
Y203439D01*
X550302Y211402D02*
X551483D01*
X550892Y210811D02*
Y211992D01*
X577910Y195500D02*
X579090D01*
X578500Y194909D02*
Y196091D01*
X580873Y198422D02*
X582054D01*
X581463Y197832D02*
Y199013D01*
X584030Y210018D02*
X585211D01*
X584621Y209428D02*
Y210609D01*
X609466Y190386D02*
X610647D01*
X610056Y189795D02*
Y190976D01*
X548798Y216043D02*
X549979D01*
X549389Y215452D02*
Y216633D01*
X588434Y202985D02*
X589615D01*
X589024Y202394D02*
Y203575D01*
X588026Y215207D02*
X589207D01*
X588617Y214616D02*
Y215797D01*
X583681Y214098D02*
X584862D01*
X584271Y213508D02*
Y214688D01*
X584410Y202500D02*
X585591D01*
X585000Y201909D02*
Y203091D01*
X535507Y166442D02*
X536688D01*
X536098Y165852D02*
Y167033D01*
X535653Y171330D02*
X536834D01*
X536243Y170740D02*
Y171921D01*
X548469Y184862D02*
X549650D01*
X549060Y184272D02*
Y185453D01*
X607386Y166718D02*
X608567D01*
X607977Y166128D02*
Y167309D01*
X570869Y251135D02*
X572050D01*
X571460Y250545D02*
Y251726D01*
X524897Y166720D02*
X526078D01*
X525488Y166129D02*
Y167311D01*
X530133Y166383D02*
X531314D01*
X530724Y165793D02*
Y166974D01*
X531310Y145297D02*
X532490D01*
X531900Y144707D02*
Y145888D01*
X558589Y234178D02*
X559770D01*
X559179Y233587D02*
Y234768D01*
X536019Y108608D02*
X537200D01*
X536610Y108018D02*
Y109199D01*
X516519Y163801D02*
X517700D01*
X517109Y163210D02*
Y164391D01*
X596337Y234133D02*
X597518D01*
X596928Y233543D02*
Y234724D01*
X545351Y180578D02*
X546532D01*
X545942Y179988D02*
Y181169D01*
X535278Y184012D02*
X536459D01*
X535868Y183422D02*
Y184603D01*
X530163Y184012D02*
X531345D01*
X530754Y183422D02*
Y184603D01*
X524430Y184012D02*
X525611D01*
X525020Y183422D02*
Y184603D01*
X539762Y146526D02*
X540944D01*
X540353Y145936D02*
Y147117D01*
X554956Y148403D02*
X556137D01*
X555546Y147812D02*
Y148993D01*
X530232Y171539D02*
X531413D01*
X530822Y170948D02*
Y172129D01*
X524869Y171459D02*
X526050D01*
X525460Y170868D02*
Y172049D01*
X619431Y230882D02*
X620612D01*
X620022Y230291D02*
Y231472D01*
X533273Y245607D02*
X534454D01*
X533864Y245016D02*
Y246197D01*
X552547Y248837D02*
X553728D01*
X553138Y248247D02*
Y249428D01*
X552865Y257251D02*
X554046D01*
X553455Y256660D02*
Y257841D01*
X532618Y241490D02*
X533799D01*
X533209Y240900D02*
Y242081D01*
X533414Y266329D02*
X534595D01*
X534004Y265738D02*
Y266919D01*
X534180Y255897D02*
X535361D01*
X534770Y255307D02*
Y256488D01*
X593416Y160716D02*
X594597D01*
X594007Y160126D02*
Y161307D01*
X515473Y271997D02*
X516654D01*
X516063Y271407D02*
Y272588D01*
X515835Y261227D02*
X517016D01*
X516425Y260636D02*
Y261818D01*
X515441Y249464D02*
X516622D01*
X516031Y248873D02*
Y250055D01*
X515788Y238966D02*
X516969D01*
X516379Y238375D02*
Y239556D01*
X537050Y222783D02*
X538231D01*
X537640Y222192D02*
Y223373D01*
X608105Y239446D02*
X609286D01*
X608696Y238855D02*
Y240036D01*
X628492Y182595D02*
X629673D01*
X629082Y182005D02*
Y183186D01*
X628277Y176372D02*
X629458D01*
X628868Y175782D02*
Y176963D01*
X593680Y168156D02*
X594862D01*
X594271Y167565D02*
Y168746D01*
X524821Y146894D02*
X526002D01*
X525412Y146303D02*
Y147485D01*
X517581Y146559D02*
X518762D01*
X518172Y145968D02*
Y147149D01*
X570713Y231365D02*
X571894D01*
X571304Y230774D02*
Y231956D01*
X563358Y169868D02*
X564539D01*
X563949Y169277D02*
Y170458D01*
X593228Y231747D02*
X594409D01*
X593819Y231156D02*
Y232337D01*
X603236Y183794D02*
X604417D01*
X603826Y183203D02*
Y184384D01*
X613245Y187672D02*
X614427D01*
X613836Y187082D02*
Y188263D01*
X578605Y229878D02*
X579786D01*
X579195Y229287D02*
Y230469D01*
X535435Y193604D02*
X536616D01*
X536026Y193013D02*
Y194194D01*
X619538Y269240D02*
X620719D01*
X620128Y268650D02*
Y269831D01*
X603033Y261821D02*
X604215D01*
X603624Y261230D02*
Y262411D01*
X552898Y267336D02*
X554079D01*
X553488Y266746D02*
Y267927D01*
X622330Y141068D02*
X623511D01*
X622921Y140478D02*
Y141659D01*
X535354Y130725D02*
X536536D01*
X535945Y130135D02*
Y131316D01*
%TF.MD5,d8052f397f2ef82d9d4e444cb34578bb*%
M02*
