%TF.GenerationSoftware,Altium Limited,Altium Designer,20.0.13 (296)*%
G04 Layer_Color=0*
%FSLAX25Y25*%
%MOIN*%
%TF.FileFunction,Plated,1,4,PTH,Drill*%
%TF.Part,Single*%
G01*
G75*
%TA.AperFunction,ComponentDrill*%
%ADD75C,0.04331*%
%ADD76C,0.04000*%
%ADD77C,0.16535*%
%TA.AperFunction,ViaDrill,NotFilled*%
%ADD78C,0.01181*%
D75*
X598453Y115033D02*
D03*
X584674D02*
D03*
X570894D02*
D03*
Y134718D02*
D03*
X584674D02*
D03*
X598453D02*
D03*
X612233D02*
D03*
Y115033D02*
D03*
D76*
X632500Y115961D02*
D03*
Y125961D02*
D03*
X520139Y226137D02*
D03*
Y206137D02*
D03*
Y196137D02*
D03*
Y216137D02*
D03*
X633638Y222554D02*
D03*
Y242554D02*
D03*
Y252554D02*
D03*
Y232554D02*
D03*
D77*
X495469Y191607D02*
D03*
X658523Y191869D02*
D03*
D78*
X598907Y199863D02*
D03*
X599549Y211605D02*
D03*
X598553Y208143D02*
D03*
X597000Y217000D02*
D03*
X578505Y182768D02*
D03*
X566257Y157135D02*
D03*
X575311Y167361D02*
D03*
X592000Y181833D02*
D03*
X595668Y182206D02*
D03*
X573895Y177609D02*
D03*
X567000Y204500D02*
D03*
X554583Y188124D02*
D03*
X560797Y194669D02*
D03*
X552779Y193870D02*
D03*
X573182Y172442D02*
D03*
X562999Y211675D02*
D03*
X550662Y202863D02*
D03*
X601079Y250744D02*
D03*
X611007Y220676D02*
D03*
X546345Y202849D02*
D03*
X550892Y211402D02*
D03*
X578500Y195500D02*
D03*
X581463Y198422D02*
D03*
X584621Y210018D02*
D03*
X610056Y190386D02*
D03*
X549389Y216043D02*
D03*
X589024Y202985D02*
D03*
X588617Y215207D02*
D03*
X584271Y214098D02*
D03*
X585000Y202500D02*
D03*
X536098Y166442D02*
D03*
X536243Y171330D02*
D03*
X549060Y184862D02*
D03*
X607977Y166718D02*
D03*
X571460Y251135D02*
D03*
X525488Y166720D02*
D03*
X530724Y166383D02*
D03*
X531900Y145297D02*
D03*
X559179Y234178D02*
D03*
X536610Y108608D02*
D03*
X517109Y163801D02*
D03*
X596928Y234133D02*
D03*
X545942Y180578D02*
D03*
X535868Y184012D02*
D03*
X530754D02*
D03*
X525020D02*
D03*
X540353Y146526D02*
D03*
X555546Y148403D02*
D03*
X530822Y171539D02*
D03*
X525460Y171459D02*
D03*
X620022Y230882D02*
D03*
X533864Y245607D02*
D03*
X553138Y248837D02*
D03*
X553455Y257251D02*
D03*
X533209Y241490D02*
D03*
X534004Y266329D02*
D03*
X534770Y255897D02*
D03*
X594007Y160716D02*
D03*
X516063Y271997D02*
D03*
X516425Y261227D02*
D03*
X516031Y249464D02*
D03*
X516379Y238966D02*
D03*
X537640Y222783D02*
D03*
X608696Y239446D02*
D03*
X629082Y182595D02*
D03*
X628868Y176372D02*
D03*
X594271Y168156D02*
D03*
X525412Y146894D02*
D03*
X518172Y146559D02*
D03*
X571304Y231365D02*
D03*
X563949Y169868D02*
D03*
X593819Y231747D02*
D03*
X603826Y183794D02*
D03*
X613836Y187672D02*
D03*
X579195Y229878D02*
D03*
X536026Y193604D02*
D03*
X620128Y269240D02*
D03*
X603624Y261821D02*
D03*
X553488Y267336D02*
D03*
X622921Y141068D02*
D03*
X535945Y130725D02*
D03*
%TF.MD5,3b2fe9a7f5b96d811aec16943c2c2c53*%
M02*
