%TF.GenerationSoftware,Altium Limited,Altium Designer,20.0.13 (296)*%
G04 Layer_Physical_Order=1*
G04 Layer_Color=255*
%FSLAX25Y25*%
%MOIN*%
%TF.FileFunction,Copper,L1,Top,Signal*%
%TF.Part,Single*%
G01*
G75*
%TA.AperFunction,SMDPad,CuDef*%
%ADD10R,0.06496X0.08465*%
%ADD11R,0.03543X0.02756*%
%ADD12O,0.05709X0.01181*%
%ADD13O,0.01181X0.05709*%
%ADD14R,0.05118X0.03740*%
%ADD15O,0.05709X0.02362*%
%ADD16R,0.03740X0.05118*%
%ADD17R,0.08300X0.22000*%
%ADD18R,0.02756X0.03543*%
%ADD19R,0.03740X0.08465*%
%ADD20R,0.12795X0.08465*%
%ADD21O,0.02362X0.05709*%
%ADD22R,0.09843X0.12500*%
%ADD23R,0.04331X0.06299*%
%TA.AperFunction,Conductor*%
%ADD24C,0.01000*%
%ADD25C,0.01181*%
%ADD26C,0.05000*%
%ADD27C,0.02000*%
%TA.AperFunction,ComponentPad*%
%ADD28C,0.07874*%
%ADD29R,0.07874X0.07874*%
%ADD30R,0.06000X0.06000*%
%ADD31C,0.06000*%
%ADD32C,0.27165*%
%TA.AperFunction,ViaPad*%
%ADD33C,0.02362*%
%ADD34C,0.01181*%
G36*
X636023Y282060D02*
X637163Y281587D01*
X638190Y280901D01*
X639063Y280028D01*
X639749Y279001D01*
X640222Y277860D01*
X640462Y276649D01*
Y276032D01*
X640463Y276031D01*
X640462Y276031D01*
X640505Y223649D01*
X640521Y223566D01*
X640514Y223482D01*
X640592Y222743D01*
X640614Y222672D01*
Y222598D01*
X640915Y221084D01*
X640975Y220938D01*
X641006Y220783D01*
X641597Y219356D01*
X641685Y219225D01*
X641745Y219079D01*
X642603Y217795D01*
X642715Y217684D01*
X642802Y217552D01*
X643894Y216461D01*
X644025Y216373D01*
X644137Y216261D01*
X645421Y215404D01*
X645567Y215343D01*
X645698Y215255D01*
X647124Y214664D01*
X647279Y214633D01*
X647426Y214573D01*
X648939Y214272D01*
X649058D01*
X649174Y214243D01*
X649481Y214228D01*
X649653Y214194D01*
X649820Y214130D01*
X649958Y214133D01*
X650093Y214106D01*
X657766D01*
X657904Y214014D01*
X657968Y214001D01*
X658026Y213969D01*
X658274Y213941D01*
X658518Y213892D01*
X659755D01*
X662212Y213615D01*
X664623Y213065D01*
X666957Y212248D01*
X669185Y211175D01*
X671278Y209859D01*
X673212Y208318D01*
X674960Y206569D01*
X676502Y204636D01*
X677818Y202542D01*
X678891Y200314D01*
X679707Y197980D01*
X680258Y195569D01*
X680535Y193112D01*
Y190639D01*
X680258Y188182D01*
X679707Y185771D01*
X678891Y183437D01*
X677818Y181209D01*
X676502Y179115D01*
X674961Y177182D01*
X673212Y175433D01*
X671278Y173891D01*
X669185Y172576D01*
X666957Y171503D01*
X664623Y170686D01*
X662212Y170136D01*
X659755Y169859D01*
X658518D01*
X658359Y169827D01*
X658196Y169826D01*
X658055Y169767D01*
X658044Y169765D01*
X650206D01*
X650166Y169757D01*
X650127Y169763D01*
X649850Y169749D01*
X649850Y169749D01*
X649078Y169711D01*
X648963Y169682D01*
X648844D01*
X647330Y169381D01*
X647184Y169321D01*
X647029Y169290D01*
X645603Y168699D01*
X645471Y168611D01*
X645325Y168551D01*
X644042Y167693D01*
X643930Y167581D01*
X643798Y167493D01*
X642707Y166402D01*
X642619Y166271D01*
X642507Y166159D01*
X641650Y164875D01*
X641589Y164729D01*
X641501Y164598D01*
X640911Y163172D01*
X640880Y163017D01*
X640819Y162871D01*
X640518Y161356D01*
Y161238D01*
X640489Y161122D01*
X640479Y160921D01*
X640438Y160859D01*
X640407Y160700D01*
X640345Y160551D01*
X640346Y160396D01*
X640316Y160244D01*
Y108385D01*
X640285Y108322D01*
X640271Y108112D01*
X640230Y107905D01*
Y107288D01*
X639989Y106077D01*
X639516Y104936D01*
X638830Y103910D01*
X637957Y103036D01*
X636930Y102350D01*
X635790Y101878D01*
X634579Y101637D01*
X633961D01*
X633847Y101614D01*
X633730Y101620D01*
X633628Y101605D01*
X519570D01*
X519544Y101600D01*
X519517Y101604D01*
X519237Y101539D01*
X518956Y101483D01*
X518933Y101468D01*
X518907Y101462D01*
X518902Y101459D01*
X518632D01*
X517420Y101700D01*
X516280Y102173D01*
X515253Y102859D01*
X514380Y103732D01*
X513694Y104759D01*
X513221Y105899D01*
X512981Y107110D01*
Y107728D01*
X512954Y107859D01*
X512958Y107994D01*
X512909Y108123D01*
Y160204D01*
X512898Y160258D01*
X512906Y160314D01*
X512853Y161077D01*
X512826Y161177D01*
Y161281D01*
X512525Y162795D01*
X512464Y162941D01*
X512434Y163096D01*
X511843Y164522D01*
X511755Y164653D01*
X511694Y164799D01*
X510837Y166083D01*
X510725Y166195D01*
X510637Y166326D01*
X509546Y167418D01*
X509414Y167506D01*
X509303Y167617D01*
X508019Y168475D01*
X507873Y168535D01*
X507741Y168623D01*
X506315Y169214D01*
X506160Y169245D01*
X506014Y169305D01*
X504500Y169606D01*
X504381D01*
X504266Y169635D01*
X503494Y169673D01*
X503457Y169668D01*
X503420Y169675D01*
X495330Y169699D01*
X495183Y169670D01*
X495034Y169672D01*
X495013Y169664D01*
X494251D01*
X491794Y169941D01*
X489383Y170491D01*
X487049Y171308D01*
X484821Y172381D01*
X482727Y173696D01*
X480794Y175238D01*
X479045Y176987D01*
X477503Y178920D01*
X476188Y181014D01*
X475115Y183242D01*
X474298Y185576D01*
X473748Y187987D01*
X473471Y190444D01*
Y192917D01*
X473748Y195374D01*
X474298Y197785D01*
X475115Y200119D01*
X476188Y202347D01*
X477503Y204441D01*
X479045Y206374D01*
X480794Y208123D01*
X482727Y209665D01*
X484821Y210980D01*
X487049Y212053D01*
X489383Y212870D01*
X491794Y213420D01*
X494251Y213697D01*
X495487D01*
X495511Y213702D01*
X495536Y213698D01*
X495607Y213700D01*
X503643D01*
X503759Y213672D01*
X503828Y213684D01*
X503897Y213673D01*
X504668Y213711D01*
X504784Y213740D01*
X504903D01*
X506417Y214041D01*
X506563Y214102D01*
X506718Y214133D01*
X508144Y214723D01*
X508276Y214811D01*
X508422Y214872D01*
X509705Y215729D01*
X509817Y215841D01*
X509948Y215929D01*
X511040Y217020D01*
X511128Y217152D01*
X511239Y217264D01*
X512097Y218547D01*
X512158Y218693D01*
X512245Y218825D01*
X512836Y220251D01*
X512867Y220406D01*
X512927Y220552D01*
X513229Y222066D01*
Y222185D01*
X513258Y222300D01*
X513296Y223072D01*
X513289Y223112D01*
X513297Y223152D01*
X513259Y275551D01*
X513244Y275626D01*
X513252Y275704D01*
X513216Y276068D01*
Y276608D01*
X513457Y277819D01*
X513930Y278960D01*
X514616Y279987D01*
X515489Y280860D01*
X516516Y281546D01*
X517656Y282018D01*
X518867Y282259D01*
X519485D01*
X519489Y282260D01*
X519493Y282259D01*
X519775Y282261D01*
X633945Y282261D01*
X634070Y282286D01*
X634197Y282281D01*
X634321Y282300D01*
X634811D01*
X636023Y282060D01*
D02*
G37*
%LPC*%
G36*
X617144Y280798D02*
X610814D01*
Y278688D01*
X607144D01*
Y280798D01*
X600813D01*
Y278688D01*
X597144D01*
Y280798D01*
X590813D01*
Y278688D01*
X587144D01*
Y280798D01*
X580814D01*
Y278688D01*
X577144D01*
Y280798D01*
X570814D01*
Y278688D01*
X567144D01*
Y280798D01*
X560814D01*
Y278688D01*
X557144D01*
Y280798D01*
X550813D01*
Y278688D01*
X547144D01*
Y280798D01*
X540813D01*
Y272499D01*
X547144D01*
Y274609D01*
X550813D01*
Y272499D01*
X557144D01*
Y274609D01*
X560814D01*
Y272499D01*
X567144D01*
Y274609D01*
X570814D01*
Y272499D01*
X577144D01*
Y274609D01*
X580814D01*
Y272499D01*
X587144D01*
Y274609D01*
X590813D01*
Y272499D01*
X597144D01*
Y274609D01*
X600813D01*
Y272499D01*
X607144D01*
Y274609D01*
X610814D01*
Y272499D01*
X614851D01*
X617939Y269411D01*
X617905Y269240D01*
X618074Y268389D01*
X618556Y267668D01*
X619277Y267186D01*
X620128Y267017D01*
X620979Y267186D01*
X621701Y267668D01*
X622183Y268389D01*
X622352Y269240D01*
X622183Y270091D01*
X621701Y270813D01*
X620979Y271295D01*
X620558Y271379D01*
X617144Y274792D01*
Y280798D01*
D02*
G37*
G36*
X523840Y275026D02*
X522212D01*
Y273005D01*
X523840D01*
Y275026D01*
D02*
G37*
G36*
X520712D02*
X519084D01*
Y273005D01*
X520712D01*
Y275026D01*
D02*
G37*
G36*
X523840Y271505D02*
X522212D01*
Y269483D01*
X523840D01*
Y271505D01*
D02*
G37*
G36*
X520712D02*
X519084D01*
Y269483D01*
X520712D01*
Y271505D01*
D02*
G37*
G36*
X553488Y268958D02*
X552868Y268835D01*
X552342Y268483D01*
X551990Y267957D01*
X551867Y267336D01*
X551990Y266716D01*
X552342Y266190D01*
X552868Y265838D01*
X553488Y265715D01*
X554109Y265838D01*
X554635Y266190D01*
X554987Y266716D01*
X555110Y267336D01*
X554987Y267957D01*
X554635Y268483D01*
X554109Y268835D01*
X553488Y268958D01*
D02*
G37*
G36*
X529352Y275026D02*
X524596D01*
Y269483D01*
X527583D01*
X531818Y265247D01*
X532314Y264916D01*
X532327Y264913D01*
X532432Y264756D01*
X533153Y264274D01*
X534004Y264105D01*
X534855Y264274D01*
X535577Y264756D01*
X536059Y265478D01*
X536228Y266329D01*
X536059Y267180D01*
X535577Y267901D01*
X534855Y268383D01*
X534004Y268552D01*
X533153Y268383D01*
X533066Y268325D01*
X529352Y272040D01*
Y275026D01*
D02*
G37*
G36*
X523840Y263853D02*
X522212D01*
Y261831D01*
X523840D01*
Y263853D01*
D02*
G37*
G36*
X520712D02*
X519084D01*
Y261831D01*
X520712D01*
Y263853D01*
D02*
G37*
G36*
X603624Y263442D02*
X603004Y263319D01*
X602477Y262967D01*
X602126Y262441D01*
X602002Y261821D01*
X602126Y261200D01*
X602477Y260674D01*
X603004Y260322D01*
X603624Y260199D01*
X604245Y260322D01*
X604771Y260674D01*
X605122Y261200D01*
X605246Y261821D01*
X605122Y262441D01*
X604771Y262967D01*
X604245Y263319D01*
X603624Y263442D01*
D02*
G37*
G36*
X523840Y260331D02*
X522212D01*
Y258310D01*
X523840D01*
Y260331D01*
D02*
G37*
G36*
X520712D02*
X519084D01*
Y258310D01*
X520712D01*
Y260331D01*
D02*
G37*
G36*
X553455Y258872D02*
X552835Y258749D01*
X552308Y258397D01*
X551957Y257871D01*
X551833Y257251D01*
X551957Y256630D01*
X552308Y256104D01*
X552835Y255752D01*
X553455Y255629D01*
X554076Y255752D01*
X554602Y256104D01*
X554953Y256630D01*
X555077Y257251D01*
X554953Y257871D01*
X554602Y258397D01*
X554076Y258749D01*
X553455Y258872D01*
D02*
G37*
G36*
X529352Y263853D02*
X524596D01*
Y258310D01*
X529352D01*
Y258765D01*
X529814Y258956D01*
X532601Y256169D01*
X532547Y255897D01*
X532716Y255047D01*
X533198Y254325D01*
X533919Y253843D01*
X534770Y253674D01*
X535622Y253843D01*
X536343Y254325D01*
X536825Y255047D01*
X536994Y255897D01*
X536825Y256749D01*
X536343Y257470D01*
X535622Y257952D01*
X535025Y258071D01*
X530933Y262162D01*
X530437Y262494D01*
X529852Y262611D01*
X529352D01*
Y263853D01*
D02*
G37*
G36*
X523840Y252679D02*
X522212D01*
Y250658D01*
X523840D01*
Y252679D01*
D02*
G37*
G36*
X520712D02*
X519084D01*
Y250658D01*
X520712D01*
Y252679D01*
D02*
G37*
G36*
X571460Y252757D02*
X570839Y252634D01*
X570313Y252282D01*
X569962Y251756D01*
X569838Y251135D01*
X569962Y250515D01*
X570313Y249989D01*
X570839Y249637D01*
X571460Y249514D01*
X572080Y249637D01*
X572606Y249989D01*
X572958Y250515D01*
X573081Y251135D01*
X572958Y251756D01*
X572606Y252282D01*
X572080Y252634D01*
X571460Y252757D01*
D02*
G37*
G36*
X637638Y256554D02*
X629638D01*
Y248554D01*
X637638D01*
Y256554D01*
D02*
G37*
G36*
X553138Y250459D02*
X552517Y250336D01*
X551991Y249984D01*
X551639Y249458D01*
X551516Y248837D01*
X551639Y248217D01*
X551991Y247691D01*
X552517Y247339D01*
X553138Y247216D01*
X553758Y247339D01*
X554284Y247691D01*
X554636Y248217D01*
X554759Y248837D01*
X554636Y249458D01*
X554284Y249984D01*
X553758Y250336D01*
X553138Y250459D01*
D02*
G37*
G36*
X523840Y249158D02*
X522212D01*
Y247136D01*
X523840D01*
Y249158D01*
D02*
G37*
G36*
X520712D02*
X519084D01*
Y247136D01*
X520712D01*
Y249158D01*
D02*
G37*
G36*
X523840Y241506D02*
X522212D01*
Y239484D01*
X523840D01*
Y241506D01*
D02*
G37*
G36*
X520712D02*
X519084D01*
Y239484D01*
X520712D01*
Y241506D01*
D02*
G37*
G36*
X529352Y252679D02*
X524596D01*
Y247136D01*
X527704D01*
X527852Y247107D01*
X530201D01*
X531650Y245658D01*
X531640Y245607D01*
X531809Y244756D01*
X532291Y244034D01*
X532328Y244010D01*
X532241Y243467D01*
X531636Y243063D01*
X531154Y242341D01*
X531061Y241874D01*
X530722Y241535D01*
X527852D01*
X527704Y241506D01*
X524596D01*
Y235962D01*
X529352D01*
Y238476D01*
X531356D01*
X531941Y238593D01*
X532437Y238924D01*
X532851Y239338D01*
X533209Y239267D01*
X534060Y239436D01*
X534781Y239918D01*
X535263Y240639D01*
X535433Y241490D01*
X535263Y242341D01*
X534781Y243063D01*
X534745Y243087D01*
X534832Y243631D01*
X535436Y244034D01*
X535918Y244756D01*
X536088Y245607D01*
X535918Y246458D01*
X535436Y247179D01*
X534715Y247661D01*
X533864Y247831D01*
X533813Y247820D01*
X531916Y249717D01*
X531420Y250049D01*
X530835Y250165D01*
X529352D01*
Y252679D01*
D02*
G37*
G36*
X633638Y246588D02*
X632593Y246451D01*
X631620Y246048D01*
X630785Y245407D01*
X630144Y244571D01*
X629740Y243598D01*
X629603Y242554D01*
X629740Y241510D01*
X630144Y240537D01*
X630785Y239701D01*
X631620Y239060D01*
X632593Y238657D01*
X633638Y238519D01*
X634682Y238657D01*
X635655Y239060D01*
X636490Y239701D01*
X637132Y240537D01*
X637535Y241510D01*
X637672Y242554D01*
X637535Y243598D01*
X637132Y244571D01*
X636490Y245407D01*
X635655Y246048D01*
X634682Y246451D01*
X633638Y246588D01*
D02*
G37*
G36*
X523840Y237984D02*
X522212D01*
Y235962D01*
X523840D01*
Y237984D01*
D02*
G37*
G36*
X520712D02*
X519084D01*
Y235962D01*
X520712D01*
Y237984D01*
D02*
G37*
G36*
X601079Y252968D02*
X600228Y252799D01*
X599506Y252317D01*
X599024Y251595D01*
X598855Y250744D01*
X598986Y250086D01*
X598918Y249744D01*
Y235912D01*
X598418Y235761D01*
X597779Y236188D01*
X597376Y236268D01*
X597144Y236672D01*
Y244971D01*
X590813D01*
Y238835D01*
X589824Y237845D01*
X589492Y237349D01*
X589467Y237220D01*
X588924Y237055D01*
X587144Y238835D01*
Y244971D01*
X580814D01*
Y238694D01*
X580352Y238503D01*
X578948Y239906D01*
X578452Y240238D01*
X577867Y240354D01*
X577144D01*
Y244971D01*
X570814D01*
Y236672D01*
X577144D01*
Y236677D01*
X577644Y236884D01*
X579474Y235054D01*
X579283Y234592D01*
X576611D01*
X575990Y234469D01*
X575464Y234117D01*
X574333Y232987D01*
X571304D01*
X570683Y232863D01*
X570157Y232512D01*
X569805Y231985D01*
X569682Y231365D01*
X569805Y230744D01*
X570157Y230218D01*
X570683Y229867D01*
X571304Y229743D01*
X575005D01*
X575626Y229867D01*
X576152Y230218D01*
X576623Y230689D01*
X577084Y230443D01*
X576971Y229878D01*
X577141Y229027D01*
X577473Y228530D01*
Y225264D01*
Y220736D01*
X577596Y220116D01*
X577948Y219589D01*
X578474Y219238D01*
X579094Y219114D01*
X579715Y219238D01*
X580079Y219481D01*
X580442Y219238D01*
X581063Y219114D01*
X581115Y219125D01*
X581502Y218808D01*
Y216811D01*
X581618Y216226D01*
X581950Y215729D01*
X582422Y215257D01*
X582217Y214949D01*
X582047Y214098D01*
X582184Y213409D01*
X581887Y212909D01*
X577458D01*
X577173Y213256D01*
X577049Y213877D01*
X576806Y214240D01*
X577049Y214604D01*
X577173Y215224D01*
X577049Y215845D01*
X576806Y216209D01*
X577049Y216572D01*
X577173Y217193D01*
X577049Y217814D01*
X576698Y218340D01*
X576172Y218691D01*
X575551Y218815D01*
X571565D01*
X567174Y223206D01*
Y239156D01*
X567144Y239304D01*
Y244971D01*
X560814D01*
Y236672D01*
X564115D01*
Y222913D01*
X563615Y222706D01*
X557174Y229147D01*
Y233546D01*
X557674Y233596D01*
X557681Y233557D01*
X558033Y233031D01*
X558559Y232680D01*
X559179Y232556D01*
X559800Y232680D01*
X560326Y233031D01*
X560678Y233557D01*
X560801Y234178D01*
X560678Y234798D01*
X560326Y235325D01*
X559800Y235676D01*
X559179Y235800D01*
X558559Y235676D01*
X558033Y235325D01*
X557681Y234798D01*
X557674Y234760D01*
X557174Y234809D01*
Y239156D01*
X557144Y239304D01*
Y244971D01*
X550813D01*
Y236672D01*
X554115D01*
Y230609D01*
X553653Y230418D01*
X548592Y235478D01*
X548569Y235513D01*
X547144Y236938D01*
Y244971D01*
X540813D01*
Y236672D01*
X543649D01*
X543749Y236173D01*
X544080Y235676D01*
X546384Y233373D01*
X546407Y233339D01*
X567571Y212175D01*
X568067Y211843D01*
X568652Y211727D01*
X569095D01*
X569412Y211340D01*
X569402Y211287D01*
X569525Y210667D01*
X569768Y210303D01*
X569525Y209940D01*
X569402Y209319D01*
X569501Y208818D01*
X569441Y208699D01*
X568894Y208589D01*
X568812Y208621D01*
X565090Y212342D01*
X565054Y212526D01*
X564572Y213247D01*
X563850Y213729D01*
X562999Y213899D01*
X562483Y213796D01*
X562049Y214176D01*
X562048Y214180D01*
X561880Y215027D01*
X561398Y215749D01*
X560676Y216231D01*
X559825Y216400D01*
X556479D01*
X555628Y216231D01*
X554980Y215798D01*
X552247D01*
X551516Y216529D01*
X551443Y216894D01*
X551010Y217541D01*
Y218875D01*
X552647D01*
Y225993D01*
X546907D01*
Y218875D01*
X547767D01*
Y217541D01*
X547334Y216894D01*
X547165Y216043D01*
X547334Y215192D01*
X547816Y214470D01*
X548538Y213988D01*
X549389Y213819D01*
X549506Y213655D01*
X549396Y213025D01*
X549320Y212974D01*
X548838Y212252D01*
X548668Y211402D01*
X548838Y210550D01*
X549320Y209829D01*
X549623Y209626D01*
Y209502D01*
X549740Y208917D01*
X550071Y208420D01*
X552309Y206184D01*
X552123Y205662D01*
X551758Y205589D01*
X551262Y205258D01*
X551020Y205015D01*
X550662Y205086D01*
X549811Y204917D01*
X549089Y204435D01*
X548799Y204001D01*
X548198D01*
X547917Y204421D01*
X547196Y204903D01*
X546345Y205072D01*
X545494Y204903D01*
X544772Y204421D01*
X544290Y203700D01*
X544121Y202849D01*
X544290Y201997D01*
X544772Y201276D01*
X545494Y200794D01*
X546345Y200625D01*
X546396Y200635D01*
X548936Y198095D01*
X549432Y197763D01*
X550017Y197647D01*
X554877D01*
X554906Y197604D01*
X555449Y197241D01*
Y191153D01*
X554634Y190337D01*
X554583Y190347D01*
X553732Y190178D01*
X553011Y189696D01*
X552529Y188974D01*
X552359Y188124D01*
X552529Y187272D01*
X552721Y186984D01*
X552454Y186484D01*
X550559D01*
X549911Y186917D01*
X549060Y187086D01*
X548209Y186917D01*
X547487Y186435D01*
X547005Y185713D01*
X546836Y184862D01*
X547005Y184011D01*
X547487Y183290D01*
X548209Y182808D01*
X549060Y182638D01*
X549911Y182808D01*
X550559Y183240D01*
X556891D01*
X557512Y183364D01*
X558038Y183715D01*
X558892Y184569D01*
X559354Y184378D01*
Y183661D01*
X562163D01*
Y185782D01*
X560757D01*
X560566Y186243D01*
X561647Y187325D01*
X562230D01*
X562652Y187241D01*
X563341D01*
X563762Y187325D01*
X566472D01*
Y190254D01*
X566501Y190402D01*
Y190945D01*
X569567Y194010D01*
X570560D01*
X571024Y193918D01*
X575551D01*
X576172Y194041D01*
X576348Y194159D01*
X576838Y194061D01*
X576928Y193928D01*
X577609Y193472D01*
X577665Y193386D01*
X577790Y192908D01*
X577596Y192617D01*
X577473Y191996D01*
Y187469D01*
X577565Y187004D01*
Y184763D01*
X576932Y184340D01*
X576450Y183619D01*
X576281Y182768D01*
X576407Y182132D01*
X576398Y181868D01*
X576080Y181570D01*
X575804Y181516D01*
X575308Y181184D01*
X573946Y179822D01*
X573895Y179832D01*
X573044Y179663D01*
X572323Y179181D01*
X571841Y178460D01*
X571671Y177609D01*
X571841Y176758D01*
X572323Y176036D01*
X573044Y175554D01*
X573895Y175385D01*
X574746Y175554D01*
X575468Y176036D01*
X575950Y176758D01*
X576119Y177609D01*
X576109Y177659D01*
X577023Y178573D01*
X578104D01*
X578410Y178073D01*
X578276Y177402D01*
Y174055D01*
X578445Y173204D01*
X578928Y172483D01*
X578697Y172037D01*
X576089Y169430D01*
X575311Y169585D01*
X574460Y169416D01*
X573738Y168934D01*
X573256Y168212D01*
X573087Y167361D01*
X573256Y166510D01*
X573738Y165789D01*
X574276Y165429D01*
X574401Y164847D01*
X573741Y164187D01*
X572374D01*
Y164943D01*
X566831D01*
Y162481D01*
X565336Y160986D01*
X564984Y160460D01*
X564861Y159840D01*
Y158826D01*
X564684Y158708D01*
X564202Y157986D01*
X564033Y157135D01*
X564202Y156284D01*
X564684Y155563D01*
X565406Y155081D01*
X566257Y154911D01*
X567108Y155081D01*
X567829Y155563D01*
X568311Y156284D01*
X568480Y157135D01*
X568311Y157986D01*
X568104Y158296D01*
Y159168D01*
X569124Y160187D01*
X572374D01*
Y160944D01*
X574413D01*
X575033Y161067D01*
X575559Y161419D01*
X586089Y171949D01*
X586351Y172001D01*
X587073Y172483D01*
X587555Y173204D01*
X587724Y174055D01*
Y177402D01*
X587555Y178253D01*
X587073Y178974D01*
X586351Y179456D01*
X586132Y179500D01*
X585987Y179978D01*
X590883Y184874D01*
X591345Y184683D01*
Y183927D01*
X591149Y183888D01*
X590427Y183406D01*
X589945Y182684D01*
X589776Y181833D01*
X589945Y180982D01*
X590427Y180261D01*
X590664Y180103D01*
X590518Y179678D01*
X590483Y179622D01*
X589649Y179456D01*
X588928Y178974D01*
X588445Y178253D01*
X588276Y177402D01*
Y176478D01*
X592724D01*
Y177402D01*
X592555Y178253D01*
X592072Y178974D01*
X591835Y179132D01*
X591982Y179557D01*
X592017Y179613D01*
X592851Y179779D01*
X593573Y180261D01*
X593822Y180634D01*
X594096D01*
X594817Y180152D01*
X595200Y180076D01*
Y179566D01*
X594649Y179456D01*
X593927Y178974D01*
X593445Y178253D01*
X593276Y177402D01*
Y174055D01*
X593445Y173204D01*
X593927Y172483D01*
X594649Y172001D01*
X595500Y171831D01*
X596351Y172001D01*
X597073Y172483D01*
X597555Y173204D01*
X597724Y174055D01*
Y177402D01*
X597714Y177453D01*
X599490Y179229D01*
X599822Y179725D01*
X599938Y180311D01*
Y184124D01*
X599822Y184709D01*
X599490Y185205D01*
X599440Y185256D01*
X599465Y185573D01*
X599592Y185807D01*
X599817Y185836D01*
X601645Y184007D01*
X601602Y183794D01*
X601772Y182942D01*
X602254Y182221D01*
X602558Y182018D01*
Y181701D01*
X602674Y181115D01*
X603005Y180619D01*
X604083Y179541D01*
Y175964D01*
X611201D01*
Y181704D01*
X606246D01*
X605616Y182334D01*
Y182547D01*
X605881Y182942D01*
X606050Y183794D01*
X605881Y184645D01*
X605399Y185366D01*
X604677Y185848D01*
X603994Y185984D01*
X602370Y187608D01*
Y191996D01*
X602246Y192617D01*
X601895Y193143D01*
X601369Y193494D01*
X600748Y193618D01*
X600127Y193494D01*
X599764Y193251D01*
X599529Y193408D01*
Y193036D01*
X599250Y192617D01*
X599126Y191996D01*
Y189732D01*
X598433D01*
Y191996D01*
X598310Y192617D01*
X598029Y193036D01*
Y193408D01*
X597795Y193252D01*
X597432Y193494D01*
X596811Y193618D01*
X596190Y193494D01*
X595827Y193251D01*
X595463Y193494D01*
X594842Y193618D01*
X594222Y193494D01*
X593858Y193252D01*
X593495Y193494D01*
X592874Y193618D01*
X592253Y193494D01*
X591890Y193251D01*
X591526Y193494D01*
X590905Y193618D01*
X590887Y193614D01*
X590501Y193931D01*
Y201348D01*
X590597Y201412D01*
X591079Y202134D01*
X591248Y202985D01*
X591122Y203621D01*
X591444Y204121D01*
X592486D01*
X596693Y199914D01*
X596683Y199863D01*
X596852Y199012D01*
X597334Y198290D01*
X598056Y197808D01*
X598907Y197639D01*
X599758Y197808D01*
X600480Y198290D01*
X600961Y199012D01*
X601131Y199863D01*
X600961Y200714D01*
X600480Y201435D01*
X599758Y201918D01*
X598907Y202087D01*
X598856Y202077D01*
X595571Y205362D01*
X595763Y205823D01*
X597394D01*
X597979Y205940D01*
X598087Y206011D01*
X598553Y205919D01*
X599404Y206088D01*
X600125Y206570D01*
X600607Y207292D01*
X600776Y208143D01*
X600607Y208994D01*
X600461Y209212D01*
X600759Y209666D01*
X602385D01*
X602669Y209319D01*
X602793Y208698D01*
X603036Y208335D01*
X602793Y207971D01*
X602669Y207350D01*
X602793Y206730D01*
X603036Y206366D01*
X602793Y206003D01*
X602669Y205382D01*
X602793Y204761D01*
X603036Y204398D01*
X602793Y204034D01*
X602669Y203413D01*
X602793Y202793D01*
X603036Y202429D01*
X602793Y202066D01*
X602669Y201445D01*
X602793Y200824D01*
X603036Y200461D01*
X602793Y200097D01*
X602669Y199476D01*
X602793Y198856D01*
X603036Y198492D01*
X602793Y198129D01*
X602669Y197508D01*
X602793Y196887D01*
X603036Y196524D01*
X602793Y196160D01*
X602669Y195539D01*
X602793Y194919D01*
X603145Y194393D01*
X603671Y194041D01*
X604291Y193918D01*
X608819D01*
X608970Y193793D01*
Y192283D01*
X608484Y191958D01*
X608002Y191237D01*
X607832Y190386D01*
X608002Y189535D01*
X608484Y188813D01*
X608527Y188784D01*
Y185592D01*
X608643Y185007D01*
X608975Y184511D01*
X609561Y183925D01*
X610057Y183594D01*
X610642Y183477D01*
X612519D01*
X613995Y182001D01*
X614491Y181669D01*
X615077Y181553D01*
X616836D01*
X624471Y173919D01*
Y172301D01*
X620850D01*
Y148301D01*
X631150D01*
Y172301D01*
X627529D01*
Y174552D01*
X627413Y175137D01*
X627081Y175634D01*
X618551Y184164D01*
X618055Y184495D01*
X617470Y184612D01*
X615710D01*
X614976Y185346D01*
X615025Y185843D01*
X615408Y186100D01*
X615437Y186143D01*
X620850D01*
Y185701D01*
X631150D01*
Y209701D01*
X620850D01*
Y189201D01*
X615437D01*
X615408Y189244D01*
X615365Y189273D01*
Y201055D01*
X615249Y201640D01*
X614917Y202136D01*
X611787Y205267D01*
X611978Y205729D01*
X613927D01*
X614548Y205852D01*
X615074Y206204D01*
X616697Y207826D01*
X619947D01*
Y212582D01*
X614403D01*
Y210120D01*
X613256Y208972D01*
X611956D01*
X611764Y209434D01*
X612154Y209823D01*
X612505Y210350D01*
X612629Y210970D01*
Y220676D01*
X612505Y221297D01*
X612154Y221823D01*
X611628Y222175D01*
X611007Y222298D01*
X610387Y222175D01*
X609860Y221823D01*
X609509Y221297D01*
X609385Y220676D01*
Y219096D01*
X608999Y218779D01*
X608819Y218815D01*
X604291D01*
X603671Y218691D01*
X603145Y218340D01*
X602793Y217814D01*
X602669Y217193D01*
X602680Y217140D01*
X602363Y216754D01*
X599649D01*
X599179Y217224D01*
X599055Y217851D01*
X598572Y218572D01*
X598416Y218677D01*
X598611Y219148D01*
X598779Y219114D01*
X599400Y219238D01*
X599764Y219481D01*
X600127Y219238D01*
X600748Y219114D01*
X601369Y219238D01*
X601895Y219589D01*
X602246Y220116D01*
X602370Y220736D01*
Y224723D01*
X613395Y235748D01*
X613727Y236244D01*
X613812Y236672D01*
X617144D01*
Y244971D01*
X610814D01*
Y239304D01*
X610784Y239156D01*
Y237463D01*
X604546Y231225D01*
X604109Y231494D01*
X604199Y231947D01*
Y236672D01*
X607144D01*
Y244971D01*
X601977D01*
Y248721D01*
X602651Y249172D01*
X603133Y249893D01*
X603303Y250744D01*
X603133Y251595D01*
X602651Y252317D01*
X601930Y252799D01*
X601079Y252968D01*
D02*
G37*
G36*
X633638Y236588D02*
X632593Y236451D01*
X631620Y236048D01*
X630785Y235407D01*
X630144Y234571D01*
X629740Y233598D01*
X629603Y232554D01*
X629740Y231510D01*
X630144Y230537D01*
X630785Y229701D01*
X631620Y229060D01*
X632593Y228657D01*
X633638Y228519D01*
X634682Y228657D01*
X635655Y229060D01*
X636490Y229701D01*
X637132Y230537D01*
X637535Y231510D01*
X637672Y232554D01*
X637535Y233598D01*
X637132Y234571D01*
X636490Y235407D01*
X635655Y236048D01*
X634682Y236451D01*
X633638Y236588D01*
D02*
G37*
G36*
X520889Y230073D02*
Y226887D01*
X524075D01*
X524036Y227181D01*
X523633Y228154D01*
X522992Y228990D01*
X522156Y229631D01*
X521183Y230034D01*
X520889Y230073D01*
D02*
G37*
G36*
X519389D02*
X519095Y230034D01*
X518122Y229631D01*
X517286Y228990D01*
X516645Y228154D01*
X516242Y227181D01*
X516203Y226887D01*
X519389D01*
Y230073D01*
D02*
G37*
G36*
X634388Y226490D02*
Y223304D01*
X637573D01*
X637535Y223598D01*
X637132Y224571D01*
X636490Y225407D01*
X635655Y226048D01*
X634682Y226451D01*
X634388Y226490D01*
D02*
G37*
G36*
X632888D02*
X632593Y226451D01*
X631620Y226048D01*
X630785Y225407D01*
X630144Y224571D01*
X629740Y223598D01*
X629702Y223304D01*
X632888D01*
Y226490D01*
D02*
G37*
G36*
X545364Y225993D02*
X543244D01*
Y223184D01*
X545364D01*
Y225993D01*
D02*
G37*
G36*
X541744D02*
X539624D01*
Y223184D01*
X541744D01*
Y225993D01*
D02*
G37*
G36*
X524075Y225387D02*
X520889D01*
Y222201D01*
X521183Y222240D01*
X522156Y222643D01*
X522992Y223284D01*
X523633Y224120D01*
X524036Y225093D01*
X524075Y225387D01*
D02*
G37*
G36*
X519389D02*
X516203D01*
X516242Y225093D01*
X516645Y224120D01*
X517286Y223284D01*
X518122Y222643D01*
X519095Y222240D01*
X519389Y222201D01*
Y225387D01*
D02*
G37*
G36*
X545364Y221684D02*
X543244D01*
Y218875D01*
X545364D01*
Y221684D01*
D02*
G37*
G36*
X541744D02*
X539624D01*
Y218875D01*
X541744D01*
Y221684D01*
D02*
G37*
G36*
X637573Y221804D02*
X634388D01*
Y218618D01*
X634682Y218657D01*
X635655Y219060D01*
X636490Y219701D01*
X637132Y220537D01*
X637535Y221510D01*
X637573Y221804D01*
D02*
G37*
G36*
X632888D02*
X629702D01*
X629740Y221510D01*
X630144Y220537D01*
X630785Y219701D01*
X631620Y219060D01*
X632593Y218657D01*
X632888Y218618D01*
Y221804D01*
D02*
G37*
G36*
X620022Y233106D02*
X619171Y232936D01*
X618449Y232454D01*
X617967Y231733D01*
X617798Y230882D01*
X617967Y230031D01*
X618400Y229383D01*
Y218841D01*
X617653Y218094D01*
X614403D01*
Y213338D01*
X619947D01*
Y215801D01*
X621169Y217023D01*
X621520Y217549D01*
X621643Y218169D01*
Y229383D01*
X622076Y230031D01*
X622246Y230882D01*
X622076Y231733D01*
X621594Y232454D01*
X620873Y232936D01*
X620022Y233106D01*
D02*
G37*
G36*
X520139Y220171D02*
X519095Y220034D01*
X518122Y219631D01*
X517286Y218990D01*
X516645Y218154D01*
X516242Y217181D01*
X516105Y216137D01*
X516242Y215093D01*
X516645Y214120D01*
X517286Y213284D01*
X518122Y212643D01*
X519095Y212240D01*
X520139Y212102D01*
X521183Y212240D01*
X522156Y212643D01*
X522992Y213284D01*
X523633Y214120D01*
X524036Y215093D01*
X524173Y216137D01*
X524036Y217181D01*
X523633Y218154D01*
X522992Y218990D01*
X522156Y219631D01*
X521183Y220034D01*
X520139Y220171D01*
D02*
G37*
G36*
X538368Y216400D02*
X535022D01*
X534171Y216231D01*
X533449Y215749D01*
X532967Y215027D01*
X532798Y214176D01*
X532967Y213325D01*
X533449Y212604D01*
X534171Y212122D01*
X535022Y211952D01*
X538368D01*
X539219Y212122D01*
X539941Y212604D01*
X540423Y213325D01*
X540592Y214176D01*
X540423Y215027D01*
X539941Y215749D01*
X539219Y216231D01*
X538368Y216400D01*
D02*
G37*
G36*
Y211400D02*
X535022D01*
X534171Y211231D01*
X533449Y210749D01*
X532967Y210027D01*
X532798Y209176D01*
X532967Y208325D01*
X533449Y207604D01*
X534171Y207121D01*
X535022Y206952D01*
X538368D01*
X539219Y207121D01*
X539941Y207604D01*
X540423Y208325D01*
X540592Y209176D01*
X540423Y210027D01*
X539941Y210749D01*
X539219Y211231D01*
X538368Y211400D01*
D02*
G37*
G36*
X520139Y210171D02*
X519095Y210034D01*
X518122Y209631D01*
X517286Y208990D01*
X516645Y208154D01*
X516242Y207181D01*
X516105Y206137D01*
X516242Y205093D01*
X516645Y204120D01*
X517286Y203284D01*
X518122Y202643D01*
X519095Y202240D01*
X520139Y202102D01*
X521183Y202240D01*
X522156Y202643D01*
X522992Y203284D01*
X523633Y204120D01*
X524036Y205093D01*
X524173Y206137D01*
X524036Y207181D01*
X523633Y208154D01*
X522992Y208990D01*
X522156Y209631D01*
X521183Y210034D01*
X520139Y210171D01*
D02*
G37*
G36*
X538368Y206400D02*
X535022D01*
X534171Y206231D01*
X533449Y205749D01*
X532967Y205027D01*
X532798Y204176D01*
X532967Y203325D01*
X533449Y202604D01*
X534171Y202122D01*
X535022Y201952D01*
X538368D01*
X539219Y202122D01*
X539941Y202604D01*
X540423Y203325D01*
X540592Y204176D01*
X540423Y205027D01*
X539941Y205749D01*
X539219Y206231D01*
X538368Y206400D01*
D02*
G37*
G36*
Y201400D02*
X537445D01*
Y199926D01*
X540443D01*
X540423Y200027D01*
X539941Y200749D01*
X539219Y201231D01*
X538368Y201400D01*
D02*
G37*
G36*
X535945D02*
X535022D01*
X534171Y201231D01*
X533449Y200749D01*
X532967Y200027D01*
X532947Y199926D01*
X535945D01*
Y201400D01*
D02*
G37*
G36*
X540443Y198426D02*
X537445D01*
Y196952D01*
X538368D01*
X539219Y197122D01*
X539941Y197604D01*
X540423Y198325D01*
X540443Y198426D01*
D02*
G37*
G36*
X535945D02*
X532947D01*
X532967Y198325D01*
X533449Y197604D01*
X534171Y197122D01*
X535022Y196952D01*
X535945D01*
Y198426D01*
D02*
G37*
G36*
X659273Y206438D02*
Y192619D01*
X673092D01*
X672971Y194158D01*
X672435Y196390D01*
X671557Y198510D01*
X670358Y200467D01*
X668867Y202213D01*
X667121Y203703D01*
X665164Y204903D01*
X663044Y205781D01*
X660812Y206317D01*
X659273Y206438D01*
D02*
G37*
G36*
X657773D02*
X656235Y206317D01*
X654003Y205781D01*
X651883Y204903D01*
X649925Y203703D01*
X648180Y202213D01*
X646689Y200467D01*
X645490Y198510D01*
X644612Y196390D01*
X644076Y194158D01*
X643955Y192619D01*
X657773D01*
Y206438D01*
D02*
G37*
G36*
X496219Y206176D02*
Y192357D01*
X510037D01*
X509916Y193895D01*
X509380Y196127D01*
X508502Y198248D01*
X507303Y200205D01*
X505812Y201950D01*
X504067Y203441D01*
X502109Y204640D01*
X499989Y205519D01*
X497757Y206055D01*
X496219Y206176D01*
D02*
G37*
G36*
X494719D02*
X493180Y206055D01*
X490948Y205519D01*
X488828Y204640D01*
X486871Y203441D01*
X485125Y201950D01*
X483635Y200205D01*
X482435Y198248D01*
X481557Y196127D01*
X481021Y193895D01*
X480900Y192357D01*
X494719D01*
Y206176D01*
D02*
G37*
G36*
X552779Y195491D02*
X552158Y195368D01*
X551632Y195016D01*
X551280Y194490D01*
X551157Y193870D01*
X551280Y193249D01*
X551632Y192723D01*
X552158Y192371D01*
X552779Y192248D01*
X553399Y192371D01*
X553925Y192723D01*
X554277Y193249D01*
X554400Y193870D01*
X554277Y194490D01*
X553925Y195016D01*
X553399Y195368D01*
X552779Y195491D01*
D02*
G37*
G36*
X524139Y200137D02*
X516139D01*
Y192137D01*
X524139D01*
Y200137D01*
D02*
G37*
G36*
X536026Y195226D02*
X535405Y195102D01*
X534879Y194750D01*
X534527Y194224D01*
X534404Y193604D01*
X534527Y192983D01*
X534879Y192457D01*
X535405Y192105D01*
X536026Y191982D01*
X536646Y192105D01*
X537172Y192457D01*
X537524Y192983D01*
X537647Y193604D01*
X537524Y194224D01*
X537172Y194750D01*
X536646Y195102D01*
X536026Y195226D01*
D02*
G37*
G36*
X566472Y185782D02*
X563663D01*
Y183661D01*
X566472D01*
Y185782D01*
D02*
G37*
G36*
Y182161D02*
X563663D01*
Y180041D01*
X566472D01*
Y182161D01*
D02*
G37*
G36*
X562163D02*
X559354D01*
Y180041D01*
X562163D01*
Y182161D01*
D02*
G37*
G36*
X545942Y182200D02*
X545321Y182077D01*
X544795Y181725D01*
X544443Y181199D01*
X544320Y180578D01*
X544443Y179958D01*
X544795Y179432D01*
X545321Y179080D01*
X545942Y178957D01*
X546562Y179080D01*
X547088Y179432D01*
X547440Y179958D01*
X547563Y180578D01*
X547440Y181199D01*
X547088Y181725D01*
X546562Y182077D01*
X545942Y182200D01*
D02*
G37*
G36*
X673092Y191119D02*
X659273D01*
Y177301D01*
X660812Y177422D01*
X663044Y177957D01*
X665164Y178836D01*
X667121Y180035D01*
X668867Y181526D01*
X670358Y183271D01*
X671557Y185229D01*
X672435Y187349D01*
X672971Y189581D01*
X673092Y191119D01*
D02*
G37*
G36*
X657773D02*
X643955D01*
X644076Y189581D01*
X644612Y187349D01*
X645490Y185229D01*
X646689Y183271D01*
X648180Y181526D01*
X649925Y180035D01*
X651883Y178836D01*
X654003Y177957D01*
X656235Y177422D01*
X657773Y177301D01*
Y191119D01*
D02*
G37*
G36*
X510037Y190857D02*
X496219D01*
Y177038D01*
X497757Y177159D01*
X499989Y177695D01*
X502109Y178574D01*
X504067Y179773D01*
X505812Y181263D01*
X507303Y183009D01*
X508502Y184966D01*
X509380Y187087D01*
X509916Y189319D01*
X510037Y190857D01*
D02*
G37*
G36*
X494719D02*
X480900D01*
X481021Y189319D01*
X481557Y187087D01*
X482435Y184966D01*
X483635Y183009D01*
X485125Y181263D01*
X486871Y179773D01*
X488828Y178574D01*
X490948Y177695D01*
X493180Y177159D01*
X494719Y177038D01*
Y190857D01*
D02*
G37*
G36*
X558373Y179340D02*
X554875D01*
Y174857D01*
X558373D01*
Y179340D01*
D02*
G37*
G36*
X553375D02*
X549877D01*
Y174857D01*
X553375D01*
Y179340D01*
D02*
G37*
G36*
X611201Y174421D02*
X608392D01*
Y172301D01*
X611201D01*
Y174421D01*
D02*
G37*
G36*
X606892D02*
X604083D01*
Y172301D01*
X606892D01*
Y174421D01*
D02*
G37*
G36*
X592724Y174978D02*
X591250D01*
Y171981D01*
X591351Y172001D01*
X592072Y172483D01*
X592555Y173204D01*
X592724Y174055D01*
Y174978D01*
D02*
G37*
G36*
X589750D02*
X588276D01*
Y174055D01*
X588445Y173204D01*
X588928Y172483D01*
X589649Y172001D01*
X589750Y171981D01*
Y174978D01*
D02*
G37*
G36*
X558373Y173357D02*
X554875D01*
Y168875D01*
X558373D01*
Y173357D01*
D02*
G37*
G36*
X553375D02*
X549877D01*
Y168875D01*
X553375D01*
Y173357D01*
D02*
G37*
G36*
X572374Y170455D02*
X570352D01*
Y168827D01*
X572374D01*
Y170455D01*
D02*
G37*
G36*
X568852D02*
X566831D01*
Y168827D01*
X568852D01*
Y170455D01*
D02*
G37*
G36*
X611201Y170801D02*
X608392D01*
Y168681D01*
X611201D01*
Y170801D01*
D02*
G37*
G36*
X606892D02*
X604083D01*
Y168681D01*
X606892D01*
Y170801D01*
D02*
G37*
G36*
X563949Y171490D02*
X563328Y171366D01*
X562802Y171014D01*
X562451Y170488D01*
X562327Y169868D01*
X562451Y169247D01*
X562802Y168721D01*
X563328Y168369D01*
X563949Y168246D01*
X564570Y168369D01*
X565096Y168721D01*
X565447Y169247D01*
X565571Y169868D01*
X565447Y170488D01*
X565096Y171014D01*
X564570Y171366D01*
X563949Y171490D01*
D02*
G37*
G36*
X572374Y167327D02*
X570352D01*
Y165699D01*
X572374D01*
Y167327D01*
D02*
G37*
G36*
X568852D02*
X566831D01*
Y165699D01*
X568852D01*
Y167327D01*
D02*
G37*
G36*
X524756Y160116D02*
X522636D01*
Y155634D01*
X524756D01*
Y160116D01*
D02*
G37*
G36*
X521136D02*
X519016D01*
Y155634D01*
X521136D01*
Y160116D01*
D02*
G37*
G36*
X521886Y154884D02*
D01*
D01*
D01*
D02*
G37*
G36*
X595500Y158169D02*
X594649Y157999D01*
X593927Y157517D01*
X593445Y156796D01*
X593276Y155945D01*
Y153194D01*
X592776Y152893D01*
X592724Y152920D01*
Y155945D01*
X592555Y156796D01*
X592072Y157517D01*
X591351Y157999D01*
X590500Y158169D01*
X589649Y157999D01*
X588928Y157517D01*
X588445Y156796D01*
X588276Y155945D01*
Y152598D01*
X588445Y151747D01*
X588928Y151026D01*
X589649Y150544D01*
X590500Y150374D01*
X590551Y150385D01*
X596924Y144012D01*
Y139428D01*
X595963Y139031D01*
X594932Y138239D01*
X594141Y137208D01*
X593643Y136007D01*
X593474Y134718D01*
X593643Y133429D01*
X594141Y132228D01*
X594932Y131197D01*
X595963Y130406D01*
X596924Y130008D01*
Y119743D01*
X595963Y119345D01*
X594932Y118554D01*
X594141Y117523D01*
X593643Y116322D01*
X593474Y115033D01*
X593643Y113744D01*
X594141Y112543D01*
X594932Y111512D01*
X595963Y110721D01*
X597164Y110223D01*
X598453Y110053D01*
X599742Y110223D01*
X600943Y110721D01*
X601974Y111512D01*
X602766Y112543D01*
X603263Y113744D01*
X603433Y115033D01*
X603263Y116322D01*
X602766Y117523D01*
X601974Y118554D01*
X600943Y119345D01*
X599983Y119743D01*
Y130008D01*
X600943Y130406D01*
X601974Y131197D01*
X602766Y132228D01*
X603263Y133429D01*
X603433Y134718D01*
X603263Y136007D01*
X602766Y137208D01*
X601974Y138239D01*
X600943Y139031D01*
X599983Y139428D01*
Y144645D01*
X599866Y145230D01*
X599535Y145727D01*
X595322Y149939D01*
X595578Y150390D01*
X596351Y150544D01*
X597073Y151026D01*
X597555Y151747D01*
X597724Y152598D01*
Y155945D01*
X597555Y156796D01*
X597073Y157517D01*
X596351Y157999D01*
X595500Y158169D01*
D02*
G37*
G36*
X580500D02*
X579649Y157999D01*
X578928Y157517D01*
X578445Y156796D01*
X578276Y155945D01*
Y152598D01*
X578445Y151747D01*
X578928Y151026D01*
X579649Y150544D01*
X580500Y150374D01*
X581351Y150544D01*
X582072Y151026D01*
X582555Y151747D01*
X582724Y152598D01*
Y155945D01*
X582555Y156796D01*
X582072Y157517D01*
X581351Y157999D01*
X580500Y158169D01*
D02*
G37*
G36*
X523742Y187471D02*
X523351Y187393D01*
X523021Y187172D01*
X523021Y187172D01*
X521221Y185372D01*
X521000Y185041D01*
X520922Y184651D01*
X520922Y166051D01*
X521000Y165661D01*
X521221Y165330D01*
X528071Y158479D01*
Y149651D01*
X533812D01*
Y158479D01*
X540663Y165330D01*
X540884Y165661D01*
X540961Y166051D01*
Y184551D01*
X540884Y184941D01*
X540663Y185272D01*
X538763Y187172D01*
X538432Y187393D01*
X538042Y187471D01*
X523742Y187471D01*
D02*
G37*
G36*
X524756Y154134D02*
X522636D01*
Y149651D01*
X524756D01*
Y154134D01*
D02*
G37*
G36*
X521136D02*
X519016D01*
Y149651D01*
X521136D01*
Y154134D01*
D02*
G37*
G36*
X542867Y160116D02*
X537127D01*
Y156953D01*
X536739Y156448D01*
X536386Y155597D01*
X536266Y154683D01*
Y147432D01*
X534007Y145172D01*
X533758Y145236D01*
X533506Y145378D01*
X533398Y145918D01*
X533047Y146444D01*
X532521Y146795D01*
X531900Y146919D01*
X531279Y146795D01*
X530753Y146444D01*
X530402Y145918D01*
X530278Y145297D01*
X530402Y144677D01*
X530753Y144150D01*
X531279Y143799D01*
X531900Y143675D01*
X532293Y143754D01*
X532662Y143338D01*
X532535Y143032D01*
X532415Y142118D01*
Y134780D01*
X530921D01*
Y142250D01*
X519079D01*
Y127750D01*
X527192D01*
X527421Y127720D01*
X534113D01*
X534180Y127668D01*
X535031Y127315D01*
X535945Y127195D01*
X536132Y127220D01*
X545079D01*
X545308Y127250D01*
X553421D01*
Y141750D01*
X541579D01*
Y134280D01*
X539475D01*
Y140656D01*
X542849Y144030D01*
X543410Y144761D01*
X543763Y145613D01*
X543883Y146526D01*
X543763Y147440D01*
X543410Y148291D01*
X543326Y148401D01*
Y153776D01*
X543407Y153970D01*
X543527Y154884D01*
X543407Y155797D01*
X543054Y156649D01*
X542867Y156893D01*
Y160116D01*
D02*
G37*
G36*
X558373Y163985D02*
X549877D01*
Y153521D01*
X551068D01*
Y149351D01*
X551188Y148438D01*
X551541Y147586D01*
X552102Y146855D01*
X553050Y145906D01*
X553781Y145345D01*
X554633Y144993D01*
X555546Y144872D01*
X556460Y144993D01*
X557311Y145345D01*
X558043Y145906D01*
X558604Y146638D01*
X558956Y147489D01*
X559076Y148403D01*
X558956Y149316D01*
X558604Y150168D01*
X558128Y150788D01*
Y153521D01*
X558373D01*
Y163985D01*
D02*
G37*
G36*
X622921Y142690D02*
X622300Y142566D01*
X621774Y142215D01*
X621422Y141689D01*
X621299Y141068D01*
X621422Y140447D01*
X621774Y139921D01*
X622300Y139570D01*
X622921Y139446D01*
X623541Y139570D01*
X624067Y139921D01*
X624419Y140447D01*
X624543Y141068D01*
X624419Y141689D01*
X624067Y142215D01*
X623541Y142566D01*
X622921Y142690D01*
D02*
G37*
G36*
X612983Y139599D02*
Y135468D01*
X617114D01*
X617043Y136007D01*
X616545Y137208D01*
X615754Y138239D01*
X614723Y139031D01*
X613522Y139528D01*
X612983Y139599D01*
D02*
G37*
G36*
X611483D02*
X610944Y139528D01*
X609743Y139031D01*
X608712Y138239D01*
X607920Y137208D01*
X607423Y136007D01*
X607352Y135468D01*
X611483D01*
Y139599D01*
D02*
G37*
G36*
X617114Y133968D02*
X612983D01*
Y129837D01*
X613522Y129908D01*
X614723Y130406D01*
X615754Y131197D01*
X616545Y132228D01*
X617043Y133429D01*
X617114Y133968D01*
D02*
G37*
G36*
X611483D02*
X607352D01*
X607423Y133429D01*
X607920Y132228D01*
X608712Y131197D01*
X609743Y130406D01*
X610944Y129908D01*
X611483Y129837D01*
Y133968D01*
D02*
G37*
G36*
X632500Y129995D02*
X631456Y129858D01*
X630483Y129455D01*
X629647Y128814D01*
X629006Y127978D01*
X628603Y127005D01*
X628466Y125961D01*
X628603Y124916D01*
X629006Y123943D01*
X629647Y123108D01*
X630483Y122467D01*
X631456Y122064D01*
X632500Y121926D01*
X633544Y122064D01*
X634517Y122467D01*
X635353Y123108D01*
X635994Y123943D01*
X636397Y124916D01*
X636535Y125961D01*
X636397Y127005D01*
X635994Y127978D01*
X635353Y128814D01*
X634517Y129455D01*
X633544Y129858D01*
X632500Y129995D01*
D02*
G37*
G36*
X612983Y119914D02*
Y115783D01*
X617114D01*
X617043Y116322D01*
X616545Y117523D01*
X615754Y118554D01*
X614723Y119345D01*
X613522Y119843D01*
X612983Y119914D01*
D02*
G37*
G36*
X611483D02*
X610944Y119843D01*
X609743Y119345D01*
X608712Y118554D01*
X607920Y117523D01*
X607423Y116322D01*
X607352Y115783D01*
X611483D01*
Y119914D01*
D02*
G37*
G36*
X530921Y119250D02*
X525750D01*
Y112750D01*
X530921D01*
Y119250D01*
D02*
G37*
G36*
X524250D02*
X519079D01*
Y112750D01*
X524250D01*
Y119250D01*
D02*
G37*
G36*
X553421Y118750D02*
X548250D01*
Y112250D01*
X553421D01*
Y118750D01*
D02*
G37*
G36*
X546750D02*
X541579D01*
Y112250D01*
X546750D01*
Y118750D01*
D02*
G37*
G36*
X636500Y119961D02*
X628500D01*
Y111961D01*
X636500D01*
Y119961D01*
D02*
G37*
G36*
X617114Y114283D02*
X612983D01*
Y110152D01*
X613522Y110223D01*
X614723Y110721D01*
X615754Y111512D01*
X616545Y112543D01*
X617043Y113744D01*
X617114Y114283D01*
D02*
G37*
G36*
X611483D02*
X607352D01*
X607423Y113744D01*
X607920Y112543D01*
X608712Y111512D01*
X609743Y110721D01*
X610944Y110223D01*
X611483Y110152D01*
Y114283D01*
D02*
G37*
G36*
X575831Y139655D02*
X565957D01*
Y129781D01*
X567364D01*
Y119970D01*
X565957D01*
Y110096D01*
X575831D01*
Y119970D01*
X574424D01*
Y129781D01*
X575831D01*
Y139655D01*
D02*
G37*
G36*
X585500Y158169D02*
X584649Y157999D01*
X583927Y157517D01*
X583445Y156796D01*
X583276Y155945D01*
Y152598D01*
X583445Y151747D01*
X583710Y151351D01*
Y139571D01*
X583385Y139528D01*
X582184Y139031D01*
X581152Y138239D01*
X580361Y137208D01*
X579864Y136007D01*
X579694Y134718D01*
X579864Y133429D01*
X580361Y132228D01*
X581152Y131197D01*
X582184Y130406D01*
X583144Y130008D01*
Y119743D01*
X582184Y119345D01*
X581152Y118554D01*
X580361Y117523D01*
X579864Y116322D01*
X579694Y115033D01*
X579864Y113744D01*
X580361Y112543D01*
X581152Y111512D01*
X582184Y110721D01*
X583385Y110223D01*
X584674Y110053D01*
X585962Y110223D01*
X587163Y110721D01*
X588195Y111512D01*
X588986Y112543D01*
X589483Y113744D01*
X589653Y115033D01*
X589483Y116322D01*
X588986Y117523D01*
X588195Y118554D01*
X587163Y119345D01*
X586203Y119743D01*
Y130008D01*
X587163Y130406D01*
X588195Y131197D01*
X588986Y132228D01*
X589483Y133429D01*
X589653Y134718D01*
X589483Y136007D01*
X588986Y137208D01*
X588195Y138239D01*
X587163Y139031D01*
X586769Y139194D01*
Y150823D01*
X587073Y151026D01*
X587555Y151747D01*
X587724Y152598D01*
Y155945D01*
X587555Y156796D01*
X587073Y157517D01*
X586351Y157999D01*
X585500Y158169D01*
D02*
G37*
G36*
X530921Y111250D02*
X525750D01*
Y104750D01*
X530921D01*
Y111250D01*
D02*
G37*
G36*
X524250D02*
X519079D01*
Y104750D01*
X524250D01*
Y111250D01*
D02*
G37*
G36*
X553421Y110750D02*
X548250D01*
Y104250D01*
X553421D01*
Y110750D01*
D02*
G37*
G36*
X546750D02*
X541579D01*
Y104250D01*
X546750D01*
Y110750D01*
D02*
G37*
%LPD*%
G36*
X592253Y219238D02*
X592874Y219114D01*
X593495Y219238D01*
X593858Y219481D01*
X594222Y219238D01*
X594842Y219114D01*
X595357Y219217D01*
X595431Y219177D01*
X595458Y218599D01*
X595452Y218589D01*
X595428Y218572D01*
X594945Y217851D01*
X594776Y217000D01*
X594945Y216149D01*
X595428Y215427D01*
X596149Y214945D01*
X597000Y214776D01*
X597251Y214826D01*
X597935Y214143D01*
X598228Y213947D01*
X598269Y213384D01*
X598263Y213368D01*
X597977Y213177D01*
X597495Y212456D01*
X597326Y211605D01*
X597495Y210754D01*
X597570Y210642D01*
X597400Y209996D01*
X596980Y209715D01*
X596498Y208994D01*
X596476Y208882D01*
X587040D01*
X586718Y209382D01*
X586844Y210018D01*
X586675Y210869D01*
X586193Y211591D01*
X585769Y211874D01*
Y212476D01*
X585844Y212526D01*
X586326Y213247D01*
X586412Y213681D01*
X586943Y213786D01*
X587044Y213634D01*
X587766Y213152D01*
X588617Y212983D01*
X589468Y213152D01*
X590189Y213634D01*
X590671Y214356D01*
X590841Y215207D01*
X590671Y216058D01*
X590189Y216779D01*
X589468Y217262D01*
X588617Y217431D01*
X588566Y217421D01*
X587313Y218673D01*
X587478Y219216D01*
X587589Y219238D01*
X587953Y219481D01*
X588316Y219238D01*
X588937Y219114D01*
X589558Y219238D01*
X589921Y219481D01*
X590285Y219238D01*
X590905Y219114D01*
X591526Y219238D01*
X591890Y219481D01*
X592253Y219238D01*
D02*
G37*
G36*
X579256Y204569D02*
X579752Y204237D01*
X580337Y204121D01*
X582858D01*
X583126Y203621D01*
X582945Y203351D01*
X582776Y202500D01*
X582945Y201649D01*
X583427Y200927D01*
X583483Y200891D01*
X583587Y200365D01*
X583919Y199869D01*
X585439Y198348D01*
Y196877D01*
X584977Y196686D01*
X583613Y198050D01*
X583687Y198422D01*
X583518Y199273D01*
X583036Y199995D01*
X582314Y200477D01*
X581463Y200646D01*
X580613Y200477D01*
X579891Y199995D01*
X579409Y199273D01*
X579240Y198422D01*
X579309Y198073D01*
X578884Y197648D01*
X578500Y197724D01*
X577649Y197555D01*
X577115Y197799D01*
X577049Y198129D01*
X576806Y198492D01*
X577049Y198856D01*
X577173Y199476D01*
X577049Y200097D01*
X576806Y200461D01*
X577049Y200824D01*
X577173Y201445D01*
X577049Y202066D01*
X576806Y202429D01*
X577049Y202793D01*
X577173Y203413D01*
X577049Y204034D01*
X576806Y204398D01*
X577049Y204761D01*
X577173Y205382D01*
X577162Y205434D01*
X577480Y205821D01*
X578003D01*
X579256Y204569D01*
D02*
G37*
G36*
X538042Y186451D02*
X539942Y184551D01*
Y166051D01*
X532842Y158951D01*
X529042D01*
X521942Y166051D01*
X521942Y184651D01*
X523742Y186451D01*
X538042Y186451D01*
D02*
G37*
D10*
X554125Y158753D02*
D03*
Y174107D02*
D03*
D11*
X617175Y210204D02*
D03*
Y215716D02*
D03*
X569602Y168077D02*
D03*
Y162566D02*
D03*
D12*
X606555Y195539D02*
D03*
Y197508D02*
D03*
Y199476D02*
D03*
Y201445D02*
D03*
Y203413D02*
D03*
Y205382D02*
D03*
Y207350D02*
D03*
Y209319D02*
D03*
Y211287D02*
D03*
Y213256D02*
D03*
Y215224D02*
D03*
Y217193D02*
D03*
X573287D02*
D03*
Y215224D02*
D03*
Y213256D02*
D03*
Y211287D02*
D03*
Y209319D02*
D03*
Y207350D02*
D03*
Y205382D02*
D03*
Y203413D02*
D03*
Y201445D02*
D03*
Y199476D02*
D03*
Y197508D02*
D03*
Y195539D02*
D03*
D13*
X600748Y223000D02*
D03*
X598779D02*
D03*
X596811D02*
D03*
X594842D02*
D03*
X592874D02*
D03*
X590905D02*
D03*
X588937D02*
D03*
X586968D02*
D03*
X585000D02*
D03*
X583031D02*
D03*
X581063D02*
D03*
X579094D02*
D03*
Y189732D02*
D03*
X581063D02*
D03*
X583031D02*
D03*
X585000D02*
D03*
X586968D02*
D03*
X588937D02*
D03*
X590905D02*
D03*
X592874D02*
D03*
X594842D02*
D03*
X596811D02*
D03*
X598779D02*
D03*
X600748D02*
D03*
D14*
X562913Y182911D02*
D03*
Y190195D02*
D03*
X607642Y178834D02*
D03*
Y171551D02*
D03*
D15*
X558152Y199176D02*
D03*
Y204176D02*
D03*
Y209176D02*
D03*
Y214176D02*
D03*
X536695Y199176D02*
D03*
Y204176D02*
D03*
Y209176D02*
D03*
Y214176D02*
D03*
D16*
X542494Y222434D02*
D03*
X549777D02*
D03*
D17*
X626000Y160301D02*
D03*
Y197701D02*
D03*
D18*
X526974Y272255D02*
D03*
X521462D02*
D03*
X526974Y261081D02*
D03*
X521462D02*
D03*
X526974Y249908D02*
D03*
X521462D02*
D03*
X526974Y238734D02*
D03*
X521462D02*
D03*
D19*
X521886Y154884D02*
D03*
X530942D02*
D03*
X539997D02*
D03*
D20*
X530942Y177718D02*
D03*
D21*
X595500Y175728D02*
D03*
X590500D02*
D03*
X585500D02*
D03*
X580500D02*
D03*
X595500Y154272D02*
D03*
X590500D02*
D03*
X585500D02*
D03*
X580500D02*
D03*
D22*
X525000Y135000D02*
D03*
Y112000D02*
D03*
X547500Y134500D02*
D03*
Y111500D02*
D03*
D23*
X613979Y276648D02*
D03*
X603979D02*
D03*
X593979D02*
D03*
X583979D02*
D03*
X573979D02*
D03*
X563979D02*
D03*
X553979D02*
D03*
X543979D02*
D03*
X613979Y240822D02*
D03*
X603979D02*
D03*
X593979D02*
D03*
X583979D02*
D03*
X573979D02*
D03*
X563979D02*
D03*
X553979D02*
D03*
X543979D02*
D03*
D24*
X593120Y205650D02*
X598907Y199863D01*
X598184Y208143D02*
X598553D01*
X597000Y217000D02*
X597240D01*
X602669Y231947D02*
Y239512D01*
X577867Y238825D02*
X586968Y229723D01*
X543979Y240822D02*
X545162Y239639D01*
X609543Y205347D02*
X613836Y201055D01*
X547488Y234420D02*
X568652Y213256D01*
X606590Y205347D02*
X609543D01*
X617470Y183082D02*
X626000Y174552D01*
X573979Y240490D02*
Y240822D01*
X610056Y185592D02*
X610642Y185007D01*
X602669Y239512D02*
X603979Y240822D01*
X555644Y228513D02*
Y239156D01*
X565644Y222572D02*
X570964Y217252D01*
X626000Y160301D02*
Y174552D01*
X568933Y195539D02*
X573287D01*
X613836Y187672D02*
Y201055D01*
X547488Y234420D02*
Y234432D01*
X568652Y213256D02*
X573287D01*
X593979Y239837D02*
Y240822D01*
X612314Y239156D02*
X613979Y240822D01*
X568933Y215224D02*
X573287D01*
X588937Y223000D02*
Y234879D01*
X603826Y183794D02*
X603924Y183891D01*
X610642Y185007D02*
X613152D01*
X575644Y238825D02*
X577867D01*
X596811Y185722D02*
Y189732D01*
X573228Y217252D02*
X573287Y217193D01*
X562083Y189339D02*
X562652Y188770D01*
X596811Y185722D02*
X598409Y184124D01*
X573979Y240490D02*
X575644Y238825D01*
X583979Y239837D02*
Y240822D01*
X600807Y223059D02*
Y225323D01*
X595500Y177402D02*
X598409Y180311D01*
X600748Y189732D02*
X600823Y189657D01*
X590905Y223000D02*
Y236764D01*
X563979Y240822D02*
X565644Y239156D01*
X564972Y190402D02*
Y191578D01*
X598779Y223000D02*
Y228058D01*
X600748Y223000D02*
X600807Y223059D01*
X595500Y175728D02*
Y177402D01*
X545162Y236758D02*
Y239639D01*
X600823Y186992D02*
Y189657D01*
X553979Y240822D02*
X555644Y239156D01*
X565644Y222572D02*
Y239156D01*
X615077Y183082D02*
X617470D01*
X564972Y191578D02*
X568933Y195539D01*
X586968Y223000D02*
Y229723D01*
X545162Y236758D02*
X547488Y234432D01*
X610056Y185592D02*
Y190754D01*
X590905Y236764D02*
X593979Y239837D01*
X612314Y236829D02*
Y239156D01*
X563341Y188770D02*
X564972Y190402D01*
X598409Y180311D02*
Y184124D01*
X606555Y205382D02*
X606590Y205347D01*
X613152Y185007D02*
X615077Y183082D01*
X598779Y228058D02*
X602669Y231947D01*
X600823Y186992D02*
X603924Y183891D01*
X555644Y228513D02*
X568933Y215224D01*
X570964Y217252D02*
X573228D01*
X562652Y188770D02*
X563341D01*
X583979Y239837D02*
X588937Y234879D01*
X600807Y225323D02*
X612314Y236829D01*
X576444Y167622D02*
X580500Y171678D01*
X580337Y205650D02*
X593120D01*
X580884Y207353D02*
X597394D01*
X580500Y171678D02*
Y175728D01*
X578505Y182768D02*
Y183136D01*
X576389Y180103D02*
X583948D01*
X573895Y177609D02*
X576389Y180103D01*
X575311Y167361D02*
X575572Y167622D01*
X592000Y181833D02*
X592874Y182707D01*
X595668Y182206D02*
Y182575D01*
X579094Y183726D02*
Y189732D01*
X578505Y183136D02*
X579094Y183726D01*
X567000Y204500D02*
X567261Y204239D01*
Y202831D02*
Y204239D01*
X563595Y211675D02*
X569853Y205417D01*
X554583Y188124D02*
X556979Y190519D01*
X569853Y205417D02*
X573253D01*
X556979Y190519D02*
Y198547D01*
X588972Y189767D02*
Y202932D01*
X590871Y187025D02*
Y189698D01*
X583948Y180103D02*
X590871Y187025D01*
X585000Y189732D02*
Y194500D01*
X581463Y198037D02*
X585000Y194500D01*
X562999Y211675D02*
X563595D01*
X550017Y199176D02*
X557608D01*
X550662Y202863D02*
X551030D01*
X575572Y167622D02*
X576444D01*
X601079Y250376D02*
Y250744D01*
X567261Y202831D02*
X570580Y199511D01*
X558152Y199176D02*
X559825D01*
X557608D02*
X558152D01*
X546345Y202849D02*
X550017Y199176D01*
X551153Y209502D02*
X556479Y204176D01*
X552344D02*
X556479D01*
X551030Y202863D02*
X552344Y204176D01*
X551153Y209502D02*
Y211141D01*
X550892Y211402D02*
X551153Y211141D01*
X556479Y204176D02*
X558152D01*
X578500Y195500D02*
X578678Y195323D01*
X581463Y198037D02*
Y198422D01*
X578637Y207350D02*
X580337Y205650D01*
X578918Y209319D02*
X580884Y207353D01*
X578678Y195323D02*
X580114D01*
X582997Y192440D01*
Y189767D02*
Y192440D01*
X594842Y183400D02*
X595668Y182575D01*
X594842Y183400D02*
Y189732D01*
X556979Y198547D02*
X557608Y199176D01*
X603924Y183891D02*
X604087Y183728D01*
Y181701D02*
Y183728D01*
Y181701D02*
X606953Y178834D01*
X607642D01*
X590871Y189698D02*
X590905Y189732D01*
X610056Y190754D02*
X610500Y191198D01*
Y202141D01*
X609262Y203379D02*
X610500Y202141D01*
X570580Y199511D02*
X573253D01*
X573287Y199476D01*
X558152Y204176D02*
X559457D01*
X573253Y205417D02*
X573287Y205382D01*
X588972Y202932D02*
X589024Y202985D01*
X588937Y189732D02*
X588972Y189767D01*
X573287Y207350D02*
X578637D01*
X597394Y207353D02*
X598184Y208143D01*
X573287Y209319D02*
X578918D01*
X597240Y217000D02*
X599016Y215224D01*
X606555D01*
X585000Y218824D02*
X588617Y215207D01*
X585000Y218824D02*
Y223000D01*
X592874Y182707D02*
Y189732D01*
X585000Y200950D02*
X586968Y198982D01*
Y189732D02*
Y198982D01*
X583031Y216811D02*
X584271Y215571D01*
Y214098D02*
Y215571D01*
X583031Y216811D02*
Y223000D01*
X585000Y200950D02*
Y202500D01*
X596484Y230261D02*
Y233689D01*
X596928Y234133D01*
X594842Y228619D02*
X596484Y230261D01*
X600447Y231975D02*
Y249744D01*
X601079Y250376D01*
X596811Y228338D02*
X600447Y231975D01*
X562070Y189352D02*
X562913Y190195D01*
X596811Y223000D02*
Y228338D01*
X532840Y241490D02*
X533209D01*
X531356Y240006D02*
X532840Y241490D01*
X527852Y240006D02*
X531356D01*
X530835Y248636D02*
X533864Y245607D01*
X526974Y239128D02*
X527852Y240006D01*
X526974Y272255D02*
X532900Y266329D01*
X534004D01*
X527852Y248636D02*
X530835D01*
X526974Y238734D02*
Y239128D01*
X526974Y249514D02*
Y249908D01*
Y249514D02*
X527852Y248636D01*
X534770Y255897D02*
Y256162D01*
X529852Y261081D02*
X534770Y256162D01*
X526974Y261081D02*
X529852D01*
X584674Y134718D02*
X585239Y135284D01*
Y154011D01*
X585500Y154272D01*
X598453Y115033D02*
Y144645D01*
X590500Y152598D02*
X598453Y144645D01*
X590500Y152598D02*
Y154272D01*
X584674Y115033D02*
Y134718D01*
X594842Y223000D02*
Y228619D01*
X593819Y231378D02*
Y231747D01*
X592874Y230434D02*
X593819Y231378D01*
X592874Y223000D02*
Y230434D01*
X626000Y191322D02*
Y197701D01*
X622350Y187672D02*
X626000Y191322D01*
X613836Y187672D02*
X622350D01*
X606555Y203413D02*
X606590Y203379D01*
X609262D01*
X582997Y189767D02*
X583031Y189732D01*
D25*
X599549Y211605D02*
X599869D01*
X616781Y210204D02*
X617175D01*
X606555Y207350D02*
X613927D01*
X563637Y197508D02*
X573287D01*
X613927Y207350D02*
X616781Y210204D01*
X574413Y162566D02*
X585274Y173427D01*
X569602Y162566D02*
X574413D01*
X566483Y159840D02*
X569208Y162566D01*
X566483Y157361D02*
Y159840D01*
X566257Y157135D02*
X566483Y157361D01*
X569208Y162566D02*
X569602D01*
X549060Y184862D02*
X556891D01*
X561381Y189352D01*
X560797Y194669D02*
X563637Y197508D01*
Y205365D01*
X609356Y209319D02*
X611007Y210970D01*
Y220676D01*
X558152Y209176D02*
X559825D01*
X563637Y205365D01*
X551575Y214176D02*
X558152D01*
X549708Y216043D02*
X551575Y214176D01*
X549389Y216043D02*
X549708D01*
X584301Y210018D02*
X584621D01*
X583032Y211287D02*
X584301Y210018D01*
X573287Y211287D02*
X583032D01*
X561381Y189352D02*
X562070D01*
X549389Y216043D02*
Y222045D01*
X549777Y222434D01*
X620022Y218169D02*
Y230882D01*
X617569Y215716D02*
X620022Y218169D01*
X617175Y215716D02*
X617569D01*
X581951Y227261D02*
Y231059D01*
X581063Y223000D02*
Y226373D01*
X581951Y227261D01*
X580040Y232970D02*
X581951Y231059D01*
X576611Y232970D02*
X580040D01*
X575005Y231365D02*
X576611Y232970D01*
X571304Y231365D02*
X575005D01*
X606555Y209319D02*
X609356D01*
X600186Y211287D02*
X606555D01*
X599869Y211605D02*
X600186Y211287D01*
X579094Y223000D02*
Y229777D01*
X579195Y229878D01*
X585274Y173427D02*
Y175502D01*
X585500Y175728D01*
X613979Y275664D02*
Y276648D01*
Y275664D02*
X620128Y269515D01*
Y269240D02*
Y269515D01*
D26*
X535945Y142118D02*
X540353Y146526D01*
X535945Y130725D02*
Y142118D01*
X547500Y133171D02*
Y134500D01*
X535945Y130725D02*
X535970Y130750D01*
X545079D02*
X547500Y133171D01*
X535970Y130750D02*
X545079D01*
X554598Y149351D02*
Y158280D01*
Y149351D02*
X555546Y148403D01*
X554125Y158753D02*
X554598Y158280D01*
X539796Y154683D02*
X539997Y154884D01*
X539796Y147083D02*
Y154683D01*
Y147083D02*
X540353Y146526D01*
X570894Y115033D02*
Y134718D01*
X525000Y133671D02*
Y135000D01*
Y133671D02*
X527421Y131250D01*
X535420D01*
X535945Y130725D01*
D27*
X603979Y276648D02*
X613979D01*
X593979D02*
X603979D01*
X583979D02*
X593979D01*
X573979D02*
X583979D01*
X563979D02*
X573979D01*
X553979D02*
X563979D01*
X543979D02*
X553979D01*
D28*
X598453Y115033D02*
D03*
X584674D02*
D03*
Y134718D02*
D03*
X598453D02*
D03*
X612233D02*
D03*
Y115033D02*
D03*
D29*
X570894D02*
D03*
Y134718D02*
D03*
D30*
X632500Y115961D02*
D03*
X520139Y196137D02*
D03*
X633638Y252554D02*
D03*
D31*
X632500Y125961D02*
D03*
X520139Y226137D02*
D03*
Y206137D02*
D03*
Y216137D02*
D03*
X633638Y222554D02*
D03*
Y242554D02*
D03*
Y232554D02*
D03*
D32*
X495469Y191607D02*
D03*
X658523Y191869D02*
D03*
D33*
X598907Y199863D02*
D03*
X599549Y211605D02*
D03*
X598553Y208143D02*
D03*
X597000Y217000D02*
D03*
X578505Y182768D02*
D03*
X566257Y157135D02*
D03*
X575311Y167361D02*
D03*
X592000Y181833D02*
D03*
X595668Y182206D02*
D03*
X573895Y177609D02*
D03*
X567000Y204500D02*
D03*
X554583Y188124D02*
D03*
X560797Y194669D02*
D03*
X573182Y172442D02*
D03*
X562999Y211675D02*
D03*
X550662Y202863D02*
D03*
X601079Y250744D02*
D03*
X611007Y220676D02*
D03*
X546345Y202849D02*
D03*
X550892Y211402D02*
D03*
X578500Y195500D02*
D03*
X581463Y198422D02*
D03*
X584621Y210018D02*
D03*
X610056Y190386D02*
D03*
X549389Y216043D02*
D03*
X589024Y202985D02*
D03*
X588617Y215207D02*
D03*
X584271Y214098D02*
D03*
X585000Y202500D02*
D03*
X536098Y166442D02*
D03*
X536243Y171330D02*
D03*
X549060Y184862D02*
D03*
X607977Y166718D02*
D03*
X525488Y166720D02*
D03*
X530724Y166383D02*
D03*
X536610Y108608D02*
D03*
X517109Y163801D02*
D03*
X596928Y234133D02*
D03*
X535868Y184012D02*
D03*
X530754D02*
D03*
X525020D02*
D03*
X540353Y146526D02*
D03*
X555546Y148403D02*
D03*
X530822Y171539D02*
D03*
X525460Y171459D02*
D03*
X620022Y230882D02*
D03*
X533864Y245607D02*
D03*
X533209Y241490D02*
D03*
X534004Y266329D02*
D03*
X534770Y255897D02*
D03*
X594007Y160716D02*
D03*
X516063Y271997D02*
D03*
X516425Y261227D02*
D03*
X516031Y249464D02*
D03*
X516379Y238966D02*
D03*
X537640Y222783D02*
D03*
X608696Y239446D02*
D03*
X629082Y182595D02*
D03*
X628868Y176372D02*
D03*
X594271Y168156D02*
D03*
X525412Y146894D02*
D03*
X518172Y146559D02*
D03*
X571304Y231365D02*
D03*
X593819Y231747D02*
D03*
X603826Y183794D02*
D03*
X613836Y187672D02*
D03*
X579195Y229878D02*
D03*
X620128Y269240D02*
D03*
X535945Y130725D02*
D03*
D34*
X552779Y193870D02*
D03*
X571460Y251135D02*
D03*
X531900Y145297D02*
D03*
X559179Y234178D02*
D03*
X545942Y180578D02*
D03*
X553138Y248837D02*
D03*
X553455Y257251D02*
D03*
X563949Y169868D02*
D03*
X536026Y193604D02*
D03*
X603624Y261821D02*
D03*
X553488Y267336D02*
D03*
X622921Y141068D02*
D03*
%TF.MD5,52907f9051e411f72cb3e4f8eea63744*%
M02*
