%TF.GenerationSoftware,Altium Limited,Altium Designer,20.0.13 (296)*%
G04 Layer_Color=128*
%FSLAX25Y25*%
%MOIN*%
%TF.FileFunction,Paste,Bot*%
%TF.Part,Single*%
G01*
G75*
%TA.AperFunction,SMDPad,CuDef*%
%ADD11R,0.03543X0.02756*%
%ADD14R,0.05118X0.03740*%
%ADD18R,0.02756X0.03543*%
%ADD35R,0.04331X0.05315*%
%ADD36O,0.05000X0.01575*%
%ADD37R,0.05000X0.01575*%
%ADD38R,0.06693X0.04134*%
%ADD39R,0.05315X0.04331*%
D11*
X588171Y166249D02*
D03*
Y160738D02*
D03*
X619073Y181265D02*
D03*
Y175753D02*
D03*
X625683Y198414D02*
D03*
Y192902D02*
D03*
X626183Y158586D02*
D03*
Y164098D02*
D03*
D14*
X544030Y219597D02*
D03*
Y212314D02*
D03*
X579526Y244437D02*
D03*
Y237154D02*
D03*
X612721Y225909D02*
D03*
Y233192D02*
D03*
X633000Y144500D02*
D03*
Y137216D02*
D03*
D18*
X615024Y264763D02*
D03*
X609512D02*
D03*
X546537Y240640D02*
D03*
X541025D02*
D03*
X546537Y265605D02*
D03*
X541025D02*
D03*
X546537Y257284D02*
D03*
X541025D02*
D03*
X546537Y248962D02*
D03*
X541025D02*
D03*
X543097Y198758D02*
D03*
X548609D02*
D03*
X543323Y189736D02*
D03*
X548835D02*
D03*
X543256Y139500D02*
D03*
X537744D02*
D03*
X528833Y139484D02*
D03*
X523321D02*
D03*
D35*
X555031Y158685D02*
D03*
Y169905D02*
D03*
D36*
X565851Y183977D02*
D03*
Y186537D02*
D03*
Y189097D02*
D03*
Y191657D02*
D03*
Y194217D02*
D03*
Y196777D02*
D03*
Y199337D02*
D03*
X587851Y183977D02*
D03*
Y186537D02*
D03*
Y189097D02*
D03*
Y191657D02*
D03*
Y194217D02*
D03*
Y196777D02*
D03*
D37*
Y199337D02*
D03*
D38*
X552000Y111193D02*
D03*
Y122807D02*
D03*
D39*
X530390Y121500D02*
D03*
X541610D02*
D03*
%TF.MD5,4cef27992bda077b704a1b8b2aaa672a*%
M02*
