%TF.GenerationSoftware,Altium Limited,Altium Designer,20.0.13 (296)*%
G04 Layer_Color=16711935*
%FSLAX25Y25*%
%MOIN*%
%TF.FileFunction,Other,Mechanical_13*%
%TF.Part,Single*%
G01*
G75*
%TA.AperFunction,NonConductor*%
%ADD73C,0.00394*%
D73*
X602126Y196130D02*
G03*
X602126Y196130I-1969J0D01*
G01*
X545061Y212975D02*
G03*
X545061Y212975I-1969J0D01*
G01*
X596268Y169331D02*
G03*
X596268Y169331I-1969J0D01*
G01*
X551488Y158586D02*
X558575D01*
X551488Y170004D02*
X558575D01*
Y158586D02*
Y170004D01*
X551488Y158586D02*
Y170004D01*
X548377Y157375D02*
X559873D01*
X548377Y175485D02*
X559873D01*
X548377Y157375D02*
Y175485D01*
X559873Y157375D02*
Y175485D01*
X541471Y211822D02*
Y220089D01*
X546589Y211822D02*
Y220089D01*
X541471D02*
X546589D01*
X541471Y211822D02*
X546589D01*
X585667Y182837D02*
Y200637D01*
X567951Y182837D02*
Y200637D01*
X585667D01*
X567951Y182837D02*
X585667D01*
X555346Y110504D02*
Y123496D01*
X548654Y110504D02*
Y123496D01*
Y110504D02*
X555346D01*
X548654Y123496D02*
X555346D01*
X615614Y262991D02*
Y266535D01*
X608921Y262991D02*
Y266535D01*
X615614D01*
X608921Y262991D02*
X615614D01*
X576967Y236661D02*
Y244929D01*
X582085Y236661D02*
Y244929D01*
X576967D02*
X582085D01*
X576967Y236661D02*
X582085D01*
X615403Y209614D02*
X618947D01*
X615403Y216307D02*
X618947D01*
X615403Y209614D02*
Y216307D01*
X618947Y209614D02*
Y216307D01*
X610162Y225417D02*
X615280D01*
X610162Y233685D02*
X615280D01*
Y225417D02*
Y233685D01*
X610162Y225417D02*
Y233685D01*
X567831Y168668D02*
X571374D01*
X567831Y161975D02*
X571374D01*
Y168668D01*
X567831Y161975D02*
Y168668D01*
X603701Y192587D02*
Y220146D01*
X576142Y192587D02*
Y220146D01*
Y192587D02*
X603701D01*
X576142Y220146D02*
X603701D01*
X560354Y182419D02*
Y190687D01*
X565472Y182419D02*
Y190687D01*
X560354Y182419D02*
X565472D01*
X560354Y190687D02*
X565472D01*
X630441Y136724D02*
Y144992D01*
X635559Y136724D02*
Y144992D01*
X630441D02*
X635559D01*
X630441Y136724D02*
X635559D01*
X547128Y238869D02*
Y242412D01*
X540435Y238869D02*
Y242412D01*
X547128D01*
X540435Y238869D02*
X547128D01*
Y263834D02*
Y267377D01*
X540435Y263834D02*
Y267377D01*
X547128D01*
X540435Y263834D02*
X547128D01*
X547127Y255512D02*
Y259055D01*
X540435Y255512D02*
Y259055D01*
X547127D01*
X540435Y255512D02*
X547127D01*
Y247190D02*
Y250734D01*
X540435Y247190D02*
Y250734D01*
X547127D01*
X540435Y247190D02*
X547127D01*
X539550Y196834D02*
X555298D01*
X539550Y216519D02*
X555298D01*
Y196834D02*
Y216519D01*
X539550Y196834D02*
Y216519D01*
X542001Y224993D02*
X550269D01*
X542001Y219875D02*
X550269D01*
X542001D02*
Y224993D01*
X550269Y219875D02*
Y224993D01*
X586400Y166840D02*
X589943D01*
X586400Y160147D02*
X589943D01*
X586400D02*
Y166840D01*
X589943Y160147D02*
Y166840D01*
X542507Y196986D02*
Y200529D01*
X549199Y196986D02*
Y200529D01*
X542507Y196986D02*
X549199D01*
X542507Y200529D02*
X549199D01*
X542733Y187965D02*
Y191508D01*
X549426Y187965D02*
Y191508D01*
X542733Y187965D02*
X549426D01*
X542733Y191508D02*
X549426D01*
X605083Y179326D02*
X610201D01*
X605083Y171059D02*
X610201D01*
Y179326D01*
X605083Y171059D02*
Y179326D01*
X617301Y175163D02*
Y181855D01*
X620844Y175163D02*
Y181855D01*
X617301D02*
X620844D01*
X617301Y175163D02*
X620844D01*
X520871Y270483D02*
X527564D01*
X520871Y274026D02*
X527564D01*
Y270483D02*
Y274026D01*
X520871Y270483D02*
Y274026D01*
X520871Y259310D02*
X527564D01*
X520871Y262853D02*
X527564D01*
Y259310D02*
Y262853D01*
X520871Y259310D02*
Y262853D01*
X520871Y248136D02*
X527564D01*
X520871Y251679D02*
X527564D01*
Y248136D02*
Y251679D01*
X520871Y248136D02*
Y251679D01*
X520871Y236963D02*
X527564D01*
X520871Y240506D02*
X527564D01*
Y236963D02*
Y240506D01*
X520871Y236963D02*
Y240506D01*
X537154Y141272D02*
X543846D01*
X537154Y137728D02*
X543846D01*
Y141272D01*
X537154Y137728D02*
Y141272D01*
X522731Y141256D02*
X529424D01*
X522731Y137713D02*
X529424D01*
Y141256D01*
X522731Y137713D02*
Y141256D01*
X623912Y192312D02*
Y199005D01*
X627455Y192312D02*
Y199005D01*
X623912D02*
X627455D01*
X623912Y192312D02*
X627455D01*
X627955Y157995D02*
Y164688D01*
X624412Y157995D02*
Y164688D01*
Y157995D02*
X627955D01*
X624412Y164688D02*
X627955D01*
X517556Y158821D02*
X544327D01*
X517556Y173781D02*
X544327D01*
X517556Y158821D02*
Y173781D01*
X544327Y158821D02*
Y173781D01*
X530291Y117957D02*
Y125043D01*
X541709Y117957D02*
Y125043D01*
X530291Y117957D02*
X541709D01*
X530291Y125043D02*
X541709D01*
X578157Y172874D02*
X597843D01*
X578157Y157126D02*
X597843D01*
Y172874D01*
X578157Y157126D02*
Y172874D01*
%TF.MD5,9d727e2e6740399c2848f2b48453be92*%
M02*
