%TF.GenerationSoftware,Altium Limited,Altium Designer,20.0.13 (296)*%
G04 Layer_Color=16711935*
%FSLAX25Y25*%
%MOIN*%
%TF.FileFunction,Other,Mechanical_1*%
%TF.Part,Single*%
G01*
G75*
%TA.AperFunction,NonConductor*%
%ADD43C,0.01000*%
D43*
X503818Y215277D02*
G03*
X511692Y223151I0J7874D01*
G01*
X519485Y283865D02*
G03*
X511611Y275991I0J-7874D01*
G01*
X642068Y276032D02*
G03*
X634194Y283906I-7874J0D01*
G01*
X642150Y223683D02*
G03*
X650024Y215809I7874J0D01*
G01*
X649929Y168146D02*
G03*
X642055Y160272I0J-7874D01*
G01*
X633961Y100031D02*
G03*
X641835Y107905I0J7874D01*
G01*
X511375Y107728D02*
G03*
X519249Y99854I7874J0D01*
G01*
X511289Y160196D02*
G03*
X503415Y168070I-7874J0D01*
G01*
X495487Y215303D02*
G03*
X495487Y168059I0J-23622D01*
G01*
X658518Y168253D02*
G03*
X658518Y215497I0J23622D01*
G01*
X650093Y215712D02*
X658266D01*
X650206Y168159D02*
X658379D01*
X495324Y168093D02*
X503498D01*
X495582Y215305D02*
X503756D01*
X642110Y223650D02*
Y276012D01*
X511304Y107841D02*
Y160204D01*
X641921Y107882D02*
Y160244D01*
X511653Y223187D02*
Y275549D01*
X519771Y283866D02*
X633945Y283866D01*
X519570Y100000D02*
X633744D01*
%TF.MD5,a471cccc4f43e4b916b5ab9720d74b75*%
M02*
