%TF.GenerationSoftware,Altium Limited,Altium Designer,20.0.13 (296)*%
G04 Layer_Color=65535*
%FSLAX25Y25*%
%MOIN*%
%TF.FileFunction,Legend,Top*%
%TF.Part,Single*%
G01*
G75*
%TA.AperFunction,NonConductor*%
%ADD40C,0.00787*%
%ADD41C,0.00984*%
%ADD42C,0.02362*%
%ADD43C,0.01000*%
%ADD59C,0.01575*%
%ADD60C,0.00800*%
%ADD61C,0.00500*%
G36*
X639453Y133176D02*
X625957D01*
Y138184D01*
X639453D01*
Y133176D01*
D02*
G37*
G36*
X530576Y190088D02*
X526268D01*
Y201620D01*
X530576D01*
Y190088D01*
D02*
G37*
G36*
X528075Y252883D02*
X521074D01*
Y257583D01*
X528075D01*
Y252883D01*
D02*
G37*
G36*
X530506Y220283D02*
Y209970D01*
X526198D01*
Y220283D01*
X530506D01*
D02*
G37*
G36*
X627743Y236225D02*
Y227731D01*
X623435D01*
Y236225D01*
X627743D01*
D02*
G37*
G36*
X627039Y226387D02*
X627536D01*
Y216883D01*
X623228D01*
Y226387D01*
X623725D01*
D01*
X625391D01*
X625304Y226384D01*
X625221Y226380D01*
X625141Y226370D01*
X625061Y226360D01*
X624988Y226342D01*
X624919Y226328D01*
X624853Y226311D01*
X624790Y226293D01*
X624735Y226276D01*
X624686Y226259D01*
X624641Y226241D01*
X624607Y226228D01*
X624575Y226217D01*
X624554Y226207D01*
X624541Y226203D01*
X624537Y226200D01*
X624464Y226162D01*
X624398Y226123D01*
X624336Y226078D01*
X624277Y226033D01*
X624225Y225988D01*
X624173Y225940D01*
X624128Y225894D01*
X624089Y225849D01*
X624051Y225808D01*
X624020Y225769D01*
X623996Y225731D01*
X623972Y225704D01*
X623954Y225676D01*
X623944Y225658D01*
X623937Y225645D01*
X623933Y225641D01*
X623895Y225568D01*
X623864Y225495D01*
X623836Y225423D01*
X623812Y225346D01*
X623795Y225270D01*
X623777Y225197D01*
X623763Y225128D01*
X623753Y225062D01*
X623742Y224999D01*
X623736Y224944D01*
X623732Y224892D01*
X623729Y224847D01*
X623725Y224812D01*
Y223393D01*
Y224763D01*
X623729Y224690D01*
X623732Y224618D01*
X623749Y224475D01*
X623760Y224406D01*
X623774Y224343D01*
X623788Y224281D01*
X623801Y224225D01*
X623815Y224173D01*
X623826Y224125D01*
X623840Y224083D01*
X623850Y224048D01*
X623860Y224021D01*
X623867Y224000D01*
X623874Y223986D01*
Y223983D01*
X623902Y223913D01*
X623933Y223847D01*
X623961Y223785D01*
X623992Y223729D01*
X624020Y223674D01*
X624048Y223625D01*
X624076Y223583D01*
X624103Y223542D01*
X624128Y223507D01*
X624148Y223476D01*
X624169Y223452D01*
X624187Y223431D01*
X624200Y223413D01*
X624211Y223403D01*
X624214Y223396D01*
X624218Y223393D01*
X623725D01*
X625498D01*
Y224784D01*
X624957D01*
Y224045D01*
X624547D01*
X624506Y224104D01*
X624471Y224163D01*
X624440Y224222D01*
X624412Y224277D01*
X624388Y224326D01*
X624370Y224364D01*
X624364Y224378D01*
X624360Y224389D01*
X624357Y224395D01*
Y224399D01*
X624329Y224475D01*
X624311Y224548D01*
X624298Y224614D01*
X624287Y224676D01*
X624280Y224728D01*
Y224753D01*
X624277Y224770D01*
Y224805D01*
X624280Y224881D01*
X624291Y224951D01*
X624305Y225017D01*
X624322Y225082D01*
X624343Y225142D01*
X624367Y225194D01*
X624391Y225246D01*
X624419Y225291D01*
X624447Y225329D01*
X624471Y225367D01*
X624495Y225395D01*
X624516Y225423D01*
X624534Y225440D01*
X624551Y225457D01*
X624558Y225464D01*
X624561Y225468D01*
X624617Y225513D01*
X624679Y225551D01*
X624745Y225586D01*
X624815Y225613D01*
X624888Y225638D01*
X624957Y225658D01*
X625030Y225676D01*
X625096Y225690D01*
X625162Y225700D01*
X625224Y225707D01*
X625276Y225714D01*
X625325Y225717D01*
X625363D01*
X625394Y225721D01*
X625412D01*
X625419D01*
X625516Y225717D01*
X625606Y225711D01*
X625689Y225697D01*
X625765Y225683D01*
X625838Y225662D01*
X625904Y225641D01*
X625963Y225620D01*
X626015Y225596D01*
X626064Y225572D01*
X626102Y225551D01*
X626137Y225530D01*
X626164Y225509D01*
X626189Y225495D01*
X626203Y225482D01*
X626213Y225475D01*
X626217Y225471D01*
X626265Y225423D01*
X626307Y225371D01*
X626341Y225315D01*
X626373Y225259D01*
X626401Y225204D01*
X626421Y225148D01*
X626439Y225093D01*
X626452Y225041D01*
X626463Y224992D01*
X626473Y224944D01*
X626480Y224902D01*
X626484Y224867D01*
X626487Y224840D01*
Y224798D01*
X626480Y224697D01*
X626466Y224607D01*
X626442Y224527D01*
X626418Y224461D01*
X626404Y224434D01*
X626394Y224406D01*
X626380Y224385D01*
X626369Y224368D01*
X626362Y224350D01*
X626355Y224340D01*
X626348Y224336D01*
Y224333D01*
X626293Y224267D01*
X626234Y224215D01*
X626171Y224170D01*
X626112Y224135D01*
X626060Y224107D01*
X626036Y224097D01*
X626015Y224090D01*
X626001Y224083D01*
X625987Y224080D01*
X625981Y224076D01*
X625977D01*
X626099Y223434D01*
X626178Y223455D01*
X626255Y223479D01*
X626328Y223511D01*
X626394Y223542D01*
X626452Y223576D01*
X626511Y223615D01*
X626564Y223649D01*
X626609Y223688D01*
X626650Y223722D01*
X626688Y223757D01*
X626716Y223788D01*
X626744Y223813D01*
X626765Y223837D01*
X626779Y223854D01*
X626786Y223865D01*
X626789Y223868D01*
X626834Y223934D01*
X626872Y224003D01*
X626904Y224076D01*
X626935Y224152D01*
X626959Y224232D01*
X626976Y224309D01*
X626994Y224385D01*
X627008Y224458D01*
X627018Y224527D01*
X627025Y224590D01*
X627032Y224649D01*
X627036Y224701D01*
X627039Y224739D01*
Y224881D01*
X627032Y224961D01*
X627025Y225037D01*
X627015Y225110D01*
X627001Y225180D01*
X626987Y225242D01*
X626973Y225301D01*
X626959Y225353D01*
X626945Y225402D01*
X626931Y225443D01*
X626918Y225478D01*
X626904Y225509D01*
X626893Y225534D01*
X626886Y225551D01*
X626883Y225561D01*
X626879Y225565D01*
X626838Y225638D01*
X626793Y225707D01*
X626748Y225773D01*
X626699Y225832D01*
X626647Y225887D01*
X626598Y225936D01*
X626550Y225985D01*
X626501Y226023D01*
X626456Y226061D01*
X626414Y226092D01*
X626376Y226117D01*
X626345Y226141D01*
X626317Y226158D01*
X626296Y226169D01*
X626283Y226175D01*
X626279Y226179D01*
X626206Y226217D01*
X626130Y226248D01*
X626053Y226276D01*
X625977Y226301D01*
X625901Y226318D01*
X625828Y226335D01*
X625755Y226349D01*
X625689Y226360D01*
X625627Y226370D01*
X625571Y226377D01*
X625519Y226380D01*
X625474Y226384D01*
X625439Y226387D01*
X627039D01*
D01*
D02*
G37*
G36*
X627794Y237039D02*
X623487D01*
Y245533D01*
X627794D01*
Y237039D01*
D02*
G37*
G36*
X532155Y275575D02*
X516968D01*
Y279561D01*
X532155D01*
Y275575D01*
D02*
G37*
G36*
X527912Y246393D02*
Y241693D01*
X520912D01*
Y246393D01*
X527912D01*
D02*
G37*
G36*
X528038Y264292D02*
X521038D01*
Y268992D01*
X528038D01*
Y264292D01*
D02*
G37*
G36*
X530436Y221122D02*
X526128D01*
Y231932D01*
X530436D01*
Y221122D01*
D02*
G37*
G36*
X530646Y208905D02*
Y202185D01*
X526338D01*
Y208905D01*
X530646D01*
D02*
G37*
G36*
X627691Y246427D02*
X623383D01*
Y258382D01*
X627691D01*
Y246427D01*
D02*
G37*
%LPC*%
G36*
X638829Y137281D02*
X636806D01*
X637858D01*
X637289Y135095D01*
X636713Y137281D01*
X635745D01*
Y134078D01*
X636341D01*
Y136598D01*
X636973Y134078D01*
X637813D01*
X637598D01*
X638229Y136598D01*
X638233Y134078D01*
X638829D01*
Y137281D01*
D02*
G37*
G36*
X631973D02*
D01*
Y134620D01*
X630182D01*
Y135491D01*
X631789D01*
Y136032D01*
X630182D01*
Y136740D01*
X631910D01*
Y137281D01*
X629537D01*
Y134078D01*
X631973D01*
Y137281D01*
D02*
G37*
G36*
X635401D02*
D01*
Y134078D01*
X635009Y134699D01*
X634967Y134769D01*
X634926Y134828D01*
X634888Y134887D01*
X634853Y134939D01*
X634822Y134987D01*
X634790Y135029D01*
X634763Y135067D01*
X634738Y135102D01*
X634717Y135130D01*
X634697Y135154D01*
X634679Y135175D01*
X634665Y135192D01*
X634655Y135203D01*
X634648Y135213D01*
X634641Y135220D01*
X634589Y135272D01*
X634530Y135324D01*
X634471Y135369D01*
X634415Y135407D01*
X634367Y135442D01*
X634329Y135466D01*
X634315Y135477D01*
X634305Y135480D01*
X634298Y135487D01*
X634294D01*
X634370Y135501D01*
X634443Y135518D01*
X634509Y135539D01*
X634572Y135560D01*
X634631Y135584D01*
X634683Y135609D01*
X634728Y135633D01*
X634769Y135661D01*
X634808Y135685D01*
X634839Y135709D01*
X634867Y135730D01*
X634891Y135747D01*
X634908Y135765D01*
X634919Y135775D01*
X634926Y135782D01*
X634929Y135786D01*
X634967Y135831D01*
X634999Y135879D01*
X635026Y135928D01*
X635051Y135980D01*
X635071Y136029D01*
X635089Y136077D01*
X635113Y136174D01*
X635123Y136216D01*
X635130Y136258D01*
X635134Y136292D01*
X635137Y136323D01*
X635141Y136348D01*
Y136365D01*
Y136379D01*
Y136382D01*
X635134Y136487D01*
X635120Y136580D01*
X635096Y136667D01*
X635071Y136740D01*
X635057Y136771D01*
X635044Y136802D01*
X635033Y136827D01*
X635019Y136847D01*
X635012Y136865D01*
X635006Y136875D01*
X634999Y136882D01*
Y136886D01*
X634943Y136962D01*
X634880Y137028D01*
X634822Y137080D01*
X634763Y137125D01*
X634707Y137156D01*
X634686Y137167D01*
X634665Y137177D01*
X634648Y137184D01*
X634638Y137191D01*
X634631Y137194D01*
X634627D01*
X634582Y137208D01*
X634530Y137222D01*
X634471Y137236D01*
X634412Y137243D01*
X634291Y137260D01*
X634166Y137271D01*
X634110Y137274D01*
X634055Y137278D01*
X634006D01*
X633964Y137281D01*
X632521D01*
Y134078D01*
X635401D01*
Y137281D01*
D02*
G37*
G36*
X629120D02*
X626580D01*
Y136740D01*
X627531D01*
Y134078D01*
X626580D01*
D01*
X629120D01*
Y137281D01*
D02*
G37*
%LPD*%
G36*
X633909Y136736D02*
X633992D01*
X634027Y136733D01*
X634079D01*
X634096Y136729D01*
X634124D01*
X634138Y136726D01*
X634141D01*
X634197Y136712D01*
X634249Y136695D01*
X634291Y136677D01*
X634325Y136653D01*
X634353Y136636D01*
X634370Y136618D01*
X634384Y136604D01*
X634388Y136601D01*
X634415Y136559D01*
X634436Y136518D01*
X634454Y136476D01*
X634464Y136434D01*
X634471Y136396D01*
X634475Y136369D01*
Y136348D01*
Y136344D01*
Y136341D01*
X634471Y136289D01*
X634464Y136240D01*
X634454Y136198D01*
X634443Y136164D01*
X634429Y136136D01*
X634419Y136115D01*
X634412Y136101D01*
X634409Y136098D01*
X634381Y136063D01*
X634353Y136035D01*
X634322Y136011D01*
X634291Y135994D01*
X634266Y135980D01*
X634245Y135969D01*
X634232Y135966D01*
X634225Y135963D01*
X634200Y135956D01*
X634166Y135949D01*
X634128Y135945D01*
X634086Y135942D01*
X633992Y135935D01*
X633892Y135928D01*
X633798D01*
X633756Y135924D01*
X633166D01*
Y136740D01*
X633860D01*
X633909Y136736D01*
D02*
G37*
G36*
X633440Y135407D02*
X633496Y135404D01*
X633541Y135397D01*
X633576Y135390D01*
X633600Y135383D01*
X633617Y135380D01*
X633621Y135376D01*
X633659Y135362D01*
X633694Y135342D01*
X633729Y135321D01*
X633756Y135296D01*
X633780Y135275D01*
X633801Y135262D01*
X633812Y135248D01*
X633815Y135244D01*
X633836Y135223D01*
X633857Y135196D01*
X633881Y135164D01*
X633909Y135130D01*
X633964Y135053D01*
X634023Y134974D01*
X634075Y134897D01*
X634100Y134866D01*
X634117Y134835D01*
X634134Y134810D01*
X634148Y134793D01*
X634155Y134779D01*
X634159Y134776D01*
X634627Y134078D01*
X633166D01*
Y135414D01*
X633375D01*
X633440Y135407D01*
D02*
G37*
G36*
X629120Y134078D02*
X628176D01*
Y136740D01*
X629120D01*
Y134078D01*
D02*
G37*
%LPC*%
G36*
X529062Y200952D02*
X529045D01*
X528993Y200948D01*
X528941Y200945D01*
X528843Y200927D01*
X528760Y200900D01*
X528687Y200868D01*
X528656Y200854D01*
X528628Y200837D01*
X528604Y200823D01*
X528583Y200813D01*
X528569Y200799D01*
X528559Y200792D01*
X528552Y200788D01*
X528548Y200785D01*
X528510Y200754D01*
X528476Y200719D01*
X528420Y200650D01*
X528371Y200577D01*
X528337Y200504D01*
X528312Y200445D01*
X528302Y200417D01*
X528295Y200393D01*
X528288Y200376D01*
X528285Y200362D01*
X528281Y200351D01*
Y200348D01*
X528233Y200428D01*
X528181Y200500D01*
X528125Y200563D01*
X528070Y200615D01*
X528014Y200660D01*
X527959Y200698D01*
X527903Y200726D01*
X527851Y200750D01*
X527802Y200771D01*
X527754Y200785D01*
X527712Y200795D01*
X527677Y200802D01*
X527650Y200806D01*
X527626Y200809D01*
X527612D01*
X527608D01*
X527553Y200806D01*
X527500Y200799D01*
X527449Y200788D01*
X527400Y200775D01*
X527310Y200736D01*
X527233Y200695D01*
X527199Y200674D01*
X527167Y200653D01*
X527140Y200632D01*
X527119Y200615D01*
X527102Y200601D01*
X527088Y200591D01*
X527081Y200584D01*
X527077Y200580D01*
X527025Y200528D01*
X526980Y200473D01*
X526942Y200414D01*
X526907Y200351D01*
X526879Y200292D01*
X526855Y200233D01*
X526838Y200174D01*
X526820Y200115D01*
X526810Y200063D01*
X526800Y200015D01*
X526796Y199969D01*
X526789Y199931D01*
Y199900D01*
X526786Y199876D01*
Y199855D01*
X526789Y199758D01*
X526800Y199668D01*
X526817Y199584D01*
X526834Y199515D01*
X526845Y199484D01*
X526855Y199456D01*
X526862Y199432D01*
X526869Y199411D01*
X526876Y199393D01*
X526883Y199383D01*
X526886Y199376D01*
Y199373D01*
X526928Y199296D01*
X526973Y199230D01*
X527018Y199175D01*
X527063Y199130D01*
X527102Y199092D01*
X527136Y199064D01*
X527157Y199050D01*
X527161Y199043D01*
X527164D01*
X527233Y199001D01*
X527310Y198967D01*
X527386Y198935D01*
X527462Y198911D01*
X527528Y198890D01*
X527556Y198883D01*
X527580Y198877D01*
X527601Y198873D01*
X527615Y198870D01*
X527626Y198866D01*
X527629D01*
X527723Y199432D01*
X527650Y199445D01*
X527584Y199463D01*
X527532Y199484D01*
X527487Y199508D01*
X527452Y199532D01*
X527428Y199550D01*
X527410Y199564D01*
X527407Y199567D01*
X527369Y199612D01*
X527341Y199657D01*
X527324Y199702D01*
X527310Y199744D01*
X527303Y199782D01*
X527296Y199810D01*
Y199838D01*
X527299Y199897D01*
X527310Y199949D01*
X527327Y199990D01*
X527344Y200028D01*
X527362Y200060D01*
X527379Y200080D01*
X527389Y200094D01*
X527393Y200098D01*
X527431Y200129D01*
X527473Y200153D01*
X527518Y200171D01*
X527556Y200185D01*
X527594Y200192D01*
X527622Y200195D01*
X527643D01*
X527646D01*
X527650D01*
X527719Y200188D01*
X527778Y200174D01*
X527830Y200153D01*
X527875Y200129D01*
X527910Y200101D01*
X527934Y200080D01*
X527948Y200067D01*
X527955Y200060D01*
X527990Y200004D01*
X528018Y199945D01*
X528038Y199883D01*
X528049Y199820D01*
X528056Y199765D01*
Y199741D01*
X528059Y199720D01*
Y199678D01*
X528559Y199612D01*
X528542Y199671D01*
X528531Y199727D01*
X528521Y199772D01*
X528517Y199813D01*
X528514Y199848D01*
X528510Y199872D01*
Y199893D01*
X528517Y199959D01*
X528531Y200018D01*
X528555Y200070D01*
X528580Y200115D01*
X528604Y200150D01*
X528628Y200178D01*
X528642Y200192D01*
X528649Y200199D01*
X528705Y200240D01*
X528764Y200271D01*
X528826Y200292D01*
X528885Y200310D01*
X528937Y200317D01*
X528958Y200320D01*
X528979D01*
X528996Y200324D01*
X529006D01*
X529013D01*
X529017D01*
X529104Y200317D01*
X529180Y200303D01*
X529246Y200282D01*
X529302Y200257D01*
X529347Y200233D01*
X529378Y200212D01*
X529399Y200199D01*
X529406Y200192D01*
X529454Y200139D01*
X529489Y200084D01*
X529513Y200032D01*
X529530Y199980D01*
X529541Y199935D01*
X529544Y199900D01*
X529548Y199886D01*
Y199869D01*
X529544Y199806D01*
X529530Y199747D01*
X529510Y199695D01*
X529489Y199650D01*
X529468Y199616D01*
X529447Y199588D01*
X529433Y199574D01*
X529430Y199567D01*
X529381Y199525D01*
X529322Y199491D01*
X529267Y199463D01*
X529208Y199445D01*
X529159Y199428D01*
X529118Y199421D01*
X529100Y199418D01*
X529090Y199414D01*
X529083D01*
X529079D01*
X529152Y198821D01*
X529225Y198831D01*
X529298Y198849D01*
X529364Y198870D01*
X529426Y198890D01*
X529485Y198918D01*
X529537Y198946D01*
X529586Y198974D01*
X529631Y199001D01*
X529673Y199033D01*
X529707Y199057D01*
X529739Y199085D01*
X529763Y199106D01*
X529784Y199123D01*
X529798Y199137D01*
X529805Y199147D01*
X529808Y199151D01*
X529853Y199206D01*
X529891Y199265D01*
X529923Y199324D01*
X529954Y199387D01*
X529978Y199445D01*
X529995Y199504D01*
X530013Y199564D01*
X530027Y199619D01*
X530037Y199671D01*
X530044Y199720D01*
X530051Y199765D01*
X530055Y199800D01*
Y199831D01*
X530058Y199852D01*
Y199872D01*
X530055Y199956D01*
X530044Y200039D01*
X530030Y200115D01*
X530013Y200188D01*
X529988Y200254D01*
X529964Y200320D01*
X529937Y200379D01*
X529909Y200431D01*
X529884Y200480D01*
X529857Y200521D01*
X529832Y200556D01*
X529808Y200587D01*
X529791Y200611D01*
X529777Y200629D01*
X529766Y200639D01*
X529763Y200643D01*
X529704Y200698D01*
X529645Y200743D01*
X529586Y200785D01*
X529524Y200820D01*
X529465Y200851D01*
X529406Y200875D01*
X529347Y200896D01*
X529291Y200913D01*
X529239Y200927D01*
X529194Y200934D01*
X529152Y200941D01*
X529114Y200948D01*
X529086D01*
X529062Y200952D01*
D02*
G37*
G36*
X530058Y198821D02*
X529152D01*
X526786D01*
X530058D01*
D01*
D02*
G37*
G36*
X529999Y198651D02*
D01*
Y197506D01*
X526796Y198651D01*
Y197964D01*
X529166Y197180D01*
X526796Y196368D01*
Y195670D01*
X529999Y196812D01*
Y195670D01*
X526796D01*
D01*
X529999D01*
Y198651D01*
D02*
G37*
G36*
X529062Y195479D02*
X529045D01*
X528993Y195476D01*
X528941Y195472D01*
X528843Y195455D01*
X528760Y195427D01*
X528687Y195396D01*
X528656Y195382D01*
X528628Y195365D01*
X528604Y195351D01*
X528583Y195341D01*
X528569Y195327D01*
X528559Y195320D01*
X528552Y195316D01*
X528548Y195313D01*
X528510Y195282D01*
X528476Y195247D01*
X528420Y195177D01*
X528371Y195105D01*
X528337Y195032D01*
X528312Y194973D01*
X528302Y194945D01*
X528295Y194921D01*
X528288Y194903D01*
X528285Y194889D01*
X528281Y194879D01*
Y194876D01*
X528233Y194955D01*
X528181Y195028D01*
X528125Y195091D01*
X528070Y195143D01*
X528014Y195188D01*
X527959Y195226D01*
X527903Y195254D01*
X527851Y195278D01*
X527802Y195299D01*
X527754Y195313D01*
X527712Y195323D01*
X527677Y195330D01*
X527650Y195334D01*
X527626Y195337D01*
X527612D01*
X527608D01*
X527553Y195334D01*
X527500Y195327D01*
X527449Y195316D01*
X527400Y195302D01*
X527310Y195264D01*
X527233Y195223D01*
X527199Y195202D01*
X527167Y195181D01*
X527140Y195160D01*
X527119Y195143D01*
X527102Y195129D01*
X527088Y195118D01*
X527081Y195112D01*
X527077Y195108D01*
X527025Y195056D01*
X526980Y195001D01*
X526942Y194941D01*
X526907Y194879D01*
X526879Y194820D01*
X526855Y194761D01*
X526838Y194702D01*
X526820Y194643D01*
X526810Y194591D01*
X526800Y194542D01*
X526796Y194497D01*
X526789Y194459D01*
Y194428D01*
X526786Y194404D01*
Y194383D01*
X526789Y194286D01*
X526800Y194195D01*
X526817Y194112D01*
X526834Y194043D01*
X526845Y194011D01*
X526855Y193984D01*
X526862Y193959D01*
X526869Y193939D01*
X526876Y193921D01*
X526883Y193911D01*
X526886Y193904D01*
Y193901D01*
X526928Y193824D01*
X526973Y193758D01*
X527018Y193703D01*
X527063Y193658D01*
X527102Y193619D01*
X527136Y193592D01*
X527157Y193578D01*
X527161Y193571D01*
X527164D01*
X527233Y193529D01*
X527310Y193494D01*
X527386Y193463D01*
X527462Y193439D01*
X527528Y193418D01*
X527556Y193411D01*
X527580Y193404D01*
X527601Y193401D01*
X527615Y193397D01*
X527626Y193394D01*
X527629D01*
X527723Y193959D01*
X527650Y193973D01*
X527584Y193991D01*
X527532Y194011D01*
X527487Y194036D01*
X527452Y194060D01*
X527428Y194077D01*
X527410Y194091D01*
X527407Y194095D01*
X527369Y194140D01*
X527341Y194185D01*
X527324Y194230D01*
X527310Y194272D01*
X527303Y194310D01*
X527296Y194338D01*
Y194366D01*
X527299Y194424D01*
X527310Y194476D01*
X527327Y194518D01*
X527344Y194556D01*
X527362Y194588D01*
X527379Y194608D01*
X527389Y194622D01*
X527393Y194626D01*
X527431Y194657D01*
X527473Y194681D01*
X527518Y194699D01*
X527556Y194712D01*
X527594Y194719D01*
X527622Y194723D01*
X527643D01*
X527646D01*
X527650D01*
X527719Y194716D01*
X527778Y194702D01*
X527830Y194681D01*
X527875Y194657D01*
X527910Y194629D01*
X527934Y194608D01*
X527948Y194595D01*
X527955Y194588D01*
X527990Y194532D01*
X528018Y194473D01*
X528038Y194411D01*
X528049Y194348D01*
X528056Y194293D01*
Y194268D01*
X528059Y194247D01*
Y194206D01*
X528559Y194140D01*
X528542Y194199D01*
X528531Y194254D01*
X528521Y194299D01*
X528517Y194341D01*
X528514Y194376D01*
X528510Y194400D01*
Y194421D01*
X528517Y194487D01*
X528531Y194546D01*
X528555Y194598D01*
X528580Y194643D01*
X528604Y194678D01*
X528628Y194705D01*
X528642Y194719D01*
X528649Y194726D01*
X528705Y194768D01*
X528764Y194799D01*
X528826Y194820D01*
X528885Y194837D01*
X528937Y194844D01*
X528958Y194848D01*
X528979D01*
X528996Y194851D01*
X529006D01*
X529013D01*
X529017D01*
X529104Y194844D01*
X529180Y194830D01*
X529246Y194810D01*
X529302Y194785D01*
X529347Y194761D01*
X529378Y194740D01*
X529399Y194726D01*
X529406Y194719D01*
X529454Y194667D01*
X529489Y194612D01*
X529513Y194560D01*
X529530Y194508D01*
X529541Y194463D01*
X529544Y194428D01*
X529548Y194414D01*
Y194397D01*
X529544Y194334D01*
X529530Y194275D01*
X529510Y194223D01*
X529489Y194178D01*
X529468Y194143D01*
X529447Y194116D01*
X529433Y194102D01*
X529430Y194095D01*
X529381Y194053D01*
X529322Y194018D01*
X529267Y193991D01*
X529208Y193973D01*
X529159Y193956D01*
X529118Y193949D01*
X529100Y193946D01*
X529090Y193942D01*
X529083D01*
X529079D01*
X529152Y193349D01*
X529225Y193359D01*
X529298Y193377D01*
X529364Y193397D01*
X529426Y193418D01*
X529485Y193446D01*
X529537Y193474D01*
X529586Y193501D01*
X529631Y193529D01*
X529673Y193560D01*
X529707Y193585D01*
X529739Y193613D01*
X529763Y193633D01*
X529784Y193651D01*
X529798Y193665D01*
X529805Y193675D01*
X529808Y193678D01*
X529853Y193734D01*
X529891Y193793D01*
X529923Y193852D01*
X529954Y193914D01*
X529978Y193973D01*
X529995Y194032D01*
X530013Y194091D01*
X530027Y194147D01*
X530037Y194199D01*
X530044Y194247D01*
X530051Y194293D01*
X530055Y194327D01*
Y194359D01*
X530058Y194379D01*
Y194400D01*
X530055Y194483D01*
X530044Y194567D01*
X530030Y194643D01*
X530013Y194716D01*
X529988Y194782D01*
X529964Y194848D01*
X529937Y194907D01*
X529909Y194959D01*
X529884Y195007D01*
X529857Y195049D01*
X529832Y195084D01*
X529808Y195115D01*
X529791Y195139D01*
X529777Y195157D01*
X529766Y195167D01*
X529763Y195170D01*
X529704Y195226D01*
X529645Y195271D01*
X529586Y195313D01*
X529524Y195347D01*
X529465Y195379D01*
X529406Y195403D01*
X529347Y195424D01*
X529291Y195441D01*
X529239Y195455D01*
X529194Y195462D01*
X529152Y195469D01*
X529114Y195476D01*
X529086D01*
X529062Y195479D01*
D02*
G37*
G36*
X530058Y193349D02*
X529152D01*
X526786D01*
X530058D01*
D01*
D02*
G37*
G36*
X529537Y192995D02*
Y192155D01*
X528708D01*
Y192995D01*
X528132D01*
Y192155D01*
X527303D01*
Y191596D01*
X528132D01*
Y190757D01*
X527303D01*
D01*
X529537D01*
Y192995D01*
D02*
G37*
G36*
X527303D02*
Y192155D01*
D01*
Y192995D01*
D02*
G37*
%LPD*%
G36*
X529537Y190757D02*
X528708D01*
Y191596D01*
X529537D01*
Y190757D01*
D02*
G37*
%LPC*%
G36*
X527582Y257142D02*
D01*
Y256088D01*
X527578Y256170D01*
X527570Y256248D01*
X527553Y256322D01*
X527533Y256395D01*
X527508Y256461D01*
X527479Y256522D01*
X527451Y256580D01*
X527422Y256629D01*
X527389Y256678D01*
X527360Y256719D01*
X527332Y256756D01*
X527307Y256785D01*
X527287Y256805D01*
X527270Y256826D01*
X527262Y256834D01*
X527258Y256838D01*
X527197Y256891D01*
X527127Y256937D01*
X527057Y256978D01*
X526987Y257014D01*
X526914Y257043D01*
X526840Y257068D01*
X526770Y257088D01*
X526700Y257105D01*
X526635Y257117D01*
X526573Y257125D01*
X526520Y257133D01*
X526475Y257137D01*
X526434Y257142D01*
X526381D01*
X526286Y257137D01*
X526196Y257129D01*
X526110Y257117D01*
X526032Y257101D01*
X525954Y257080D01*
X525884Y257060D01*
X525823Y257035D01*
X525762Y257010D01*
X525708Y256986D01*
X525663Y256961D01*
X525622Y256941D01*
X525589Y256920D01*
X525565Y256904D01*
X525544Y256891D01*
X525532Y256883D01*
X525528Y256879D01*
X525466Y256826D01*
X525413Y256768D01*
X525364Y256703D01*
X525323Y256633D01*
X525286Y256563D01*
X525253Y256490D01*
X525224Y256420D01*
X525200Y256350D01*
X525179Y256285D01*
X525163Y256223D01*
X525151Y256166D01*
X525142Y256117D01*
X525134Y256076D01*
X525130Y256043D01*
X525126Y256026D01*
Y256018D01*
X525848Y255948D01*
X525852Y256006D01*
X525860Y256059D01*
X525880Y256153D01*
X525905Y256231D01*
X525930Y256293D01*
X525958Y256342D01*
X525979Y256375D01*
X525995Y256391D01*
X525999Y256399D01*
X526053Y256445D01*
X526114Y256482D01*
X526176Y256506D01*
X526233Y256522D01*
X526286Y256531D01*
X526327Y256539D01*
X526364D01*
X526446Y256535D01*
X526516Y256518D01*
X526577Y256498D01*
X526631Y256473D01*
X526672Y256449D01*
X526700Y256428D01*
X526721Y256412D01*
X526725Y256408D01*
X526770Y256354D01*
X526803Y256293D01*
X526823Y256231D01*
X526840Y256174D01*
X526848Y256117D01*
X526856Y256076D01*
Y256059D01*
Y256047D01*
Y256039D01*
Y256035D01*
X526848Y255953D01*
X526832Y255871D01*
X526807Y255797D01*
X526782Y255731D01*
X526754Y255674D01*
X526729Y255629D01*
X526717Y255612D01*
X526713Y255600D01*
X526705Y255596D01*
Y255592D01*
X526680Y255559D01*
X526647Y255518D01*
X526606Y255473D01*
X526565Y255428D01*
X526467Y255325D01*
X526360Y255223D01*
X526311Y255174D01*
X526262Y255124D01*
X526221Y255083D01*
X526180Y255047D01*
X526147Y255018D01*
X526122Y254993D01*
X526106Y254977D01*
X526102Y254973D01*
X525991Y254870D01*
X525893Y254772D01*
X525798Y254678D01*
X525716Y254591D01*
X525643Y254514D01*
X525577Y254436D01*
X525516Y254370D01*
X525466Y254309D01*
X525421Y254251D01*
X525384Y254206D01*
X525351Y254161D01*
X525327Y254128D01*
X525311Y254103D01*
X525294Y254083D01*
X525290Y254071D01*
X525286Y254067D01*
X525216Y253940D01*
X525163Y253812D01*
X525118Y253689D01*
X525085Y253579D01*
X525073Y253530D01*
X525065Y253484D01*
X525056Y253443D01*
X525048Y253411D01*
X525044Y253382D01*
Y253361D01*
X525040Y253349D01*
Y253345D01*
X527582D01*
Y257142D01*
D02*
G37*
G36*
X523162Y257191D02*
X523092D01*
X522932Y257187D01*
X522863Y257178D01*
X522789Y257170D01*
X522723Y257158D01*
X522662Y257150D01*
X522609Y257137D01*
X522555Y257125D01*
X522506Y257109D01*
X522465Y257097D01*
X522432Y257088D01*
X522400Y257076D01*
X522379Y257068D01*
X522359Y257060D01*
X522350Y257055D01*
X522346D01*
X522240Y257002D01*
X522141Y256941D01*
X522063Y256879D01*
X521994Y256818D01*
X521944Y256760D01*
X521903Y256715D01*
X521891Y256699D01*
X521883Y256686D01*
X521875Y256678D01*
Y256674D01*
X521821Y256580D01*
X521780Y256486D01*
X521752Y256391D01*
X521731Y256309D01*
X521719Y256240D01*
X521715Y256207D01*
Y256182D01*
X521711Y256162D01*
Y256145D01*
Y256137D01*
Y256133D01*
X521715Y256051D01*
X521727Y255973D01*
X521743Y255895D01*
X521764Y255825D01*
X521793Y255760D01*
X521821Y255694D01*
X521854Y255637D01*
X521887Y255584D01*
X521916Y255534D01*
X521948Y255493D01*
X521977Y255456D01*
X522006Y255428D01*
X522026Y255403D01*
X522043Y255387D01*
X522055Y255375D01*
X522059Y255370D01*
X522108Y255329D01*
X522166Y255293D01*
X522231Y255256D01*
X522297Y255219D01*
X522440Y255157D01*
X522584Y255100D01*
X522650Y255079D01*
X522711Y255059D01*
X522768Y255038D01*
X522822Y255026D01*
X522863Y255014D01*
X522892Y255006D01*
X522912Y254997D01*
X522920D01*
X523006Y254977D01*
X523084Y254956D01*
X523154Y254940D01*
X523215Y254924D01*
X523273Y254907D01*
X523322Y254895D01*
X523367Y254883D01*
X523404Y254870D01*
X523437Y254862D01*
X523461Y254854D01*
X523486Y254846D01*
X523502Y254841D01*
X523515Y254837D01*
X523523D01*
X523531Y254833D01*
X523601Y254805D01*
X523658Y254780D01*
X523703Y254751D01*
X523744Y254727D01*
X523769Y254702D01*
X523789Y254686D01*
X523802Y254673D01*
X523806Y254669D01*
X523835Y254632D01*
X523855Y254595D01*
X523867Y254555D01*
X523880Y254518D01*
X523884Y254489D01*
X523888Y254464D01*
Y254444D01*
Y254440D01*
Y254403D01*
X523880Y254366D01*
X523859Y254296D01*
X523826Y254231D01*
X523794Y254177D01*
X523761Y254136D01*
X523728Y254103D01*
X523707Y254083D01*
X523703Y254075D01*
X523699D01*
X523662Y254046D01*
X523621Y254022D01*
X523531Y253985D01*
X523437Y253956D01*
X523347Y253940D01*
X523265Y253927D01*
X523232Y253923D01*
X523199D01*
X523174Y253919D01*
X523138D01*
X523014Y253927D01*
X522904Y253948D01*
X522810Y253972D01*
X522727Y254005D01*
X522695Y254022D01*
X522666Y254038D01*
X522637Y254050D01*
X522617Y254063D01*
X522600Y254075D01*
X522588Y254083D01*
X522584Y254091D01*
X522580D01*
X522543Y254128D01*
X522510Y254165D01*
X522453Y254251D01*
X522404Y254345D01*
X522367Y254436D01*
X522342Y254518D01*
X522330Y254550D01*
X522322Y254583D01*
X522318Y254608D01*
X522313Y254628D01*
X522309Y254641D01*
Y254645D01*
X521567Y254571D01*
X521584Y254456D01*
X521608Y254345D01*
X521637Y254247D01*
X521670Y254153D01*
X521707Y254067D01*
X521743Y253985D01*
X521784Y253915D01*
X521826Y253849D01*
X521862Y253792D01*
X521899Y253743D01*
X521936Y253702D01*
X521965Y253665D01*
X521989Y253640D01*
X522010Y253620D01*
X522022Y253607D01*
X522026Y253603D01*
X522104Y253546D01*
X522186Y253497D01*
X522272Y253452D01*
X522363Y253415D01*
X522453Y253382D01*
X522543Y253357D01*
X522633Y253333D01*
X522723Y253316D01*
X522805Y253304D01*
X522883Y253292D01*
X522953Y253284D01*
X523010Y253279D01*
X523060D01*
X523097Y253275D01*
X521567D01*
D01*
X524650D01*
Y254444D01*
X524642Y254571D01*
X524626Y254690D01*
X524601Y254792D01*
X524589Y254837D01*
X524577Y254878D01*
X524560Y254915D01*
X524548Y254948D01*
X524536Y254977D01*
X524523Y255001D01*
X524511Y255022D01*
X524507Y255034D01*
X524499Y255042D01*
Y255047D01*
X524437Y255133D01*
X524368Y255210D01*
X524298Y255276D01*
X524232Y255333D01*
X524171Y255375D01*
X524122Y255407D01*
X524101Y255416D01*
X524089Y255424D01*
X524081Y255432D01*
X524076D01*
X524023Y255456D01*
X523966Y255485D01*
X523900Y255510D01*
X523835Y255534D01*
X523699Y255579D01*
X523564Y255621D01*
X523502Y255637D01*
X523441Y255653D01*
X523392Y255670D01*
X523343Y255682D01*
X523306Y255690D01*
X523277Y255698D01*
X523260Y255702D01*
X523252D01*
X523154Y255727D01*
X523064Y255752D01*
X522982Y255776D01*
X522908Y255801D01*
X522842Y255821D01*
X522785Y255842D01*
X522736Y255862D01*
X522695Y255879D01*
X522658Y255895D01*
X522625Y255912D01*
X522600Y255924D01*
X522584Y255936D01*
X522568Y255944D01*
X522559Y255953D01*
X522551Y255957D01*
X522514Y255994D01*
X522486Y256031D01*
X522469Y256071D01*
X522453Y256108D01*
X522445Y256137D01*
X522440Y256166D01*
Y256182D01*
Y256186D01*
X522445Y256240D01*
X522461Y256285D01*
X522477Y256326D01*
X522502Y256359D01*
X522522Y256383D01*
X522543Y256404D01*
X522555Y256416D01*
X522559Y256420D01*
X522637Y256465D01*
X522719Y256502D01*
X522810Y256527D01*
X522892Y256543D01*
X522969Y256551D01*
X523002Y256555D01*
X523031Y256559D01*
X523084D01*
X523199Y256555D01*
X523297Y256539D01*
X523379Y256518D01*
X523449Y256494D01*
X523502Y256469D01*
X523539Y256449D01*
X523560Y256432D01*
X523568Y256428D01*
X523625Y256375D01*
X523670Y256309D01*
X523707Y256240D01*
X523736Y256174D01*
X523757Y256113D01*
X523765Y256084D01*
X523773Y256059D01*
X523777Y256043D01*
Y256026D01*
X523781Y256018D01*
Y256014D01*
X524544Y256043D01*
X524536Y256137D01*
X524523Y256227D01*
X524503Y256313D01*
X524474Y256391D01*
X524445Y256465D01*
X524413Y256535D01*
X524380Y256596D01*
X524347Y256654D01*
X524310Y256703D01*
X524277Y256748D01*
X524249Y256789D01*
X524220Y256818D01*
X524195Y256842D01*
X524179Y256863D01*
X524167Y256871D01*
X524162Y256875D01*
X524093Y256932D01*
X524015Y256978D01*
X523929Y257023D01*
X523843Y257060D01*
X523757Y257088D01*
X523666Y257113D01*
X523576Y257133D01*
X523494Y257150D01*
X523412Y257166D01*
X523334Y257174D01*
X523269Y257183D01*
X523207Y257187D01*
X523162Y257191D01*
D02*
G37*
%LPD*%
G36*
X527582Y254017D02*
X526139D01*
X526188Y254087D01*
X526213Y254120D01*
X526233Y254153D01*
X526254Y254177D01*
X526270Y254198D01*
X526282Y254210D01*
X526286Y254214D01*
X526307Y254235D01*
X526331Y254263D01*
X526360Y254292D01*
X526393Y254325D01*
X526463Y254395D01*
X526536Y254464D01*
X526606Y254530D01*
X526639Y254559D01*
X526668Y254583D01*
X526688Y254604D01*
X526705Y254620D01*
X526717Y254628D01*
X526721Y254632D01*
X526782Y254690D01*
X526840Y254743D01*
X526893Y254796D01*
X526942Y254841D01*
X526983Y254887D01*
X527024Y254924D01*
X527057Y254960D01*
X527090Y254993D01*
X527135Y255047D01*
X527172Y255083D01*
X527188Y255108D01*
X527197Y255116D01*
X527266Y255210D01*
X527328Y255301D01*
X527377Y255383D01*
X527418Y255452D01*
X527447Y255514D01*
X527459Y255539D01*
X527471Y255559D01*
X527479Y255575D01*
X527484Y255592D01*
X527488Y255596D01*
Y255600D01*
X527520Y255686D01*
X527541Y255772D01*
X527557Y255854D01*
X527570Y255932D01*
X527578Y255994D01*
Y256022D01*
X527582Y256043D01*
Y254017D01*
D02*
G37*
G36*
X524650Y253275D02*
X523219D01*
X523306Y253279D01*
X523392Y253288D01*
X523465Y253296D01*
X523539Y253308D01*
X523609Y253316D01*
X523670Y253329D01*
X523728Y253345D01*
X523777Y253357D01*
X523822Y253370D01*
X523863Y253378D01*
X523896Y253390D01*
X523921Y253398D01*
X523937Y253407D01*
X523949Y253411D01*
X523953D01*
X524072Y253468D01*
X524175Y253534D01*
X524261Y253607D01*
X524335Y253673D01*
X524392Y253734D01*
X524413Y253763D01*
X524433Y253788D01*
X524445Y253804D01*
X524458Y253821D01*
X524466Y253829D01*
Y253833D01*
X524499Y253886D01*
X524527Y253944D01*
X524573Y254050D01*
X524605Y254153D01*
X524626Y254247D01*
X524634Y254288D01*
X524642Y254325D01*
X524646Y254362D01*
Y254391D01*
X524650Y254411D01*
Y253275D01*
D02*
G37*
%LPC*%
G36*
X529951Y219612D02*
X526749D01*
Y218678D01*
X528171Y217370D01*
X526749D01*
Y216725D01*
X529951D01*
Y219612D01*
D02*
G37*
G36*
Y216256D02*
X526777D01*
Y214004D01*
X529951D01*
Y216256D01*
D02*
G37*
G36*
X530007Y213432D02*
X526697D01*
D01*
X528969D01*
X528775Y212804D01*
X528838Y212786D01*
X528900Y212769D01*
X528956Y212748D01*
X529004Y212727D01*
X529053Y212703D01*
X529094Y212682D01*
X529133Y212658D01*
X529167Y212637D01*
X529195Y212616D01*
X529223Y212595D01*
X529244Y212578D01*
X529261Y212564D01*
X529275Y212550D01*
X529285Y212540D01*
X529289Y212536D01*
X529292Y212533D01*
X529320Y212498D01*
X529344Y212460D01*
X529386Y212387D01*
X529414Y212314D01*
X529434Y212245D01*
X529445Y212182D01*
X529452Y212158D01*
Y212134D01*
X529455Y212117D01*
Y212092D01*
X529452Y212030D01*
X529445Y211967D01*
X529431Y211908D01*
X529414Y211856D01*
X529396Y211804D01*
X529376Y211759D01*
X529351Y211714D01*
X529327Y211676D01*
X529303Y211641D01*
X529278Y211610D01*
X529257Y211586D01*
X529240Y211561D01*
X529223Y211547D01*
X529209Y211533D01*
X529202Y211527D01*
X529199Y211523D01*
X529146Y211485D01*
X529087Y211454D01*
X529025Y211422D01*
X528956Y211398D01*
X528883Y211377D01*
X528813Y211360D01*
X528671Y211336D01*
X528602Y211325D01*
X528539Y211318D01*
X528484Y211315D01*
X528432Y211311D01*
X528394Y211308D01*
X528362D01*
X528341D01*
X528335D01*
X528230Y211311D01*
X528133Y211318D01*
X528047Y211329D01*
X527963Y211343D01*
X527887Y211360D01*
X527821Y211377D01*
X527759Y211398D01*
X527706Y211419D01*
X527658Y211436D01*
X527616Y211457D01*
X527582Y211474D01*
X527554Y211492D01*
X527533Y211506D01*
X527516Y211516D01*
X527509Y211523D01*
X527505Y211527D01*
X527460Y211568D01*
X527422Y211617D01*
X527387Y211662D01*
X527356Y211711D01*
X527332Y211759D01*
X527311Y211808D01*
X527293Y211856D01*
X527280Y211901D01*
X527269Y211943D01*
X527262Y211981D01*
X527255Y212016D01*
X527252Y212047D01*
X527248Y212071D01*
Y212106D01*
X527255Y212200D01*
X527273Y212283D01*
X527293Y212356D01*
X527321Y212422D01*
X527349Y212474D01*
X527359Y212495D01*
X527370Y212512D01*
X527380Y212526D01*
X527387Y212536D01*
X527391Y212540D01*
X527394Y212543D01*
X527453Y212606D01*
X527516Y212658D01*
X527582Y212699D01*
X527644Y212731D01*
X527700Y212755D01*
X527724Y212765D01*
X527745Y212772D01*
X527762Y212776D01*
X527776Y212779D01*
X527783Y212783D01*
X527786D01*
X527634Y213421D01*
X527564Y213400D01*
X527498Y213376D01*
X527439Y213348D01*
X527380Y213324D01*
X527328Y213296D01*
X527280Y213268D01*
X527238Y213241D01*
X527196Y213216D01*
X527162Y213189D01*
X527130Y213168D01*
X527106Y213147D01*
X527085Y213126D01*
X527068Y213112D01*
X527058Y213102D01*
X527051Y213095D01*
X527047Y213092D01*
X526985Y213019D01*
X526933Y212946D01*
X526884Y212866D01*
X526846Y212786D01*
X526811Y212706D01*
X526783Y212627D01*
X526759Y212550D01*
X526742Y212477D01*
X526724Y212408D01*
X526714Y212342D01*
X526707Y212283D01*
X526704Y212234D01*
X526700Y212193D01*
X526697Y212165D01*
Y212137D01*
X526700Y212016D01*
X526714Y211898D01*
X526738Y211787D01*
X526766Y211683D01*
X526801Y211586D01*
X526835Y211499D01*
X526877Y211416D01*
X526919Y211343D01*
X526960Y211277D01*
X526999Y211218D01*
X527037Y211169D01*
X527071Y211127D01*
X527099Y211093D01*
X527120Y211072D01*
X527137Y211055D01*
X527141Y211051D01*
X527228Y210978D01*
X527321Y210916D01*
X527418Y210860D01*
X527519Y210815D01*
X527623Y210774D01*
X527727Y210742D01*
X527828Y210715D01*
X527928Y210694D01*
X528019Y210676D01*
X528105Y210663D01*
X528185Y210656D01*
X528251Y210649D01*
X528307Y210645D01*
X528328Y210642D01*
X528383D01*
X528522Y210645D01*
X528650Y210659D01*
X528772Y210680D01*
X528886Y210704D01*
X528994Y210735D01*
X529091Y210770D01*
X529181Y210808D01*
X529261Y210846D01*
X529334Y210885D01*
X529396Y210923D01*
X529448Y210958D01*
X529494Y210989D01*
X529528Y211013D01*
X529553Y211034D01*
X529570Y211048D01*
X529573Y211051D01*
X529650Y211131D01*
X529716Y211214D01*
X529775Y211301D01*
X529823Y211388D01*
X529865Y211474D01*
X529900Y211561D01*
X529931Y211648D01*
X529951Y211728D01*
X529972Y211804D01*
X529983Y211877D01*
X529993Y211940D01*
X530000Y211992D01*
X530004Y212037D01*
X530007Y212071D01*
Y210978D01*
Y212099D01*
X530004Y212193D01*
X529997Y212283D01*
X529983Y212370D01*
X529969Y212450D01*
X529948Y212526D01*
X529927Y212595D01*
X529903Y212661D01*
X529879Y212717D01*
X529858Y212772D01*
X529834Y212817D01*
X529813Y212856D01*
X529792Y212890D01*
X529778Y212915D01*
X529764Y212935D01*
X529757Y212946D01*
X529754Y212949D01*
X529702Y213012D01*
X529646Y213067D01*
X529587Y213119D01*
X529521Y213168D01*
X529459Y213210D01*
X529393Y213251D01*
X529327Y213286D01*
X529264Y213317D01*
X529206Y213345D01*
X529150Y213369D01*
X529098Y213387D01*
X529056Y213404D01*
X529018Y213418D01*
X528994Y213425D01*
X528976Y213432D01*
X530007D01*
D01*
D02*
G37*
%LPD*%
G36*
X527994Y218338D02*
X526749Y219549D01*
Y219612D01*
X529951D01*
X527994Y218338D01*
D02*
G37*
G36*
X529951Y217370D02*
X528987D01*
X528449Y217891D01*
X529951Y218775D01*
Y217370D01*
D02*
G37*
G36*
X529410Y214650D02*
X526777D01*
Y216256D01*
X529410D01*
Y214650D01*
D02*
G37*
%LPC*%
G36*
X627190Y234919D02*
X623987D01*
Y233416D01*
Y234273D01*
X625323D01*
Y234065D01*
X625316Y233999D01*
X625313Y233944D01*
X625306Y233898D01*
X625299Y233864D01*
X625292Y233839D01*
X625289Y233822D01*
X625285Y233819D01*
X625271Y233780D01*
X625250Y233746D01*
X625230Y233711D01*
X625205Y233683D01*
X625185Y233659D01*
X625171Y233638D01*
X625157Y233628D01*
X625153Y233624D01*
X625133Y233603D01*
X625105Y233583D01*
X625074Y233558D01*
X625039Y233530D01*
X624963Y233475D01*
X624883Y233416D01*
X624806Y233364D01*
X624775Y233340D01*
X624744Y233322D01*
X624720Y233305D01*
X624702Y233291D01*
X624688Y233284D01*
X624685Y233281D01*
X623987Y232812D01*
Y232868D01*
Y232038D01*
X624609Y232431D01*
X624678Y232472D01*
X624737Y232514D01*
X624796Y232552D01*
X624848Y232587D01*
X624897Y232618D01*
X624938Y232649D01*
X624976Y232677D01*
X625011Y232701D01*
X625039Y232722D01*
X625063Y232743D01*
X625084Y232760D01*
X625101Y232774D01*
X625112Y232785D01*
X625122Y232791D01*
X625129Y232798D01*
X625181Y232850D01*
X625233Y232909D01*
X625278Y232968D01*
X625316Y233024D01*
X625351Y233072D01*
X625376Y233111D01*
X625386Y233125D01*
X625389Y233135D01*
X625396Y233142D01*
Y233145D01*
X625410Y233069D01*
X625427Y232996D01*
X625448Y232930D01*
X625469Y232868D01*
X625493Y232809D01*
X625518Y232757D01*
X625542Y232712D01*
X625570Y232670D01*
X625594Y232632D01*
X625618Y232601D01*
X625639Y232573D01*
X625657Y232548D01*
X625674Y232531D01*
X625684Y232521D01*
X625691Y232514D01*
X625695Y232510D01*
X625740Y232472D01*
X625788Y232441D01*
X625837Y232413D01*
X625889Y232389D01*
X625938Y232368D01*
X625986Y232351D01*
X626083Y232327D01*
X626125Y232316D01*
X626167Y232309D01*
X626201Y232306D01*
X626232Y232302D01*
X626257Y232299D01*
X626274D01*
X626288D01*
X626292D01*
X626396Y232306D01*
X626489Y232319D01*
X626576Y232344D01*
X626649Y232368D01*
X626680Y232382D01*
X626711Y232396D01*
X626736Y232406D01*
X626756Y232420D01*
X626774Y232427D01*
X626784Y232434D01*
X626791Y232441D01*
X626795D01*
X626871Y232497D01*
X626937Y232559D01*
X626989Y232618D01*
X627034Y232677D01*
X627065Y232733D01*
X627076Y232753D01*
X627086Y232774D01*
X627093Y232791D01*
X627100Y232802D01*
X627104Y232809D01*
Y232812D01*
X627117Y232857D01*
X627131Y232909D01*
X627145Y232968D01*
X627152Y233027D01*
X627169Y233149D01*
X627180Y233274D01*
X627183Y233329D01*
X627187Y233385D01*
Y233433D01*
X627190Y233475D01*
Y234919D01*
D02*
G37*
G36*
Y232014D02*
D01*
Y231910D01*
X625653Y230904D01*
X623987Y232014D01*
Y231240D01*
X625074Y230525D01*
X623987Y229814D01*
Y229037D01*
X625657Y230140D01*
X627190Y229134D01*
Y229037D01*
Y232014D01*
D02*
G37*
%LPD*%
G36*
X626649Y233579D02*
X626646Y233530D01*
Y233447D01*
X626642Y233413D01*
Y233361D01*
X626639Y233343D01*
Y233315D01*
X626635Y233301D01*
Y233298D01*
X626621Y233243D01*
X626604Y233190D01*
X626586Y233149D01*
X626562Y233114D01*
X626545Y233086D01*
X626528Y233069D01*
X626514Y233055D01*
X626510Y233052D01*
X626469Y233024D01*
X626427Y233003D01*
X626385Y232986D01*
X626344Y232975D01*
X626305Y232968D01*
X626278Y232965D01*
X626257D01*
X626253D01*
X626250D01*
X626198Y232968D01*
X626149Y232975D01*
X626108Y232986D01*
X626073Y232996D01*
X626045Y233010D01*
X626024Y233020D01*
X626011Y233027D01*
X626007Y233031D01*
X625972Y233059D01*
X625945Y233086D01*
X625920Y233118D01*
X625903Y233149D01*
X625889Y233173D01*
X625879Y233194D01*
X625875Y233208D01*
X625872Y233215D01*
X625865Y233239D01*
X625858Y233274D01*
X625854Y233312D01*
X625851Y233354D01*
X625844Y233447D01*
X625837Y233548D01*
Y233642D01*
X625834Y233683D01*
Y234273D01*
X626649D01*
Y233579D01*
D02*
G37*
G36*
X627190Y229884D02*
X626229Y230522D01*
X627190Y231154D01*
Y229884D01*
D02*
G37*
%LPC*%
G36*
X626987Y222789D02*
X623784D01*
Y222192D01*
X625887D01*
X623784Y220894D01*
Y220249D01*
X626987D01*
Y222789D01*
D02*
G37*
G36*
Y219565D02*
X623784D01*
Y218285D01*
X623788Y218222D01*
X623791Y218163D01*
X623795Y218111D01*
X623798Y218059D01*
X623805Y218011D01*
X623812Y217969D01*
X623819Y217931D01*
X623822Y217896D01*
X623829Y217865D01*
X623836Y217837D01*
X623840Y217816D01*
X623843Y217799D01*
X623846Y217789D01*
X623850Y217782D01*
Y217778D01*
X623888Y217677D01*
X623930Y217587D01*
X623972Y217511D01*
X624013Y217445D01*
X624030Y217417D01*
X624048Y217393D01*
X624065Y217376D01*
X624079Y217358D01*
X624089Y217344D01*
X624100Y217334D01*
X624103Y217331D01*
X624107Y217327D01*
X624193Y217247D01*
X624287Y217178D01*
X624381Y217119D01*
X624471Y217070D01*
X624513Y217049D01*
X624551Y217032D01*
X624586Y217018D01*
X624613Y217004D01*
X624638Y216997D01*
X624658Y216990D01*
X624669Y216984D01*
X624672D01*
X624783Y216949D01*
X624898Y216925D01*
X625012Y216907D01*
X625120Y216897D01*
X625169Y216890D01*
X625214Y216886D01*
X625252D01*
X625287Y216883D01*
X623784D01*
X626987D01*
Y219565D01*
D02*
G37*
%LPD*%
G36*
Y220846D02*
X624835D01*
X626987Y222164D01*
Y220846D01*
D02*
G37*
G36*
X626446Y218496D02*
X626442Y218437D01*
Y218382D01*
X626439Y218333D01*
X626435Y218288D01*
X626432Y218250D01*
Y218219D01*
X626428Y218188D01*
X626425Y218163D01*
X626421Y218143D01*
X626418Y218129D01*
Y218115D01*
X626414Y218108D01*
Y218101D01*
X626397Y218035D01*
X626373Y217976D01*
X626348Y217924D01*
X626324Y217882D01*
X626300Y217847D01*
X626279Y217820D01*
X626265Y217806D01*
X626262Y217799D01*
X626217Y217757D01*
X626168Y217719D01*
X626116Y217688D01*
X626067Y217664D01*
X626022Y217643D01*
X625984Y217625D01*
X625974Y217622D01*
X625963Y217618D01*
X625956Y217615D01*
X625953D01*
X625915Y217605D01*
X625873Y217594D01*
X625779Y217577D01*
X625686Y217566D01*
X625595Y217556D01*
X625550D01*
X625512Y217553D01*
X625477D01*
X625446Y217549D01*
X625419D01*
X625401D01*
X625387D01*
X625384D01*
X625318D01*
X625252Y217553D01*
X625193Y217556D01*
X625134Y217560D01*
X625082Y217563D01*
X625037Y217570D01*
X624992Y217577D01*
X624950Y217580D01*
X624915Y217587D01*
X624884Y217594D01*
X624860Y217601D01*
X624835Y217605D01*
X624818Y217608D01*
X624808Y217612D01*
X624801Y217615D01*
X624797D01*
X624721Y217643D01*
X624658Y217671D01*
X624607Y217698D01*
X624561Y217726D01*
X624530Y217747D01*
X624506Y217768D01*
X624492Y217782D01*
X624488Y217785D01*
X624457Y217827D01*
X624430Y217868D01*
X624405Y217914D01*
X624384Y217955D01*
X624370Y217990D01*
X624360Y218018D01*
X624357Y218038D01*
X624353Y218042D01*
Y218045D01*
X624350Y218070D01*
X624343Y218097D01*
X624336Y218156D01*
X624332Y218222D01*
X624329Y218288D01*
X624325Y218344D01*
Y218920D01*
X626446D01*
Y218496D01*
D02*
G37*
G36*
X626987Y216883D02*
X625436D01*
X625516Y216886D01*
X625589Y216893D01*
X625661Y216900D01*
X625727Y216907D01*
X625790Y216918D01*
X625849Y216928D01*
X625901Y216935D01*
X625946Y216945D01*
X625987Y216956D01*
X626026Y216966D01*
X626053Y216973D01*
X626078Y216980D01*
X626095Y216987D01*
X626105Y216990D01*
X626109D01*
X626220Y217032D01*
X626321Y217081D01*
X626411Y217133D01*
X626449Y217157D01*
X626484Y217181D01*
X626518Y217206D01*
X626546Y217226D01*
X626571Y217247D01*
X626591Y217261D01*
X626609Y217275D01*
X626619Y217285D01*
X626626Y217292D01*
X626629Y217296D01*
X626702Y217376D01*
X626765Y217455D01*
X626817Y217535D01*
X626855Y217612D01*
X626886Y217677D01*
X626900Y217705D01*
X626907Y217730D01*
X626914Y217750D01*
X626921Y217764D01*
X626924Y217775D01*
Y217778D01*
X626935Y217820D01*
X626945Y217865D01*
X626959Y217962D01*
X626973Y218063D01*
X626980Y218160D01*
X626983Y218205D01*
Y218285D01*
X626987Y218320D01*
Y216883D01*
D02*
G37*
%LPC*%
G36*
X627242Y244090D02*
X624039D01*
X626701D01*
Y243139D01*
X624039D01*
Y242494D01*
X626701D01*
Y241550D01*
X627242D01*
Y244090D01*
D02*
G37*
G36*
Y241460D02*
Y241355D01*
X625705Y240349D01*
X624039Y241460D01*
Y240349D01*
Y240686D01*
X625125Y239971D01*
X624039Y239260D01*
Y238482D01*
X625708Y239586D01*
X627242Y238580D01*
Y238482D01*
Y241460D01*
D02*
G37*
%LPD*%
G36*
Y239329D02*
X626281Y239967D01*
X627242Y240599D01*
Y239329D01*
D02*
G37*
%LPC*%
G36*
X519314Y278849D02*
D01*
Y278060D01*
X519311Y278115D01*
X519308Y278171D01*
X519300Y278220D01*
X519292Y278268D01*
X519280Y278312D01*
X519267Y278353D01*
X519253Y278389D01*
X519239Y278425D01*
X519225Y278456D01*
X519211Y278481D01*
X519200Y278506D01*
X519186Y278525D01*
X519178Y278539D01*
X519170Y278550D01*
X519167Y278556D01*
X519164Y278558D01*
X519136Y278594D01*
X519106Y278625D01*
X519075Y278653D01*
X519042Y278680D01*
X518981Y278725D01*
X518923Y278758D01*
X518873Y278783D01*
X518851Y278791D01*
X518832Y278799D01*
X518818Y278805D01*
X518807Y278808D01*
X518798Y278810D01*
X518796D01*
X518765Y278816D01*
X518729Y278824D01*
X518688Y278830D01*
X518641Y278833D01*
X518591Y278835D01*
X518541Y278841D01*
X518436Y278844D01*
X518386Y278846D01*
X518341D01*
X518297Y278849D01*
X517355D01*
Y276292D01*
X519314D01*
Y278849D01*
D02*
G37*
G36*
X529053Y278891D02*
D01*
Y277564D01*
X529050Y277677D01*
X529039Y277785D01*
X529023Y277885D01*
X529000Y277979D01*
X528975Y278065D01*
X528945Y278146D01*
X528914Y278220D01*
X528884Y278284D01*
X528851Y278345D01*
X528820Y278395D01*
X528793Y278439D01*
X528765Y278475D01*
X528743Y278503D01*
X528726Y278522D01*
X528715Y278536D01*
X528712Y278539D01*
X528646Y278600D01*
X528577Y278655D01*
X528505Y278702D01*
X528430Y278741D01*
X528352Y278777D01*
X528277Y278805D01*
X528205Y278827D01*
X528133Y278846D01*
X528067Y278860D01*
X528006Y278871D01*
X527951Y278880D01*
X527904Y278885D01*
X527865Y278888D01*
X527834Y278891D01*
X527809D01*
X527696Y278885D01*
X527591Y278874D01*
X527543Y278866D01*
X527496Y278857D01*
X527455Y278849D01*
X527416Y278841D01*
X527380Y278830D01*
X527350Y278821D01*
X527322Y278813D01*
X527300Y278805D01*
X527283Y278797D01*
X527269Y278794D01*
X527261Y278788D01*
X527258D01*
X527192Y278758D01*
X527131Y278722D01*
X527072Y278683D01*
X527025Y278644D01*
X526984Y278611D01*
X526967Y278597D01*
X526953Y278583D01*
X526942Y278572D01*
X526934Y278564D01*
X526929Y278561D01*
X526926Y278558D01*
X526873Y278497D01*
X526826Y278439D01*
X526784Y278378D01*
X526751Y278326D01*
X526726Y278276D01*
X526715Y278256D01*
X526707Y278240D01*
X526698Y278226D01*
X526693Y278215D01*
X526690Y278209D01*
Y278207D01*
X526671Y278157D01*
X526651Y278101D01*
X526624Y277993D01*
X526602Y277883D01*
X526596Y277830D01*
X526588Y277780D01*
X526585Y277730D01*
X526579Y277689D01*
X526577Y277650D01*
Y277617D01*
X526574Y277589D01*
Y277550D01*
X526577Y277439D01*
X526588Y277334D01*
X526604Y277234D01*
X526626Y277143D01*
X526651Y277057D01*
X526679Y276979D01*
X526710Y276907D01*
X526743Y276844D01*
X526773Y276786D01*
X526804Y276736D01*
X526831Y276691D01*
X526856Y276655D01*
X526879Y276628D01*
X526895Y276608D01*
X526906Y276597D01*
X526909Y276592D01*
X526976Y276531D01*
X527045Y276478D01*
X527117Y276431D01*
X527192Y276392D01*
X527266Y276359D01*
X527344Y276331D01*
X527416Y276306D01*
X527488Y276290D01*
X527555Y276273D01*
X527615Y276265D01*
X527674Y276256D01*
X527721Y276251D01*
X527760Y276248D01*
X527790Y276245D01*
X526574D01*
D01*
X529053D01*
Y278891D01*
D02*
G37*
G36*
X531768Y278849D02*
D01*
Y276292D01*
X530751Y277855D01*
X531718Y278849D01*
X531768D01*
X530172D01*
X531023D01*
X529978Y277713D01*
Y278849D01*
X529463D01*
Y276292D01*
X530262D01*
X529978D01*
Y277063D01*
X530394Y277492D01*
X531100Y276292D01*
X531768D01*
Y278849D01*
D02*
G37*
G36*
X525408D02*
D01*
Y276292D01*
X525095Y276788D01*
X525062Y276844D01*
X525028Y276891D01*
X524998Y276938D01*
X524970Y276979D01*
X524945Y277018D01*
X524920Y277051D01*
X524898Y277082D01*
X524879Y277110D01*
X524862Y277132D01*
X524845Y277151D01*
X524832Y277168D01*
X524821Y277182D01*
X524812Y277190D01*
X524807Y277198D01*
X524801Y277204D01*
X524760Y277245D01*
X524713Y277287D01*
X524665Y277323D01*
X524621Y277353D01*
X524582Y277381D01*
X524552Y277400D01*
X524541Y277409D01*
X524532Y277412D01*
X524527Y277417D01*
X524524D01*
X524585Y277428D01*
X524643Y277442D01*
X524696Y277459D01*
X524746Y277475D01*
X524793Y277495D01*
X524834Y277514D01*
X524870Y277534D01*
X524904Y277556D01*
X524934Y277575D01*
X524959Y277594D01*
X524981Y277611D01*
X525000Y277625D01*
X525014Y277639D01*
X525023Y277647D01*
X525028Y277653D01*
X525031Y277655D01*
X525062Y277691D01*
X525086Y277730D01*
X525109Y277769D01*
X525128Y277811D01*
X525145Y277849D01*
X525158Y277888D01*
X525178Y277966D01*
X525186Y277999D01*
X525192Y278032D01*
X525194Y278060D01*
X525197Y278085D01*
X525200Y278104D01*
Y278118D01*
Y278129D01*
Y278132D01*
X525194Y278215D01*
X525183Y278290D01*
X525164Y278359D01*
X525145Y278417D01*
X525134Y278442D01*
X525122Y278467D01*
X525114Y278486D01*
X525103Y278503D01*
X525098Y278517D01*
X525092Y278525D01*
X525086Y278531D01*
Y278533D01*
X525042Y278594D01*
X524992Y278647D01*
X524945Y278689D01*
X524898Y278725D01*
X524854Y278749D01*
X524837Y278758D01*
X524821Y278766D01*
X524807Y278772D01*
X524798Y278777D01*
X524793Y278780D01*
X524790D01*
X524754Y278791D01*
X524713Y278802D01*
X524665Y278813D01*
X524618Y278819D01*
X524521Y278833D01*
X524422Y278841D01*
X524377Y278844D01*
X524333Y278846D01*
X524294D01*
X524261Y278849D01*
X523109D01*
Y276292D01*
X525408D01*
Y278849D01*
D02*
G37*
G36*
X522837D02*
D01*
Y276292D01*
X522225D01*
X522837Y278849D01*
X522316D01*
X521929Y277063D01*
X521485Y278849D01*
X520868D01*
X520400Y277090D01*
X520017Y278849D01*
X519488D01*
D01*
X520092Y276292D01*
X519488D01*
D01*
X522837D01*
Y278849D01*
D02*
G37*
%LPD*%
G36*
X518258Y278414D02*
X518294D01*
X518328Y278412D01*
X518358D01*
X518386Y278409D01*
X518411D01*
X518430Y278406D01*
X518447Y278403D01*
X518461D01*
X518472Y278400D01*
X518485Y278398D01*
X518491D01*
X518535Y278387D01*
X518577Y278370D01*
X518613Y278353D01*
X518641Y278334D01*
X518666Y278315D01*
X518685Y278298D01*
X518696Y278287D01*
X518699Y278284D01*
X518726Y278248D01*
X518746Y278209D01*
X518762Y278171D01*
X518771Y278134D01*
X518776Y278104D01*
X518782Y278076D01*
Y278060D01*
Y278057D01*
Y278054D01*
X518779Y278013D01*
X518774Y277974D01*
X518762Y277941D01*
X518751Y277913D01*
X518740Y277888D01*
X518729Y277871D01*
X518724Y277857D01*
X518721Y277855D01*
X518699Y277824D01*
X518671Y277799D01*
X518643Y277777D01*
X518618Y277758D01*
X518596Y277744D01*
X518577Y277736D01*
X518566Y277730D01*
X518560Y277727D01*
X518538Y277722D01*
X518513Y277713D01*
X518485Y277711D01*
X518452Y277705D01*
X518386Y277697D01*
X518319Y277694D01*
X518256Y277691D01*
X518228Y277689D01*
X517871D01*
Y278417D01*
X518217D01*
X518258Y278414D01*
D02*
G37*
G36*
X519314Y276292D02*
X517871D01*
Y277256D01*
X518269D01*
X518330Y277259D01*
X518386D01*
X518438Y277262D01*
X518485Y277265D01*
X518530Y277268D01*
X518571Y277270D01*
X518607Y277276D01*
X518638Y277279D01*
X518666Y277281D01*
X518690Y277284D01*
X518710Y277287D01*
X518724Y277290D01*
X518735D01*
X518740Y277292D01*
X518743D01*
X518793Y277306D01*
X518843Y277323D01*
X518887Y277342D01*
X518926Y277362D01*
X518962Y277381D01*
X518987Y277398D01*
X519003Y277409D01*
X519006Y277412D01*
X519009D01*
X519056Y277450D01*
X519100Y277492D01*
X519136Y277534D01*
X519170Y277572D01*
X519195Y277608D01*
X519211Y277639D01*
X519219Y277650D01*
X519225Y277658D01*
X519228Y277661D01*
Y277664D01*
X519256Y277727D01*
X519278Y277794D01*
X519292Y277860D01*
X519303Y277921D01*
X519305Y277952D01*
X519308Y277977D01*
X519311Y278002D01*
X519314Y278021D01*
Y276292D01*
D02*
G37*
G36*
X527873Y278448D02*
X527928Y278442D01*
X527981Y278431D01*
X528028Y278417D01*
X528075Y278400D01*
X528117Y278381D01*
X528156Y278362D01*
X528192Y278342D01*
X528222Y278320D01*
X528250Y278301D01*
X528272Y278281D01*
X528291Y278265D01*
X528308Y278251D01*
X528319Y278240D01*
X528325Y278234D01*
X528327Y278232D01*
X528361Y278190D01*
X528391Y278140D01*
X528416Y278090D01*
X528441Y278038D01*
X528457Y277985D01*
X528474Y277930D01*
X528488Y277874D01*
X528496Y277821D01*
X528505Y277772D01*
X528510Y277725D01*
X528516Y277683D01*
X528518Y277647D01*
X528521Y277617D01*
Y277594D01*
Y277580D01*
Y277575D01*
X528518Y277495D01*
X528513Y277417D01*
X528502Y277348D01*
X528491Y277281D01*
X528474Y277223D01*
X528457Y277168D01*
X528441Y277118D01*
X528421Y277074D01*
X528402Y277035D01*
X528385Y277002D01*
X528369Y276971D01*
X528352Y276949D01*
X528341Y276930D01*
X528330Y276919D01*
X528325Y276910D01*
X528322Y276907D01*
X528283Y276869D01*
X528241Y276835D01*
X528200Y276805D01*
X528158Y276780D01*
X528117Y276758D01*
X528073Y276741D01*
X528034Y276725D01*
X527995Y276713D01*
X527956Y276705D01*
X527923Y276697D01*
X527892Y276691D01*
X527868Y276689D01*
X527845D01*
X527829Y276686D01*
X527815D01*
X527760Y276689D01*
X527704Y276697D01*
X527651Y276708D01*
X527604Y276722D01*
X527560Y276739D01*
X527519Y276758D01*
X527480Y276777D01*
X527444Y276799D01*
X527413Y276819D01*
X527386Y276838D01*
X527361Y276858D01*
X527341Y276874D01*
X527325Y276891D01*
X527314Y276902D01*
X527308Y276907D01*
X527305Y276910D01*
X527269Y276955D01*
X527239Y277004D01*
X527214Y277054D01*
X527189Y277107D01*
X527169Y277162D01*
X527156Y277218D01*
X527142Y277270D01*
X527131Y277323D01*
X527122Y277373D01*
X527117Y277420D01*
X527111Y277461D01*
X527108Y277497D01*
Y277528D01*
X527106Y277550D01*
Y277564D01*
Y277570D01*
X527108Y277650D01*
X527114Y277725D01*
X527122Y277794D01*
X527136Y277857D01*
X527150Y277919D01*
X527167Y277971D01*
X527186Y278021D01*
X527203Y278065D01*
X527222Y278104D01*
X527239Y278137D01*
X527255Y278165D01*
X527269Y278187D01*
X527283Y278207D01*
X527291Y278218D01*
X527297Y278226D01*
X527300Y278229D01*
X527338Y278268D01*
X527377Y278301D01*
X527422Y278331D01*
X527463Y278356D01*
X527507Y278378D01*
X527549Y278398D01*
X527591Y278412D01*
X527632Y278423D01*
X527668Y278431D01*
X527704Y278439D01*
X527735Y278445D01*
X527762Y278448D01*
X527784Y278450D01*
X527815D01*
X527873Y278448D01*
D02*
G37*
G36*
X529053Y276245D02*
X527815D01*
X527917Y276248D01*
X528017Y276259D01*
X528109Y276279D01*
X528194Y276301D01*
X528275Y276326D01*
X528349Y276356D01*
X528416Y276387D01*
X528477Y276420D01*
X528532Y276453D01*
X528579Y276484D01*
X528621Y276514D01*
X528654Y276539D01*
X528682Y276561D01*
X528698Y276581D01*
X528712Y276592D01*
X528715Y276594D01*
X528776Y276664D01*
X528826Y276736D01*
X528873Y276813D01*
X528912Y276894D01*
X528942Y276974D01*
X528970Y277054D01*
X528992Y277135D01*
X529011Y277209D01*
X529025Y277281D01*
X529036Y277351D01*
X529042Y277409D01*
X529047Y277461D01*
X529050Y277506D01*
X529053Y277522D01*
Y276245D01*
D02*
G37*
G36*
X524217Y278414D02*
X524283D01*
X524311Y278412D01*
X524352D01*
X524366Y278409D01*
X524388D01*
X524399Y278406D01*
X524402D01*
X524446Y278395D01*
X524488Y278381D01*
X524521Y278367D01*
X524549Y278348D01*
X524571Y278334D01*
X524585Y278320D01*
X524596Y278309D01*
X524599Y278306D01*
X524621Y278273D01*
X524638Y278240D01*
X524651Y278207D01*
X524660Y278173D01*
X524665Y278143D01*
X524668Y278121D01*
Y278104D01*
Y278101D01*
Y278099D01*
X524665Y278057D01*
X524660Y278018D01*
X524651Y277985D01*
X524643Y277957D01*
X524632Y277935D01*
X524624Y277919D01*
X524618Y277907D01*
X524615Y277905D01*
X524593Y277877D01*
X524571Y277855D01*
X524546Y277835D01*
X524521Y277821D01*
X524502Y277811D01*
X524485Y277802D01*
X524474Y277799D01*
X524469Y277797D01*
X524449Y277791D01*
X524422Y277785D01*
X524391Y277783D01*
X524358Y277780D01*
X524283Y277774D01*
X524203Y277769D01*
X524128D01*
X524095Y277766D01*
X523624D01*
Y278417D01*
X524178D01*
X524217Y278414D01*
D02*
G37*
G36*
X523843Y277353D02*
X523887Y277351D01*
X523923Y277345D01*
X523951Y277340D01*
X523970Y277334D01*
X523984Y277331D01*
X523987Y277328D01*
X524017Y277317D01*
X524045Y277301D01*
X524073Y277284D01*
X524095Y277265D01*
X524114Y277248D01*
X524131Y277237D01*
X524139Y277226D01*
X524142Y277223D01*
X524158Y277207D01*
X524175Y277184D01*
X524194Y277160D01*
X524217Y277132D01*
X524261Y277071D01*
X524308Y277007D01*
X524350Y276946D01*
X524369Y276921D01*
X524383Y276896D01*
X524397Y276877D01*
X524408Y276863D01*
X524413Y276852D01*
X524416Y276849D01*
X524790Y276292D01*
X523624D01*
Y277359D01*
X523790D01*
X523843Y277353D01*
D02*
G37*
G36*
X521668Y276292D02*
X520654D01*
X521164Y278204D01*
X521668Y276292D01*
D02*
G37*
%LPC*%
G36*
X522979Y246001D02*
X521384D01*
Y242086D01*
D01*
Y246001D01*
X522910D01*
X522750Y245997D01*
X522680Y245989D01*
X522606Y245981D01*
X522541Y245968D01*
X522479Y245960D01*
X522426Y245948D01*
X522373Y245936D01*
X522323Y245919D01*
X522282Y245907D01*
X522250Y245899D01*
X522217Y245886D01*
X522196Y245878D01*
X522176Y245870D01*
X522168Y245866D01*
X522163D01*
X522057Y245813D01*
X521958Y245751D01*
X521881Y245690D01*
X521811Y245628D01*
X521762Y245571D01*
X521721Y245526D01*
X521708Y245509D01*
X521700Y245497D01*
X521692Y245489D01*
Y245485D01*
X521639Y245390D01*
X521598Y245296D01*
X521569Y245202D01*
X521549Y245120D01*
X521536Y245050D01*
X521532Y245017D01*
Y244993D01*
X521528Y244972D01*
Y244956D01*
Y244948D01*
Y244943D01*
X521532Y244861D01*
X521544Y244783D01*
X521561Y244706D01*
X521581Y244636D01*
X521610Y244570D01*
X521639Y244505D01*
X521671Y244447D01*
X521704Y244394D01*
X521733Y244345D01*
X521766Y244304D01*
X521795Y244267D01*
X521823Y244238D01*
X521844Y244214D01*
X521860Y244197D01*
X521872Y244185D01*
X521876Y244181D01*
X521926Y244140D01*
X521983Y244103D01*
X522049Y244066D01*
X522114Y244029D01*
X522258Y243968D01*
X522401Y243910D01*
X522467Y243890D01*
X522528Y243869D01*
X522586Y243849D01*
X522639Y243836D01*
X522680Y243824D01*
X522709Y243816D01*
X522729Y243808D01*
X522738D01*
X522824Y243787D01*
X522901Y243767D01*
X522971Y243750D01*
X523033Y243734D01*
X523090Y243718D01*
X523139Y243705D01*
X523184Y243693D01*
X523221Y243681D01*
X523254Y243672D01*
X523279Y243664D01*
X523303Y243656D01*
X523320Y243652D01*
X523332Y243648D01*
X523340D01*
X523348Y243644D01*
X523418Y243615D01*
X523476Y243590D01*
X523521Y243562D01*
X523562Y243537D01*
X523586Y243513D01*
X523607Y243496D01*
X523619Y243484D01*
X523623Y243480D01*
X523652Y243443D01*
X523672Y243406D01*
X523685Y243365D01*
X523697Y243328D01*
X523701Y243299D01*
X523705Y243275D01*
Y243254D01*
Y243250D01*
Y243213D01*
X523697Y243176D01*
X523676Y243107D01*
X523644Y243041D01*
X523611Y242988D01*
X523578Y242947D01*
X523545Y242914D01*
X523525Y242893D01*
X523521Y242885D01*
X523517D01*
X523480Y242857D01*
X523439Y242832D01*
X523348Y242795D01*
X523254Y242766D01*
X523164Y242750D01*
X523082Y242738D01*
X523049Y242734D01*
X523016D01*
X522992Y242729D01*
X522955D01*
X522832Y242738D01*
X522721Y242758D01*
X522627Y242783D01*
X522545Y242815D01*
X522512Y242832D01*
X522483Y242848D01*
X522455Y242861D01*
X522434Y242873D01*
X522418Y242885D01*
X522405Y242893D01*
X522401Y242902D01*
X522397D01*
X522360Y242938D01*
X522328Y242975D01*
X522270Y243061D01*
X522221Y243156D01*
X522184Y243246D01*
X522159Y243328D01*
X522147Y243361D01*
X522139Y243394D01*
X522135Y243418D01*
X522131Y243439D01*
X522127Y243451D01*
Y243455D01*
X521384Y243381D01*
X521401Y243267D01*
X521425Y243156D01*
X521454Y243057D01*
X521487Y242963D01*
X521524Y242877D01*
X521561Y242795D01*
X521602Y242725D01*
X521643Y242660D01*
X521680Y242602D01*
X521717Y242553D01*
X521754Y242512D01*
X521782Y242475D01*
X521807Y242451D01*
X521827Y242430D01*
X521840Y242418D01*
X521844Y242414D01*
X521922Y242356D01*
X522004Y242307D01*
X522090Y242262D01*
X522180Y242225D01*
X522270Y242192D01*
X522360Y242168D01*
X522450Y242143D01*
X522541Y242127D01*
X522623Y242114D01*
X522701Y242102D01*
X522770Y242094D01*
X522828Y242090D01*
X522877D01*
X522914Y242086D01*
X521384D01*
X523037D01*
X523123Y242090D01*
X523209Y242098D01*
X523283Y242106D01*
X523357Y242119D01*
X523426Y242127D01*
X523488Y242139D01*
X523545Y242155D01*
X523594Y242168D01*
X523639Y242180D01*
X523680Y242188D01*
X523713Y242200D01*
X523738Y242209D01*
X523754Y242217D01*
X523767Y242221D01*
X523771D01*
X523890Y242278D01*
X523992Y242344D01*
X524078Y242418D01*
X524152Y242483D01*
X524209Y242545D01*
X524230Y242574D01*
X524250Y242598D01*
X524263Y242615D01*
X524275Y242631D01*
X524283Y242639D01*
Y242643D01*
X524316Y242697D01*
X524345Y242754D01*
X524390Y242861D01*
X524423Y242963D01*
X524443Y243057D01*
X524451Y243098D01*
X524460Y243135D01*
X524464Y243172D01*
Y243201D01*
X524468Y243221D01*
Y243254D01*
X524460Y243381D01*
X524443Y243500D01*
X524418Y243603D01*
X524406Y243648D01*
X524394Y243689D01*
X524377Y243726D01*
X524365Y243759D01*
X524353Y243787D01*
X524341Y243812D01*
X524328Y243832D01*
X524324Y243845D01*
X524316Y243853D01*
Y243857D01*
X524255Y243943D01*
X524185Y244021D01*
X524115Y244087D01*
X524050Y244144D01*
X523988Y244185D01*
X523939Y244218D01*
X523918Y244226D01*
X523906Y244234D01*
X523898Y244242D01*
X523894D01*
X523840Y244267D01*
X523783Y244296D01*
X523717Y244320D01*
X523652Y244345D01*
X523517Y244390D01*
X523381Y244431D01*
X523320Y244447D01*
X523258Y244464D01*
X523209Y244480D01*
X523160Y244492D01*
X523123Y244501D01*
X523094Y244509D01*
X523078Y244513D01*
X523070D01*
X522971Y244537D01*
X522881Y244562D01*
X522799Y244587D01*
X522725Y244611D01*
X522660Y244632D01*
X522602Y244652D01*
X522553Y244673D01*
X522512Y244689D01*
X522475Y244706D01*
X522442Y244722D01*
X522418Y244734D01*
X522401Y244747D01*
X522385Y244755D01*
X522377Y244763D01*
X522368Y244767D01*
X522332Y244804D01*
X522303Y244841D01*
X522287Y244882D01*
X522270Y244919D01*
X522262Y244948D01*
X522258Y244976D01*
Y244993D01*
Y244997D01*
X522262Y245050D01*
X522278Y245095D01*
X522295Y245136D01*
X522319Y245169D01*
X522340Y245194D01*
X522360Y245214D01*
X522373Y245226D01*
X522377Y245230D01*
X522455Y245275D01*
X522537Y245312D01*
X522627Y245337D01*
X522709Y245353D01*
X522787Y245362D01*
X522820Y245366D01*
X522848Y245370D01*
X522901D01*
X523016Y245366D01*
X523115Y245349D01*
X523197Y245329D01*
X523266Y245304D01*
X523320Y245280D01*
X523357Y245259D01*
X523377Y245243D01*
X523385Y245239D01*
X523443Y245185D01*
X523488Y245120D01*
X523525Y245050D01*
X523553Y244984D01*
X523574Y244923D01*
X523582Y244894D01*
X523590Y244870D01*
X523594Y244853D01*
Y244837D01*
X523598Y244829D01*
Y244825D01*
X524361Y244853D01*
X524353Y244948D01*
X524341Y245038D01*
X524320Y245124D01*
X524291Y245202D01*
X524263Y245275D01*
X524230Y245345D01*
X524197Y245407D01*
X524164Y245464D01*
X524127Y245513D01*
X524095Y245558D01*
X524066Y245599D01*
X524037Y245628D01*
X524013Y245653D01*
X523996Y245673D01*
X523984Y245681D01*
X523980Y245686D01*
X523910Y245743D01*
X523832Y245788D01*
X523746Y245833D01*
X523660Y245870D01*
X523574Y245899D01*
X523484Y245923D01*
X523393Y245944D01*
X523312Y245960D01*
X523230Y245977D01*
X523152Y245985D01*
X523086Y245993D01*
X523025Y245997D01*
X522979Y246001D01*
D02*
G37*
G36*
X526169Y245952D02*
X526145D01*
X526030Y245948D01*
X525923Y245936D01*
X525825Y245915D01*
X525743Y245895D01*
X525706Y245882D01*
X525673Y245870D01*
X525644Y245862D01*
X525620Y245854D01*
X525599Y245845D01*
X525587Y245837D01*
X525579Y245833D01*
X525575D01*
X525485Y245784D01*
X525407Y245731D01*
X525341Y245677D01*
X525288Y245624D01*
X525243Y245579D01*
X525210Y245538D01*
X525193Y245513D01*
X525185Y245509D01*
Y245505D01*
X525136Y245423D01*
X525095Y245333D01*
X525058Y245243D01*
X525029Y245152D01*
X525005Y245075D01*
X524997Y245042D01*
X524988Y245013D01*
X524984Y244988D01*
X524980Y244972D01*
X524976Y244960D01*
Y244956D01*
X525644Y244845D01*
X525661Y244931D01*
X525681Y245009D01*
X525706Y245071D01*
X525735Y245124D01*
X525763Y245165D01*
X525784Y245194D01*
X525800Y245214D01*
X525804Y245218D01*
X525858Y245263D01*
X525911Y245296D01*
X525964Y245317D01*
X526013Y245333D01*
X526058Y245341D01*
X526091Y245349D01*
X526124D01*
X526194Y245345D01*
X526255Y245333D01*
X526304Y245312D01*
X526350Y245292D01*
X526386Y245271D01*
X526411Y245251D01*
X526428Y245239D01*
X526432Y245234D01*
X526469Y245189D01*
X526497Y245140D01*
X526518Y245087D01*
X526534Y245042D01*
X526542Y244997D01*
X526546Y244964D01*
Y244939D01*
Y244935D01*
Y244931D01*
X526538Y244849D01*
X526522Y244779D01*
X526497Y244718D01*
X526469Y244665D01*
X526436Y244624D01*
X526411Y244595D01*
X526395Y244579D01*
X526386Y244570D01*
X526321Y244529D01*
X526251Y244496D01*
X526177Y244472D01*
X526104Y244460D01*
X526038Y244451D01*
X526009D01*
X525985Y244447D01*
X525936D01*
X525858Y243857D01*
X525927Y243877D01*
X525993Y243890D01*
X526046Y243902D01*
X526095Y243906D01*
X526136Y243910D01*
X526165Y243914D01*
X526190D01*
X526268Y243906D01*
X526337Y243890D01*
X526399Y243861D01*
X526452Y243832D01*
X526493Y243804D01*
X526526Y243775D01*
X526542Y243759D01*
X526550Y243750D01*
X526600Y243685D01*
X526637Y243615D01*
X526661Y243541D01*
X526682Y243472D01*
X526690Y243410D01*
X526694Y243385D01*
Y243361D01*
X526698Y243340D01*
Y243328D01*
Y243320D01*
Y243316D01*
X526690Y243213D01*
X526674Y243123D01*
X526649Y243045D01*
X526620Y242980D01*
X526591Y242926D01*
X526567Y242889D01*
X526550Y242865D01*
X526542Y242857D01*
X526481Y242799D01*
X526415Y242758D01*
X526354Y242729D01*
X526292Y242709D01*
X526239Y242697D01*
X526198Y242692D01*
X526182Y242688D01*
X526161D01*
X526087Y242692D01*
X526018Y242709D01*
X525956Y242734D01*
X525903Y242758D01*
X525862Y242783D01*
X525829Y242807D01*
X525812Y242824D01*
X525804Y242828D01*
X525755Y242885D01*
X525714Y242955D01*
X525681Y243021D01*
X525661Y243090D01*
X525640Y243148D01*
X525632Y243197D01*
X525628Y243217D01*
X525624Y243230D01*
Y243238D01*
Y243242D01*
X524923Y243156D01*
X524935Y243070D01*
X524956Y242984D01*
X524980Y242906D01*
X525005Y242832D01*
X525038Y242762D01*
X525070Y242701D01*
X525103Y242643D01*
X525136Y242590D01*
X525173Y242541D01*
X525202Y242500D01*
X525234Y242463D01*
X525259Y242434D01*
X525280Y242410D01*
X525296Y242393D01*
X525308Y242385D01*
X525312Y242381D01*
X525378Y242328D01*
X525448Y242283D01*
X525517Y242246D01*
X525591Y242209D01*
X525661Y242180D01*
X525731Y242160D01*
X525800Y242139D01*
X525866Y242123D01*
X525927Y242110D01*
X525985Y242102D01*
X526038Y242094D01*
X526079Y242090D01*
X526116D01*
X526140Y242086D01*
X524923D01*
Y245952D01*
Y242086D01*
X527440D01*
D01*
X526165D01*
X526264Y242090D01*
X526362Y242102D01*
X526452Y242119D01*
X526538Y242139D01*
X526616Y242168D01*
X526694Y242196D01*
X526764Y242229D01*
X526825Y242262D01*
X526883Y242291D01*
X526932Y242323D01*
X526973Y242352D01*
X527010Y242381D01*
X527038Y242401D01*
X527059Y242418D01*
X527071Y242430D01*
X527075Y242434D01*
X527141Y242504D01*
X527194Y242574D01*
X527243Y242643D01*
X527284Y242717D01*
X527321Y242787D01*
X527350Y242857D01*
X527375Y242926D01*
X527395Y242992D01*
X527412Y243053D01*
X527420Y243107D01*
X527428Y243156D01*
X527436Y243201D01*
Y243234D01*
X527440Y243262D01*
Y243283D01*
X527436Y243344D01*
X527432Y243406D01*
X527412Y243521D01*
X527379Y243619D01*
X527342Y243705D01*
X527325Y243742D01*
X527305Y243775D01*
X527288Y243804D01*
X527276Y243828D01*
X527260Y243845D01*
X527252Y243857D01*
X527247Y243865D01*
X527243Y243869D01*
X527207Y243914D01*
X527166Y243955D01*
X527083Y244021D01*
X526997Y244078D01*
X526911Y244119D01*
X526842Y244148D01*
X526809Y244160D01*
X526780Y244168D01*
X526760Y244177D01*
X526743Y244181D01*
X526731Y244185D01*
X526727D01*
X526821Y244242D01*
X526907Y244304D01*
X526981Y244369D01*
X527042Y244435D01*
X527096Y244501D01*
X527141Y244566D01*
X527174Y244632D01*
X527202Y244693D01*
X527227Y244751D01*
X527243Y244808D01*
X527256Y244857D01*
X527264Y244898D01*
X527268Y244931D01*
X527272Y244960D01*
Y244976D01*
Y244980D01*
X527268Y245046D01*
X527260Y245107D01*
X527247Y245169D01*
X527231Y245226D01*
X527186Y245333D01*
X527137Y245423D01*
X527112Y245464D01*
X527088Y245501D01*
X527063Y245534D01*
X527042Y245558D01*
X527026Y245579D01*
X527014Y245595D01*
X527006Y245603D01*
X527001Y245608D01*
X526940Y245669D01*
X526874Y245722D01*
X526805Y245767D01*
X526731Y245809D01*
X526661Y245841D01*
X526591Y245870D01*
X526522Y245890D01*
X526452Y245911D01*
X526391Y245923D01*
X526333Y245936D01*
X526280Y245940D01*
X526235Y245948D01*
X526198D01*
X526169Y245952D01*
D02*
G37*
G36*
X523423Y268600D02*
X523353D01*
D01*
D01*
D01*
X521828D01*
X523353D01*
X523193Y268596D01*
X523124Y268588D01*
X523050Y268580D01*
X522984Y268567D01*
X522923Y268559D01*
X522869Y268547D01*
X522816Y268534D01*
X522767Y268518D01*
X522726Y268506D01*
X522693Y268498D01*
X522660Y268485D01*
X522640Y268477D01*
X522619Y268469D01*
X522611Y268465D01*
X522607D01*
X522501Y268411D01*
X522402Y268350D01*
X522324Y268288D01*
X522255Y268227D01*
X522205Y268170D01*
X522164Y268125D01*
X522152Y268108D01*
X522144Y268096D01*
X522136Y268088D01*
Y268084D01*
X522082Y267989D01*
X522041Y267895D01*
X522013Y267801D01*
X521992Y267719D01*
X521980Y267649D01*
X521976Y267616D01*
Y267592D01*
X521972Y267571D01*
Y267555D01*
Y267546D01*
Y267542D01*
X521976Y267460D01*
X521988Y267382D01*
X522004Y267304D01*
X522025Y267235D01*
X522054Y267169D01*
X522082Y267104D01*
X522115Y267046D01*
X522148Y266993D01*
X522177Y266944D01*
X522209Y266903D01*
X522238Y266866D01*
X522267Y266837D01*
X522287Y266812D01*
X522304Y266796D01*
X522316Y266784D01*
X522320Y266780D01*
X522369Y266739D01*
X522427Y266702D01*
X522492Y266665D01*
X522558Y266628D01*
X522701Y266566D01*
X522845Y266509D01*
X522910Y266489D01*
X522972Y266468D01*
X523029Y266448D01*
X523083Y266435D01*
X523124Y266423D01*
X523152Y266415D01*
X523173Y266407D01*
X523181D01*
X523267Y266386D01*
X523345Y266366D01*
X523415Y266349D01*
X523476Y266333D01*
X523534Y266316D01*
X523583Y266304D01*
X523628Y266292D01*
X523665Y266280D01*
X523698Y266271D01*
X523722Y266263D01*
X523747Y266255D01*
X523763Y266251D01*
X523776Y266247D01*
X523784D01*
X523792Y266243D01*
X523862Y266214D01*
X523919Y266189D01*
X523964Y266161D01*
X524005Y266136D01*
X524030Y266111D01*
X524050Y266095D01*
X524063Y266083D01*
X524067Y266079D01*
X524095Y266042D01*
X524116Y266005D01*
X524128Y265964D01*
X524141Y265927D01*
X524145Y265898D01*
X524149Y265874D01*
Y265853D01*
Y265849D01*
Y265812D01*
X524141Y265775D01*
X524120Y265705D01*
X524087Y265640D01*
X524054Y265587D01*
X524022Y265546D01*
X523989Y265513D01*
X523968Y265492D01*
X523964Y265484D01*
X523960D01*
X523923Y265455D01*
X523882Y265431D01*
X523792Y265394D01*
X523698Y265365D01*
X523607Y265349D01*
X523525Y265336D01*
X523493Y265332D01*
X523460D01*
X523435Y265328D01*
X523398D01*
X523275Y265336D01*
X523165Y265357D01*
X523070Y265382D01*
X522988Y265414D01*
X522956Y265431D01*
X522927Y265447D01*
X522898Y265459D01*
X522878Y265472D01*
X522861Y265484D01*
X522849Y265492D01*
X522845Y265500D01*
X522841D01*
X522804Y265537D01*
X522771Y265574D01*
X522714Y265660D01*
X522664Y265755D01*
X522628Y265845D01*
X522603Y265927D01*
X522591Y265960D01*
X522582Y265992D01*
X522578Y266017D01*
X522574Y266038D01*
X522570Y266050D01*
Y266054D01*
X521828Y265980D01*
X521844Y265865D01*
X521869Y265755D01*
X521898Y265656D01*
X521931Y265562D01*
X521968Y265476D01*
X522004Y265394D01*
X522045Y265324D01*
X522086Y265259D01*
X522123Y265201D01*
X522160Y265152D01*
X522197Y265111D01*
X522226Y265074D01*
X522250Y265050D01*
X522271Y265029D01*
X522283Y265017D01*
X522287Y265013D01*
X522365Y264955D01*
X522447Y264906D01*
X522533Y264861D01*
X522623Y264824D01*
X522714Y264791D01*
X522804Y264767D01*
X522894Y264742D01*
X522984Y264726D01*
X523066Y264713D01*
X523144Y264701D01*
X523214Y264693D01*
X523271Y264689D01*
X523320D01*
X523357Y264685D01*
X521828D01*
X524911D01*
Y265853D01*
X524903Y265980D01*
X524887Y266099D01*
X524862Y266202D01*
X524850Y266247D01*
X524837Y266288D01*
X524821Y266325D01*
X524809Y266357D01*
X524796Y266386D01*
X524784Y266411D01*
X524772Y266431D01*
X524768Y266443D01*
X524760Y266452D01*
Y266456D01*
X524698Y266542D01*
X524628Y266620D01*
X524559Y266685D01*
X524493Y266743D01*
X524432Y266784D01*
X524382Y266817D01*
X524362Y266825D01*
X524350Y266833D01*
X524341Y266841D01*
X524337D01*
X524284Y266866D01*
X524227Y266895D01*
X524161Y266919D01*
X524095Y266944D01*
X523960Y266989D01*
X523825Y267030D01*
X523763Y267046D01*
X523702Y267063D01*
X523653Y267079D01*
X523603Y267091D01*
X523566Y267099D01*
X523538Y267108D01*
X523521Y267112D01*
X523513D01*
X523415Y267136D01*
X523325Y267161D01*
X523243Y267186D01*
X523169Y267210D01*
X523103Y267231D01*
X523046Y267251D01*
X522997Y267272D01*
X522956Y267288D01*
X522919Y267304D01*
X522886Y267321D01*
X522861Y267333D01*
X522845Y267345D01*
X522828Y267354D01*
X522820Y267362D01*
X522812Y267366D01*
X522775Y267403D01*
X522747Y267440D01*
X522730Y267481D01*
X522714Y267518D01*
X522706Y267546D01*
X522701Y267575D01*
Y267592D01*
Y267596D01*
X522706Y267649D01*
X522722Y267694D01*
X522738Y267735D01*
X522763Y267768D01*
X522783Y267792D01*
X522804Y267813D01*
X522816Y267825D01*
X522820Y267829D01*
X522898Y267874D01*
X522980Y267911D01*
X523070Y267936D01*
X523152Y267952D01*
X523230Y267961D01*
X523263Y267965D01*
X523292Y267969D01*
X523345D01*
X523460Y267965D01*
X523558Y267948D01*
X523640Y267928D01*
X523710Y267903D01*
X523763Y267879D01*
X523800Y267858D01*
X523821Y267842D01*
X523829Y267838D01*
X523886Y267784D01*
X523931Y267719D01*
X523968Y267649D01*
X523997Y267583D01*
X524017Y267522D01*
X524026Y267493D01*
X524034Y267469D01*
X524038Y267452D01*
Y267436D01*
X524042Y267427D01*
Y267423D01*
X524805Y267452D01*
X524796Y267546D01*
X524784Y267637D01*
X524764Y267723D01*
X524735Y267801D01*
X524706Y267874D01*
X524674Y267944D01*
X524641Y268006D01*
X524608Y268063D01*
X524571Y268112D01*
X524538Y268157D01*
X524509Y268198D01*
X524481Y268227D01*
X524456Y268252D01*
X524440Y268272D01*
X524428Y268280D01*
X524423Y268284D01*
X524354Y268342D01*
X524276Y268387D01*
X524190Y268432D01*
X524104Y268469D01*
X524017Y268498D01*
X523927Y268522D01*
X523837Y268543D01*
X523755Y268559D01*
X523673Y268576D01*
X523595Y268584D01*
X523530Y268592D01*
X523468Y268596D01*
X523423Y268600D01*
D02*
G37*
G36*
X527248Y268551D02*
X526658D01*
X526633Y268485D01*
X526605Y268424D01*
X526535Y268309D01*
X526461Y268207D01*
X526383Y268116D01*
X526346Y268075D01*
X526313Y268042D01*
X526285Y268010D01*
X526256Y267985D01*
X526236Y267965D01*
X526219Y267952D01*
X526207Y267944D01*
X526203Y267940D01*
X526080Y267850D01*
X525965Y267776D01*
X525863Y267715D01*
X525772Y267669D01*
X525731Y267649D01*
X525694Y267633D01*
X525666Y267620D01*
X525637Y267608D01*
X525617Y267600D01*
X525600Y267596D01*
X525592Y267592D01*
X525588D01*
Y266931D01*
X525686Y266968D01*
X525780Y267005D01*
X525875Y267046D01*
X525961Y267091D01*
X526043Y267136D01*
X526121Y267181D01*
X526191Y267227D01*
X526256Y267272D01*
X526318Y267313D01*
X526367Y267354D01*
X526416Y267391D01*
X526453Y267419D01*
X526482Y267444D01*
X526506Y267464D01*
X526518Y267477D01*
X526523Y267481D01*
Y264754D01*
X525588D01*
X527248D01*
Y268551D01*
D02*
G37*
%LPD*%
G36*
X524911Y264685D02*
X523480D01*
X523566Y264689D01*
X523653Y264697D01*
X523726Y264705D01*
X523800Y264717D01*
X523870Y264726D01*
X523931Y264738D01*
X523989Y264754D01*
X524038Y264767D01*
X524083Y264779D01*
X524124Y264787D01*
X524157Y264799D01*
X524182Y264808D01*
X524198Y264816D01*
X524210Y264820D01*
X524214D01*
X524333Y264877D01*
X524436Y264943D01*
X524522Y265017D01*
X524596Y265082D01*
X524653Y265144D01*
X524674Y265173D01*
X524694Y265197D01*
X524706Y265213D01*
X524719Y265230D01*
X524727Y265238D01*
Y265242D01*
X524760Y265296D01*
X524788Y265353D01*
X524833Y265459D01*
X524866Y265562D01*
X524887Y265656D01*
X524895Y265697D01*
X524903Y265734D01*
X524907Y265771D01*
Y265800D01*
X524911Y265820D01*
Y264685D01*
D02*
G37*
%LPC*%
G36*
X529880Y231279D02*
X526677D01*
D01*
X528228D01*
X528148Y231276D01*
X528076Y231269D01*
X528003Y231262D01*
X527937Y231255D01*
X527874Y231244D01*
X527815Y231234D01*
X527763Y231227D01*
X527718Y231217D01*
X527676Y231206D01*
X527638Y231196D01*
X527610Y231189D01*
X527586Y231182D01*
X527569Y231175D01*
X527559Y231171D01*
X527555D01*
X527444Y231130D01*
X527343Y231081D01*
X527253Y231029D01*
X527215Y231005D01*
X527180Y230981D01*
X527145Y230956D01*
X527118Y230936D01*
X527094Y230915D01*
X527073Y230901D01*
X527055Y230887D01*
X527045Y230877D01*
X527038Y230870D01*
X527035Y230866D01*
X526962Y230786D01*
X526899Y230707D01*
X526847Y230627D01*
X526809Y230550D01*
X526778Y230485D01*
X526764Y230457D01*
X526757Y230432D01*
X526750Y230412D01*
X526743Y230398D01*
X526740Y230387D01*
Y230384D01*
X526729Y230342D01*
X526719Y230297D01*
X526705Y230200D01*
X526691Y230099D01*
X526684Y230002D01*
X526681Y229957D01*
Y229877D01*
X526677Y229842D01*
Y228597D01*
X529880D01*
Y229912D01*
Y229877D01*
X529876Y229940D01*
X529873Y229999D01*
X529870Y230051D01*
X529866Y230103D01*
X529859Y230151D01*
X529852Y230193D01*
X529845Y230231D01*
X529842Y230266D01*
X529835Y230297D01*
X529828Y230325D01*
X529824Y230346D01*
X529821Y230363D01*
X529817Y230373D01*
X529814Y230380D01*
Y230384D01*
X529776Y230485D01*
X529734Y230575D01*
X529693Y230651D01*
X529651Y230717D01*
X529634Y230745D01*
X529616Y230769D01*
X529599Y230786D01*
X529585Y230804D01*
X529574Y230818D01*
X529564Y230828D01*
X529561Y230832D01*
X529557Y230835D01*
X529470Y230915D01*
X529377Y230984D01*
X529283Y231043D01*
X529193Y231092D01*
X529151Y231113D01*
X529113Y231130D01*
X529078Y231144D01*
X529051Y231158D01*
X529026Y231165D01*
X529005Y231171D01*
X528995Y231178D01*
X528992D01*
X528881Y231213D01*
X528766Y231237D01*
X528652Y231255D01*
X528544Y231265D01*
X528495Y231272D01*
X528450Y231276D01*
X528412D01*
X528377Y231279D01*
X529880D01*
D01*
D02*
G37*
G36*
Y227913D02*
X526677D01*
Y225373D01*
X529880D01*
Y225970D01*
X527777D01*
X529880Y227268D01*
Y227913D01*
D02*
G37*
G36*
X529939Y224769D02*
X526625D01*
D01*
X528166D01*
Y223378D01*
X528707D01*
Y224117D01*
X529116D01*
X529158Y224058D01*
X529193Y223999D01*
X529224Y223940D01*
X529252Y223885D01*
X529276Y223836D01*
X529293Y223798D01*
X529300Y223784D01*
X529304Y223774D01*
X529307Y223766D01*
Y223763D01*
X529335Y223687D01*
X529353Y223614D01*
X529366Y223548D01*
X529377Y223485D01*
X529384Y223433D01*
Y223409D01*
X529387Y223392D01*
Y223357D01*
X529384Y223281D01*
X529373Y223211D01*
X529359Y223145D01*
X529342Y223079D01*
X529321Y223021D01*
X529297Y222968D01*
X529273Y222916D01*
X529245Y222871D01*
X529217Y222833D01*
X529193Y222795D01*
X529169Y222767D01*
X529148Y222739D01*
X529130Y222722D01*
X529113Y222705D01*
X529106Y222698D01*
X529103Y222694D01*
X529047Y222649D01*
X528985Y222611D01*
X528919Y222576D01*
X528849Y222549D01*
X528776Y222524D01*
X528707Y222503D01*
X528634Y222486D01*
X528568Y222472D01*
X528502Y222462D01*
X528440Y222455D01*
X528388Y222448D01*
X528339Y222445D01*
X528301D01*
X528270Y222441D01*
X528253D01*
X528245D01*
X528148Y222445D01*
X528058Y222451D01*
X527975Y222465D01*
X527899Y222479D01*
X527826Y222500D01*
X527760Y222521D01*
X527701Y222542D01*
X527649Y222566D01*
X527600Y222590D01*
X527562Y222611D01*
X527527Y222632D01*
X527499Y222653D01*
X527475Y222667D01*
X527461Y222680D01*
X527451Y222687D01*
X527447Y222691D01*
X527399Y222739D01*
X527357Y222792D01*
X527322Y222847D01*
X527291Y222902D01*
X527263Y222958D01*
X527243Y223013D01*
X527225Y223069D01*
X527212Y223121D01*
X527201Y223170D01*
X527191Y223218D01*
X527184Y223260D01*
X527180Y223295D01*
X527177Y223322D01*
Y223364D01*
X527184Y223465D01*
X527198Y223555D01*
X527222Y223635D01*
X527246Y223701D01*
X527260Y223728D01*
X527270Y223756D01*
X527284Y223777D01*
X527295Y223794D01*
X527302Y223812D01*
X527309Y223822D01*
X527316Y223826D01*
Y223829D01*
X527371Y223895D01*
X527430Y223947D01*
X527493Y223992D01*
X527552Y224027D01*
X527604Y224055D01*
X527628Y224065D01*
X527649Y224072D01*
X527663Y224079D01*
X527676Y224082D01*
X527683Y224086D01*
X527687D01*
X527565Y224728D01*
X527486Y224707D01*
X527409Y224683D01*
X527336Y224651D01*
X527270Y224620D01*
X527212Y224586D01*
X527152Y224547D01*
X527100Y224513D01*
X527055Y224474D01*
X527014Y224440D01*
X526975Y224405D01*
X526948Y224374D01*
X526920Y224349D01*
X526899Y224325D01*
X526885Y224308D01*
X526878Y224297D01*
X526875Y224294D01*
X526830Y224228D01*
X526792Y224159D01*
X526760Y224086D01*
X526729Y224009D01*
X526705Y223930D01*
X526687Y223853D01*
X526670Y223777D01*
X526656Y223704D01*
X526646Y223635D01*
X526639Y223572D01*
X526632Y223513D01*
X526628Y223461D01*
X526625Y223423D01*
Y221775D01*
D01*
Y223281D01*
X526632Y223201D01*
X526639Y223125D01*
X526649Y223052D01*
X526663Y222982D01*
X526677Y222920D01*
X526691Y222861D01*
X526705Y222809D01*
X526719Y222760D01*
X526733Y222719D01*
X526747Y222684D01*
X526760Y222653D01*
X526771Y222628D01*
X526778Y222611D01*
X526781Y222601D01*
X526785Y222597D01*
X526826Y222524D01*
X526871Y222455D01*
X526917Y222389D01*
X526965Y222330D01*
X527017Y222274D01*
X527066Y222226D01*
X527114Y222177D01*
X527163Y222139D01*
X527208Y222101D01*
X527250Y222070D01*
X527288Y222045D01*
X527319Y222021D01*
X527347Y222004D01*
X527368Y221993D01*
X527382Y221986D01*
X527385Y221983D01*
X527458Y221945D01*
X527534Y221914D01*
X527610Y221886D01*
X527687Y221862D01*
X527763Y221844D01*
X527836Y221827D01*
X527909Y221813D01*
X527975Y221802D01*
X528037Y221792D01*
X528093Y221785D01*
X528145Y221782D01*
X528190Y221778D01*
X528225Y221775D01*
X528273D01*
X528360Y221778D01*
X528443Y221782D01*
X528523Y221792D01*
X528603Y221802D01*
X528676Y221820D01*
X528745Y221834D01*
X528811Y221851D01*
X528874Y221868D01*
X528929Y221886D01*
X528978Y221903D01*
X529023Y221920D01*
X529058Y221934D01*
X529089Y221945D01*
X529110Y221955D01*
X529123Y221959D01*
X529127Y221962D01*
X529200Y222000D01*
X529266Y222039D01*
X529328Y222084D01*
X529387Y222129D01*
X529439Y222174D01*
X529491Y222222D01*
X529536Y222268D01*
X529574Y222313D01*
X529613Y222354D01*
X529644Y222392D01*
X529668Y222431D01*
X529693Y222458D01*
X529710Y222486D01*
X529720Y222503D01*
X529727Y222517D01*
X529731Y222521D01*
X529769Y222594D01*
X529800Y222667D01*
X529828Y222739D01*
X529852Y222816D01*
X529870Y222892D01*
X529887Y222965D01*
X529901Y223034D01*
X529911Y223100D01*
X529921Y223163D01*
X529928Y223218D01*
X529932Y223270D01*
X529935Y223315D01*
X529939Y223350D01*
Y223399D01*
X529935Y223472D01*
X529932Y223545D01*
X529915Y223687D01*
X529904Y223756D01*
X529890Y223819D01*
X529876Y223881D01*
X529862Y223937D01*
X529849Y223989D01*
X529838Y224037D01*
X529824Y224079D01*
X529814Y224113D01*
X529804Y224141D01*
X529797Y224162D01*
X529790Y224176D01*
Y224180D01*
X529762Y224249D01*
X529731Y224315D01*
X529703Y224377D01*
X529672Y224433D01*
X529644Y224488D01*
X529616Y224537D01*
X529588Y224578D01*
X529561Y224620D01*
X529536Y224655D01*
X529516Y224686D01*
X529495Y224710D01*
X529477Y224731D01*
X529463Y224748D01*
X529453Y224759D01*
X529450Y224766D01*
X529446Y224769D01*
X529939D01*
D01*
D02*
G37*
%LPD*%
G36*
X528412Y230609D02*
X528471Y230606D01*
X528530Y230602D01*
X528582Y230599D01*
X528627Y230592D01*
X528672Y230585D01*
X528714Y230582D01*
X528749Y230575D01*
X528780Y230568D01*
X528804Y230561D01*
X528828Y230557D01*
X528846Y230554D01*
X528856Y230550D01*
X528863Y230547D01*
X528867D01*
X528943Y230519D01*
X529005Y230491D01*
X529058Y230464D01*
X529103Y230436D01*
X529134Y230415D01*
X529158Y230394D01*
X529172Y230380D01*
X529176Y230377D01*
X529207Y230335D01*
X529235Y230294D01*
X529259Y230248D01*
X529280Y230207D01*
X529293Y230172D01*
X529304Y230144D01*
X529307Y230124D01*
X529311Y230120D01*
Y230117D01*
X529314Y230092D01*
X529321Y230065D01*
X529328Y230006D01*
X529332Y229940D01*
X529335Y229874D01*
X529339Y229818D01*
Y229242D01*
X527218D01*
Y229665D01*
X527222Y229725D01*
Y229780D01*
X527225Y229829D01*
X527229Y229874D01*
X527232Y229912D01*
Y229943D01*
X527236Y229974D01*
X527239Y229999D01*
X527243Y230019D01*
X527246Y230033D01*
Y230047D01*
X527250Y230054D01*
Y230061D01*
X527267Y230127D01*
X527291Y230186D01*
X527316Y230238D01*
X527340Y230280D01*
X527364Y230314D01*
X527385Y230342D01*
X527399Y230356D01*
X527402Y230363D01*
X527447Y230405D01*
X527496Y230443D01*
X527548Y230474D01*
X527597Y230498D01*
X527642Y230519D01*
X527680Y230537D01*
X527690Y230540D01*
X527701Y230543D01*
X527708Y230547D01*
X527711D01*
X527749Y230557D01*
X527791Y230568D01*
X527885Y230585D01*
X527978Y230595D01*
X528068Y230606D01*
X528114D01*
X528152Y230609D01*
X528187D01*
X528218Y230613D01*
X528245D01*
X528263D01*
X528277D01*
X528280D01*
X528346D01*
X528412Y230609D01*
D02*
G37*
G36*
X526677Y225998D02*
Y227316D01*
X528828D01*
X526677Y225998D01*
D02*
G37*
%LPC*%
G36*
X530149Y207663D02*
X526835D01*
D01*
X528497D01*
X528355Y207660D01*
X528219Y207646D01*
X528094Y207625D01*
X527977Y207597D01*
X527869Y207566D01*
X527768Y207528D01*
X527675Y207490D01*
X527595Y207452D01*
X527518Y207410D01*
X527456Y207372D01*
X527400Y207337D01*
X527355Y207302D01*
X527321Y207275D01*
X527296Y207254D01*
X527279Y207240D01*
X527276Y207237D01*
X527199Y207153D01*
X527130Y207066D01*
X527071Y206976D01*
X527022Y206883D01*
X526977Y206785D01*
X526942Y206692D01*
X526915Y206602D01*
X526890Y206511D01*
X526873Y206428D01*
X526859Y206352D01*
X526849Y206282D01*
X526842Y206223D01*
X526838Y206175D01*
X526835Y206136D01*
Y206241D01*
Y206136D01*
Y206105D01*
X526842Y205963D01*
X526856Y205831D01*
X526866Y205772D01*
X526876Y205713D01*
X526887Y205661D01*
X526897Y205613D01*
X526911Y205568D01*
X526922Y205529D01*
X526932Y205495D01*
X526942Y205467D01*
X526953Y205446D01*
X526956Y205429D01*
X526963Y205418D01*
Y205415D01*
X527001Y205331D01*
X527046Y205255D01*
X527095Y205182D01*
X527144Y205123D01*
X527185Y205071D01*
X527203Y205050D01*
X527220Y205033D01*
X527234Y205019D01*
X527244Y205009D01*
X527248Y205002D01*
X527251Y204998D01*
X527328Y204932D01*
X527400Y204873D01*
X527477Y204821D01*
X527543Y204780D01*
X527605Y204749D01*
X527629Y204735D01*
X527650Y204724D01*
X527668Y204714D01*
X527681Y204707D01*
X527688Y204703D01*
X527692D01*
X527754Y204679D01*
X527824Y204655D01*
X527959Y204620D01*
X528098Y204592D01*
X528164Y204585D01*
X528226Y204575D01*
X528289Y204572D01*
X528341Y204565D01*
X528389Y204561D01*
X528431D01*
X528466Y204558D01*
X528514D01*
X528653Y204561D01*
X528785Y204575D01*
X528910Y204596D01*
X529024Y204624D01*
X529132Y204655D01*
X529229Y204690D01*
X529319Y204728D01*
X529399Y204769D01*
X529472Y204807D01*
X529534Y204846D01*
X529590Y204880D01*
X529635Y204912D01*
X529670Y204939D01*
X529694Y204960D01*
X529708Y204974D01*
X529715Y204978D01*
X529791Y205061D01*
X529857Y205148D01*
X529916Y205238D01*
X529965Y205331D01*
X530006Y205425D01*
X530041Y205522D01*
X530072Y205613D01*
X530093Y205703D01*
X530114Y205786D01*
X530124Y205862D01*
X530135Y205935D01*
X530142Y205994D01*
X530145Y206043D01*
X530149Y206081D01*
Y206130D01*
Y206112D01*
X530145Y206241D01*
X530131Y206365D01*
X530107Y206480D01*
X530079Y206588D01*
X530048Y206688D01*
X530010Y206782D01*
X529972Y206865D01*
X529930Y206942D01*
X529888Y207011D01*
X529850Y207070D01*
X529812Y207122D01*
X529781Y207164D01*
X529753Y207198D01*
X529729Y207219D01*
X529715Y207237D01*
X529711Y207240D01*
X529625Y207316D01*
X529534Y207379D01*
X529437Y207438D01*
X529337Y207486D01*
X529236Y207524D01*
X529135Y207559D01*
X529035Y207587D01*
X528941Y207611D01*
X528851Y207629D01*
X528764Y207643D01*
X528691Y207649D01*
X528625Y207656D01*
X528570Y207660D01*
X528549Y207663D01*
X530149D01*
D01*
D02*
G37*
G36*
X530090Y204072D02*
X526887D01*
Y203427D01*
X530090D01*
Y204072D01*
D02*
G37*
%LPD*%
G36*
X528584Y206994D02*
X528681Y206987D01*
X528768Y206973D01*
X528851Y206959D01*
X528924Y206938D01*
X528993Y206917D01*
X529056Y206896D01*
X529111Y206872D01*
X529160Y206848D01*
X529201Y206827D01*
X529240Y206806D01*
X529267Y206785D01*
X529292Y206771D01*
X529306Y206758D01*
X529316Y206751D01*
X529319Y206747D01*
X529368Y206699D01*
X529410Y206647D01*
X529448Y206595D01*
X529479Y206542D01*
X529507Y206490D01*
X529528Y206435D01*
X529548Y206386D01*
X529562Y206338D01*
X529573Y206289D01*
X529583Y206248D01*
X529590Y206209D01*
X529594Y206178D01*
Y206150D01*
X529597Y206130D01*
Y206112D01*
X529594Y206043D01*
X529583Y205973D01*
X529569Y205908D01*
X529552Y205849D01*
X529531Y205793D01*
X529507Y205741D01*
X529482Y205692D01*
X529455Y205647D01*
X529430Y205609D01*
X529406Y205574D01*
X529382Y205543D01*
X529361Y205519D01*
X529340Y205498D01*
X529326Y205484D01*
X529319Y205477D01*
X529316Y205474D01*
X529260Y205429D01*
X529198Y205391D01*
X529135Y205359D01*
X529070Y205328D01*
X529000Y205304D01*
X528931Y205286D01*
X528865Y205269D01*
X528799Y205255D01*
X528736Y205245D01*
X528677Y205238D01*
X528625Y205231D01*
X528580Y205227D01*
X528542D01*
X528514Y205224D01*
X528497D01*
X528490D01*
X528389Y205227D01*
X528296Y205234D01*
X528209Y205245D01*
X528129Y205262D01*
X528053Y205279D01*
X527987Y205300D01*
X527924Y205325D01*
X527869Y205345D01*
X527820Y205370D01*
X527779Y205391D01*
X527744Y205411D01*
X527716Y205429D01*
X527692Y205446D01*
X527678Y205456D01*
X527668Y205463D01*
X527664Y205467D01*
X527616Y205515D01*
X527574Y205564D01*
X527536Y205620D01*
X527504Y205672D01*
X527477Y205727D01*
X527453Y205779D01*
X527435Y205831D01*
X527421Y205883D01*
X527411Y205928D01*
X527400Y205973D01*
X527393Y206012D01*
X527390Y206046D01*
X527387Y206074D01*
Y206112D01*
X527390Y206185D01*
X527397Y206255D01*
X527411Y206320D01*
X527428Y206379D01*
X527449Y206438D01*
X527473Y206490D01*
X527498Y206539D01*
X527522Y206584D01*
X527550Y206622D01*
X527574Y206657D01*
X527598Y206685D01*
X527619Y206709D01*
X527636Y206730D01*
X527650Y206744D01*
X527657Y206751D01*
X527661Y206754D01*
X527713Y206796D01*
X527775Y206834D01*
X527838Y206865D01*
X527904Y206896D01*
X527970Y206917D01*
X528039Y206938D01*
X528108Y206956D01*
X528174Y206966D01*
X528237Y206976D01*
X528296Y206983D01*
X528348Y206990D01*
X528393Y206994D01*
X528431Y206997D01*
X528459D01*
X528476D01*
X528483D01*
X528584Y206994D01*
D02*
G37*
%LPC*%
G36*
X626656Y257502D02*
Y256662D01*
X625827D01*
Y257502D01*
X626656D01*
X624422D01*
Y256103D01*
X625251D01*
Y255264D01*
X625827D01*
Y256103D01*
X626656D01*
Y255264D01*
D01*
Y257502D01*
D02*
G37*
G36*
X627173Y254910D02*
X623901D01*
X627173D01*
D01*
D02*
G37*
G36*
X624807D02*
X624734Y254899D01*
X624661Y254882D01*
X624595Y254861D01*
X624533Y254840D01*
X624474Y254813D01*
X624422Y254785D01*
X624373Y254757D01*
X624328Y254729D01*
X624286Y254698D01*
X624252Y254674D01*
X624220Y254646D01*
X624196Y254625D01*
X624175Y254608D01*
X624161Y254594D01*
X624154Y254584D01*
X624151Y254580D01*
X624106Y254525D01*
X624068Y254466D01*
X624036Y254407D01*
X624005Y254344D01*
X623981Y254285D01*
X623963Y254226D01*
X623946Y254167D01*
X623932Y254112D01*
X623922Y254060D01*
X623915Y254011D01*
X623908Y253966D01*
X623905Y253931D01*
Y253900D01*
X623901Y253879D01*
Y253883D01*
Y252779D01*
Y253858D01*
X623905Y253775D01*
X623915Y253692D01*
X623929Y253615D01*
X623946Y253543D01*
X623970Y253477D01*
X623995Y253411D01*
X624022Y253352D01*
X624050Y253300D01*
X624075Y253251D01*
X624102Y253209D01*
X624127Y253175D01*
X624151Y253144D01*
X624168Y253119D01*
X624182Y253102D01*
X624192Y253092D01*
X624196Y253088D01*
X624255Y253033D01*
X624314Y252987D01*
X624373Y252946D01*
X624435Y252911D01*
X624494Y252880D01*
X624553Y252856D01*
X624612Y252835D01*
X624668Y252817D01*
X624720Y252803D01*
X624765Y252797D01*
X624807Y252790D01*
X624845Y252783D01*
X624873D01*
X624897Y252779D01*
X624914D01*
X624966Y252783D01*
X625018Y252786D01*
X625115Y252803D01*
X625199Y252831D01*
X625272Y252863D01*
X625303Y252876D01*
X625331Y252894D01*
X625355Y252908D01*
X625376Y252918D01*
X625390Y252932D01*
X625400Y252939D01*
X625407Y252942D01*
X625411Y252946D01*
X625449Y252977D01*
X625483Y253012D01*
X625539Y253081D01*
X625587Y253154D01*
X625622Y253227D01*
X625646Y253286D01*
X625657Y253314D01*
X625664Y253338D01*
X625671Y253355D01*
X625674Y253369D01*
X625678Y253380D01*
Y253383D01*
X625726Y253303D01*
X625778Y253230D01*
X625834Y253168D01*
X625889Y253116D01*
X625945Y253071D01*
X626000Y253033D01*
X626056Y253005D01*
X626108Y252980D01*
X626157Y252960D01*
X626205Y252946D01*
X626247Y252935D01*
X626281Y252928D01*
X626309Y252925D01*
X626334Y252922D01*
X626347D01*
X626351D01*
X626406Y252925D01*
X626458Y252932D01*
X626510Y252942D01*
X626559Y252956D01*
X626649Y252994D01*
X626726Y253036D01*
X626760Y253057D01*
X626791Y253078D01*
X626819Y253099D01*
X626840Y253116D01*
X626858Y253130D01*
X626871Y253140D01*
X626878Y253147D01*
X626882Y253151D01*
X626934Y253203D01*
X626979Y253258D01*
X627017Y253317D01*
X627052Y253380D01*
X627080Y253438D01*
X627104Y253498D01*
X627121Y253556D01*
X627139Y253615D01*
X627149Y253668D01*
X627159Y253716D01*
X627163Y253761D01*
X627170Y253799D01*
Y253831D01*
X627173Y253855D01*
Y253876D01*
X627170Y253973D01*
X627159Y254063D01*
X627142Y254146D01*
X627125Y254216D01*
X627114Y254247D01*
X627104Y254275D01*
X627097Y254299D01*
X627090Y254320D01*
X627083Y254337D01*
X627076Y254348D01*
X627073Y254355D01*
Y254358D01*
X627031Y254434D01*
X626986Y254500D01*
X626941Y254556D01*
X626896Y254601D01*
X626858Y254639D01*
X626823Y254667D01*
X626802Y254681D01*
X626798Y254688D01*
X626795D01*
X626726Y254729D01*
X626649Y254764D01*
X626573Y254795D01*
X626497Y254820D01*
X626431Y254840D01*
X626403Y254847D01*
X626379Y254854D01*
X626358Y254858D01*
X626344Y254861D01*
X626334Y254865D01*
X626330D01*
X626236Y254299D01*
X626309Y254285D01*
X626375Y254268D01*
X626427Y254247D01*
X626472Y254223D01*
X626507Y254199D01*
X626531Y254181D01*
X626549Y254167D01*
X626552Y254164D01*
X626590Y254119D01*
X626618Y254074D01*
X626635Y254029D01*
X626649Y253987D01*
X626656Y253949D01*
X626663Y253921D01*
Y253893D01*
X626660Y253834D01*
X626649Y253782D01*
X626632Y253740D01*
X626615Y253702D01*
X626597Y253671D01*
X626580Y253650D01*
X626570Y253636D01*
X626566Y253633D01*
X626528Y253602D01*
X626486Y253577D01*
X626441Y253560D01*
X626403Y253546D01*
X626365Y253539D01*
X626337Y253536D01*
X626316D01*
X626313D01*
X626309D01*
X626240Y253543D01*
X626181Y253556D01*
X626129Y253577D01*
X626084Y253602D01*
X626049Y253629D01*
X626025Y253650D01*
X626011Y253664D01*
X626004Y253671D01*
X625969Y253727D01*
X625941Y253786D01*
X625921Y253848D01*
X625910Y253910D01*
X625903Y253966D01*
Y253990D01*
X625900Y254011D01*
Y254053D01*
X625400Y254119D01*
X625417Y254060D01*
X625428Y254004D01*
X625438Y253959D01*
X625442Y253917D01*
X625445Y253883D01*
X625449Y253858D01*
Y253838D01*
X625442Y253772D01*
X625428Y253713D01*
X625403Y253661D01*
X625379Y253615D01*
X625355Y253581D01*
X625331Y253553D01*
X625317Y253539D01*
X625310Y253532D01*
X625254Y253491D01*
X625195Y253459D01*
X625133Y253438D01*
X625074Y253421D01*
X625022Y253414D01*
X625001Y253411D01*
X624980D01*
X624963Y253407D01*
X624952D01*
X624945D01*
X624942D01*
X624855Y253414D01*
X624779Y253428D01*
X624713Y253449D01*
X624657Y253473D01*
X624612Y253498D01*
X624581Y253518D01*
X624560Y253532D01*
X624553Y253539D01*
X624505Y253591D01*
X624470Y253647D01*
X624446Y253699D01*
X624429Y253751D01*
X624418Y253796D01*
X624415Y253831D01*
X624411Y253844D01*
Y253862D01*
X624415Y253924D01*
X624429Y253983D01*
X624449Y254035D01*
X624470Y254081D01*
X624491Y254115D01*
X624512Y254143D01*
X624526Y254157D01*
X624529Y254164D01*
X624578Y254205D01*
X624637Y254240D01*
X624692Y254268D01*
X624751Y254285D01*
X624800Y254303D01*
X624841Y254310D01*
X624859Y254313D01*
X624869Y254316D01*
X624876D01*
X624880D01*
X624807Y254910D01*
D02*
G37*
G36*
X627163Y252588D02*
X623960Y251447D01*
Y252588D01*
Y250753D01*
X627163Y249608D01*
Y252588D01*
D02*
G37*
G36*
X627173Y249438D02*
X623901D01*
X627173D01*
D01*
D02*
G37*
G36*
X624807D02*
X624734Y249427D01*
X624661Y249410D01*
X624595Y249389D01*
X624533Y249368D01*
X624474Y249341D01*
X624422Y249313D01*
X624373Y249285D01*
X624328Y249257D01*
X624286Y249226D01*
X624252Y249202D01*
X624220Y249174D01*
X624196Y249153D01*
X624175Y249136D01*
X624161Y249122D01*
X624154Y249112D01*
X624151Y249108D01*
X624106Y249053D01*
X624068Y248993D01*
X624036Y248935D01*
X624005Y248872D01*
X623981Y248813D01*
X623963Y248754D01*
X623946Y248695D01*
X623932Y248639D01*
X623922Y248587D01*
X623915Y248539D01*
X623908Y248494D01*
X623905Y248459D01*
Y248428D01*
X623901Y248407D01*
Y248411D01*
Y247307D01*
Y248386D01*
X623905Y248303D01*
X623915Y248220D01*
X623929Y248143D01*
X623946Y248071D01*
X623970Y248005D01*
X623995Y247939D01*
X624022Y247880D01*
X624050Y247828D01*
X624075Y247779D01*
X624102Y247737D01*
X624127Y247703D01*
X624151Y247671D01*
X624168Y247647D01*
X624182Y247630D01*
X624192Y247619D01*
X624196Y247616D01*
X624255Y247560D01*
X624314Y247515D01*
X624373Y247474D01*
X624435Y247439D01*
X624494Y247408D01*
X624553Y247383D01*
X624612Y247363D01*
X624668Y247345D01*
X624720Y247331D01*
X624765Y247324D01*
X624807Y247318D01*
X624845Y247310D01*
X624873D01*
X624897Y247307D01*
X624914D01*
X624966Y247310D01*
X625018Y247314D01*
X625115Y247331D01*
X625199Y247359D01*
X625272Y247390D01*
X625303Y247404D01*
X625331Y247422D01*
X625355Y247435D01*
X625376Y247446D01*
X625390Y247460D01*
X625400Y247467D01*
X625407Y247470D01*
X625411Y247474D01*
X625449Y247505D01*
X625483Y247540D01*
X625539Y247609D01*
X625587Y247682D01*
X625622Y247755D01*
X625646Y247814D01*
X625657Y247841D01*
X625664Y247866D01*
X625671Y247883D01*
X625674Y247897D01*
X625678Y247907D01*
Y247911D01*
X625726Y247831D01*
X625778Y247758D01*
X625834Y247696D01*
X625889Y247644D01*
X625945Y247599D01*
X626000Y247560D01*
X626056Y247533D01*
X626108Y247508D01*
X626157Y247487D01*
X626205Y247474D01*
X626247Y247463D01*
X626281Y247456D01*
X626309Y247453D01*
X626334Y247449D01*
X626347D01*
X626351D01*
X626406Y247453D01*
X626458Y247460D01*
X626510Y247470D01*
X626559Y247484D01*
X626649Y247522D01*
X626726Y247564D01*
X626760Y247585D01*
X626791Y247605D01*
X626819Y247626D01*
X626840Y247644D01*
X626858Y247657D01*
X626871Y247668D01*
X626878Y247675D01*
X626882Y247678D01*
X626934Y247730D01*
X626979Y247786D01*
X627017Y247845D01*
X627052Y247907D01*
X627080Y247966D01*
X627104Y248025D01*
X627121Y248084D01*
X627139Y248143D01*
X627149Y248195D01*
X627159Y248244D01*
X627163Y248289D01*
X627170Y248327D01*
Y248358D01*
X627173Y248383D01*
Y248404D01*
X627170Y248501D01*
X627159Y248591D01*
X627142Y248674D01*
X627125Y248744D01*
X627114Y248775D01*
X627104Y248803D01*
X627097Y248827D01*
X627090Y248848D01*
X627083Y248865D01*
X627076Y248875D01*
X627073Y248882D01*
Y248886D01*
X627031Y248962D01*
X626986Y249028D01*
X626941Y249084D01*
X626896Y249129D01*
X626858Y249167D01*
X626823Y249195D01*
X626802Y249209D01*
X626798Y249216D01*
X626795D01*
X626726Y249257D01*
X626649Y249292D01*
X626573Y249323D01*
X626497Y249347D01*
X626431Y249368D01*
X626403Y249375D01*
X626379Y249382D01*
X626358Y249386D01*
X626344Y249389D01*
X626334Y249393D01*
X626330D01*
X626236Y248827D01*
X626309Y248813D01*
X626375Y248796D01*
X626427Y248775D01*
X626472Y248751D01*
X626507Y248726D01*
X626531Y248709D01*
X626549Y248695D01*
X626552Y248692D01*
X626590Y248646D01*
X626618Y248601D01*
X626635Y248556D01*
X626649Y248515D01*
X626656Y248477D01*
X626663Y248449D01*
Y248421D01*
X626660Y248362D01*
X626649Y248310D01*
X626632Y248268D01*
X626615Y248230D01*
X626597Y248199D01*
X626580Y248178D01*
X626570Y248164D01*
X626566Y248161D01*
X626528Y248129D01*
X626486Y248105D01*
X626441Y248088D01*
X626403Y248074D01*
X626365Y248067D01*
X626337Y248063D01*
X626316D01*
X626313D01*
X626309D01*
X626240Y248071D01*
X626181Y248084D01*
X626129Y248105D01*
X626084Y248129D01*
X626049Y248157D01*
X626025Y248178D01*
X626011Y248192D01*
X626004Y248199D01*
X625969Y248254D01*
X625941Y248313D01*
X625921Y248376D01*
X625910Y248438D01*
X625903Y248494D01*
Y248518D01*
X625900Y248539D01*
Y248581D01*
X625400Y248646D01*
X625417Y248587D01*
X625428Y248532D01*
X625438Y248487D01*
X625442Y248445D01*
X625445Y248411D01*
X625449Y248386D01*
Y248365D01*
X625442Y248300D01*
X625428Y248240D01*
X625403Y248188D01*
X625379Y248143D01*
X625355Y248109D01*
X625331Y248081D01*
X625317Y248067D01*
X625310Y248060D01*
X625254Y248018D01*
X625195Y247987D01*
X625133Y247966D01*
X625074Y247949D01*
X625022Y247942D01*
X625001Y247939D01*
X624980D01*
X624963Y247935D01*
X624952D01*
X624945D01*
X624942D01*
X624855Y247942D01*
X624779Y247956D01*
X624713Y247977D01*
X624657Y248001D01*
X624612Y248025D01*
X624581Y248046D01*
X624560Y248060D01*
X624553Y248067D01*
X624505Y248119D01*
X624470Y248175D01*
X624446Y248227D01*
X624429Y248279D01*
X624418Y248324D01*
X624415Y248358D01*
X624411Y248372D01*
Y248390D01*
X624415Y248452D01*
X624429Y248511D01*
X624449Y248563D01*
X624470Y248608D01*
X624491Y248643D01*
X624512Y248671D01*
X624526Y248685D01*
X624529Y248692D01*
X624578Y248733D01*
X624637Y248768D01*
X624692Y248796D01*
X624751Y248813D01*
X624800Y248830D01*
X624841Y248837D01*
X624859Y248841D01*
X624869Y248844D01*
X624876D01*
X624880D01*
X624807Y249438D01*
D02*
G37*
%LPD*%
G36*
X625251Y256662D02*
X624422D01*
Y257502D01*
X625251D01*
Y256662D01*
D02*
G37*
G36*
X627163Y250295D02*
X624793Y251079D01*
X627163Y251891D01*
Y250295D01*
D02*
G37*
D40*
X537286Y256235D02*
G03*
X537286Y261235I0J2500D01*
G01*
X548416Y157375D02*
Y175485D01*
X559833Y157375D02*
Y175485D01*
X548416Y157375D02*
X549302D01*
X548416Y175485D02*
X549302D01*
X558948Y157375D02*
X559833D01*
X558948Y175485D02*
X559833D01*
X569417Y225031D02*
Y222365D01*
X569950Y221832D01*
X571017D01*
X571550Y222365D01*
Y225031D01*
X574749D02*
X572616D01*
Y223432D01*
X573682Y223965D01*
X574216D01*
X574749Y223432D01*
Y222365D01*
X574216Y221832D01*
X573149D01*
X572616Y222365D01*
X611965Y157858D02*
X612498D01*
X613564Y158924D01*
X612498Y159991D01*
X611965D01*
X613564Y158924D02*
X615164D01*
Y161057D02*
Y162123D01*
Y161590D01*
X611965D01*
X612498Y161057D01*
X513453Y179501D02*
Y176835D01*
X513986Y176302D01*
X515053D01*
X515586Y176835D01*
Y179501D01*
X518252Y176302D02*
Y179501D01*
X516652Y177902D01*
X518785D01*
X543686Y195047D02*
Y192381D01*
X544219Y191848D01*
X545285D01*
X545819Y192381D01*
Y195047D01*
X546885Y194513D02*
X547418Y195047D01*
X548484D01*
X549017Y194513D01*
Y193980D01*
X548484Y193447D01*
X547951D01*
X548484D01*
X549017Y192914D01*
Y192381D01*
X548484Y191848D01*
X547418D01*
X546885Y192381D01*
X602893Y164334D02*
X600227D01*
X599694Y163801D01*
Y162735D01*
X600227Y162201D01*
X602893D01*
X599694Y161135D02*
Y160069D01*
Y160602D01*
X602893D01*
X602360Y161135D01*
X626172Y269667D02*
X626706Y270200D01*
Y271266D01*
X626172Y271799D01*
X625639D01*
X625106Y271266D01*
Y270200D01*
X624573Y269667D01*
X624040D01*
X623507Y270200D01*
Y271266D01*
X624040Y271799D01*
X626706Y268600D02*
X623507D01*
X624573Y267534D01*
X623507Y266468D01*
X626706D01*
X623507Y265401D02*
Y264335D01*
Y264868D01*
X626706D01*
X626172Y265401D01*
X613848Y219763D02*
Y222962D01*
X615447D01*
X615980Y222429D01*
Y221363D01*
X615447Y220830D01*
X613848D01*
X614914D02*
X615980Y219763D01*
X617047D02*
X618113D01*
X617580D01*
Y222962D01*
X617047Y222429D01*
X619713D02*
X620246Y222962D01*
X621312D01*
X621845Y222429D01*
Y221896D01*
X621312Y221363D01*
X620779D01*
X621312D01*
X621845Y220830D01*
Y220297D01*
X621312Y219763D01*
X620246D01*
X619713Y220297D01*
X530247Y273819D02*
Y270620D01*
X531846D01*
X532379Y271153D01*
Y273285D01*
X531846Y273819D01*
X530247D01*
X533446Y273285D02*
X533979Y273819D01*
X535045D01*
X535578Y273285D01*
Y272752D01*
X535045Y272219D01*
X535578Y271686D01*
Y271153D01*
X535045Y270620D01*
X533979D01*
X533446Y271153D01*
Y271686D01*
X533979Y272219D01*
X533446Y272752D01*
Y273285D01*
X533979Y272219D02*
X535045D01*
X551694Y183001D02*
Y179802D01*
X553293D01*
X553827Y180335D01*
Y182468D01*
X553293Y183001D01*
X551694D01*
X554893D02*
X557025D01*
Y182468D01*
X554893Y180335D01*
Y179802D01*
X530272Y262102D02*
Y258903D01*
X531872D01*
X532405Y259436D01*
Y261568D01*
X531872Y262102D01*
X530272D01*
X533471Y261568D02*
X534005Y262102D01*
X535071D01*
X535604Y261568D01*
Y261035D01*
X535071Y260502D01*
X534538D01*
X535071D01*
X535604Y259969D01*
Y259436D01*
X535071Y258903D01*
X534005D01*
X533471Y259436D01*
X529862Y251573D02*
Y248374D01*
X531462D01*
X531995Y248908D01*
Y251040D01*
X531462Y251573D01*
X529862D01*
X535194Y248374D02*
X533061D01*
X535194Y250507D01*
Y251040D01*
X534661Y251573D01*
X533594D01*
X533061Y251040D01*
X530851Y238356D02*
Y235157D01*
X532451D01*
X532984Y235690D01*
Y237823D01*
X532451Y238356D01*
X530851D01*
X534050Y235157D02*
X535116D01*
X534583D01*
Y238356D01*
X534050Y237823D01*
X570276Y188366D02*
X570809Y188900D01*
Y189966D01*
X570276Y190499D01*
X568144D01*
X567610Y189966D01*
Y188900D01*
X568144Y188366D01*
X567610Y187300D02*
Y186234D01*
Y186767D01*
X570809D01*
X570276Y187300D01*
X567610Y184634D02*
Y183568D01*
Y184101D01*
X570809D01*
X570276Y184634D01*
X600655Y174477D02*
X600122Y173943D01*
Y172877D01*
X600655Y172344D01*
X602788D01*
X603321Y172877D01*
Y173943D01*
X602788Y174477D01*
Y175543D02*
X603321Y176076D01*
Y177142D01*
X602788Y177676D01*
X600655D01*
X600122Y177142D01*
Y176076D01*
X600655Y175543D01*
X601188D01*
X601721Y176076D01*
Y177676D01*
X547275Y146183D02*
X546742Y146716D01*
X545676D01*
X545143Y146183D01*
Y144051D01*
X545676Y143517D01*
X546742D01*
X547275Y144051D01*
X550474Y146716D02*
X549408Y146183D01*
X548342Y145117D01*
Y144051D01*
X548875Y143517D01*
X549941D01*
X550474Y144051D01*
Y144584D01*
X549941Y145117D01*
X548342D01*
X524471Y145931D02*
X523938Y146464D01*
X522872D01*
X522338Y145931D01*
Y143798D01*
X522872Y143265D01*
X523938D01*
X524471Y143798D01*
X527670Y146464D02*
X525537D01*
Y144865D01*
X526604Y145398D01*
X527137D01*
X527670Y144865D01*
Y143798D01*
X527137Y143265D01*
X526071D01*
X525537Y143798D01*
X545693Y229179D02*
X545160Y229713D01*
X544094D01*
X543561Y229179D01*
Y227047D01*
X544094Y226514D01*
X545160D01*
X545693Y227047D01*
X548359Y226514D02*
Y229713D01*
X546760Y228113D01*
X548892D01*
X563638Y164960D02*
X563105Y164427D01*
Y163361D01*
X563638Y162827D01*
X565771D01*
X566304Y163361D01*
Y164427D01*
X565771Y164960D01*
X566304Y166026D02*
Y167093D01*
Y166560D01*
X563105D01*
X563638Y166026D01*
D41*
X549204Y154816D02*
G03*
X549204Y154816I-492J0D01*
G01*
X607047Y192783D02*
G03*
X607047Y192783I-492J0D01*
G01*
X537187Y217523D02*
G03*
X537187Y217523I-492J0D01*
G01*
X517261Y156458D02*
G03*
X517261Y156458I-492J0D01*
G01*
X599339Y175728D02*
G03*
X599339Y175728I-492J0D01*
G01*
D42*
X599370Y198099D02*
G03*
X599370Y198099I-1181J0D01*
G01*
X546243Y212582D02*
G03*
X546243Y212582I-1181J0D01*
G01*
X595087Y167362D02*
G03*
X595087Y167362I-1181J0D01*
G01*
D43*
X561052Y107159D02*
X622075D01*
X570894Y103222D02*
X622075D01*
Y146529D01*
X561052D02*
X622075D01*
X561052Y103222D02*
Y146529D01*
Y103222D02*
X570894D01*
X602126Y194161D02*
Y218571D01*
X577716Y194161D02*
Y218571D01*
Y194161D02*
X602126D01*
X577716Y218571D02*
X602126D01*
X560313Y186053D02*
Y187053D01*
X565513Y186053D02*
Y187053D01*
X541124Y196834D02*
X553723D01*
X541124Y216519D02*
X553723D01*
Y196834D02*
Y216519D01*
X541124Y196834D02*
Y216519D01*
X545636Y225034D02*
X546635D01*
X545636Y219834D02*
X546635D01*
X627500Y110961D02*
X637539D01*
Y131039D01*
X627500D02*
X637539D01*
X627500Y110961D02*
Y131039D01*
X610242Y174692D02*
Y175692D01*
X605042Y174692D02*
Y175692D01*
X544327Y158821D02*
Y168270D01*
X517556Y158821D02*
Y173781D01*
X523068D01*
X544327Y168270D02*
Y173781D01*
X538816D02*
X544327D01*
X578157Y171299D02*
X597843D01*
X578157Y158701D02*
X597843D01*
Y171299D01*
X578157Y158701D02*
Y171299D01*
X515218Y191216D02*
X525060D01*
Y231176D01*
X515218D02*
X525060D01*
X515218Y191216D02*
Y231176D01*
X628716Y257475D02*
X638559D01*
X628716Y217514D02*
Y257475D01*
Y217514D02*
X638559D01*
Y257475D01*
X537286Y246137D02*
X620947D01*
Y271333D01*
X537286D02*
X620947D01*
X537286Y261235D02*
Y271333D01*
Y246137D02*
Y256235D01*
X543057Y269079D02*
X541057D01*
X540058Y268080D01*
Y264081D01*
X541057Y263082D01*
X543057D01*
X544056Y264081D01*
Y268080D01*
X543057Y269079D01*
X546056Y263082D02*
Y269079D01*
X550054Y263082D01*
Y269079D01*
D59*
X633090Y108795D02*
G03*
X633090Y108795I-591J0D01*
G01*
X520926Y188657D02*
G03*
X520926Y188657I-787J0D01*
G01*
X634425Y260034D02*
G03*
X634425Y260034I-787J0D01*
G01*
D60*
X635449Y156362D02*
Y201638D01*
X616551Y156362D02*
Y201638D01*
X620094D01*
X631906D02*
X635449D01*
X631906Y156362D02*
X635449D01*
X616551D02*
X620094D01*
D61*
X532283Y138839D02*
Y140839D01*
X531283Y139839D02*
X533283D01*
X516142Y108736D02*
Y138264D01*
X533858Y108736D02*
Y138264D01*
X554783Y138339D02*
Y140339D01*
X553783Y139339D02*
X555783D01*
X538642Y108236D02*
Y137764D01*
X556358Y108236D02*
Y137764D01*
%TF.MD5,f5b2d309a2d967aa5f56ea32b8eb3e53*%
M02*
