%TF.GenerationSoftware,Altium Limited,Altium Designer,20.0.13 (296)*%
G04 Layer_Physical_Order=3*
G04 Layer_Color=16440176*
%FSLAX25Y25*%
%MOIN*%
%TF.FileFunction,Copper,L3,Inr,Signal*%
%TF.Part,Single*%
G01*
G75*
%TA.AperFunction,Conductor*%
%ADD24C,0.01000*%
%TA.AperFunction,ComponentPad*%
%ADD28C,0.07874*%
%ADD29R,0.07874X0.07874*%
%ADD30R,0.06000X0.06000*%
%ADD31C,0.06000*%
%ADD32C,0.27165*%
%TA.AperFunction,ViaPad*%
%ADD33C,0.02362*%
%ADD34C,0.01181*%
G36*
X636023Y282060D02*
X637163Y281587D01*
X638190Y280901D01*
X639063Y280028D01*
X639749Y279001D01*
X640222Y277860D01*
X640462Y276649D01*
Y276032D01*
X640463Y276031D01*
X640462Y276031D01*
X640505Y223649D01*
X640521Y223566D01*
X640514Y223482D01*
X640592Y222743D01*
X640614Y222672D01*
Y222598D01*
X640915Y221084D01*
X640975Y220938D01*
X641006Y220783D01*
X641597Y219356D01*
X641685Y219225D01*
X641745Y219079D01*
X642603Y217795D01*
X642715Y217684D01*
X642802Y217552D01*
X643894Y216461D01*
X644025Y216373D01*
X644137Y216261D01*
X645421Y215404D01*
X645567Y215343D01*
X645698Y215255D01*
X647124Y214664D01*
X647279Y214633D01*
X647426Y214573D01*
X648939Y214272D01*
X649058D01*
X649174Y214243D01*
X649481Y214228D01*
X649653Y214194D01*
X649820Y214130D01*
X649958Y214133D01*
X650093Y214106D01*
X657766D01*
X657904Y214014D01*
X657968Y214001D01*
X658026Y213969D01*
X658274Y213941D01*
X658518Y213892D01*
X659755D01*
X662212Y213615D01*
X664623Y213065D01*
X666957Y212248D01*
X669185Y211175D01*
X671278Y209859D01*
X673212Y208318D01*
X674960Y206569D01*
X676502Y204636D01*
X677818Y202542D01*
X678891Y200314D01*
X679707Y197980D01*
X680258Y195569D01*
X680535Y193112D01*
Y190639D01*
X680258Y188182D01*
X679707Y185771D01*
X678891Y183437D01*
X677818Y181209D01*
X676502Y179115D01*
X674961Y177182D01*
X673212Y175433D01*
X671278Y173891D01*
X669185Y172576D01*
X666957Y171503D01*
X664623Y170686D01*
X662212Y170136D01*
X659755Y169859D01*
X658518D01*
X658359Y169827D01*
X658196Y169826D01*
X658055Y169767D01*
X658044Y169765D01*
X650206D01*
X650166Y169757D01*
X650127Y169763D01*
X649850Y169749D01*
X649850Y169749D01*
X649078Y169711D01*
X648963Y169682D01*
X648844D01*
X647330Y169381D01*
X647184Y169321D01*
X647029Y169290D01*
X645603Y168699D01*
X645471Y168611D01*
X645325Y168551D01*
X644042Y167693D01*
X643930Y167581D01*
X643798Y167493D01*
X642707Y166402D01*
X642619Y166271D01*
X642507Y166159D01*
X641650Y164875D01*
X641589Y164729D01*
X641501Y164598D01*
X640911Y163172D01*
X640880Y163017D01*
X640819Y162871D01*
X640518Y161356D01*
Y161238D01*
X640489Y161122D01*
X640479Y160921D01*
X640438Y160859D01*
X640407Y160700D01*
X640345Y160551D01*
X640346Y160396D01*
X640316Y160244D01*
Y108385D01*
X640285Y108322D01*
X640271Y108112D01*
X640230Y107905D01*
Y107288D01*
X639989Y106077D01*
X639516Y104936D01*
X638830Y103910D01*
X637957Y103036D01*
X636930Y102350D01*
X635790Y101878D01*
X634579Y101637D01*
X633961D01*
X633847Y101614D01*
X633730Y101620D01*
X633628Y101605D01*
X519570D01*
X519544Y101600D01*
X519517Y101604D01*
X519237Y101539D01*
X518956Y101483D01*
X518933Y101468D01*
X518907Y101462D01*
X518902Y101459D01*
X518632D01*
X517420Y101700D01*
X516280Y102173D01*
X515253Y102859D01*
X514380Y103732D01*
X513694Y104759D01*
X513221Y105899D01*
X512981Y107110D01*
Y107728D01*
X512954Y107859D01*
X512958Y107994D01*
X512909Y108123D01*
Y160204D01*
X512898Y160258D01*
X512906Y160314D01*
X512853Y161077D01*
X512826Y161177D01*
Y161281D01*
X512525Y162795D01*
X512464Y162941D01*
X512434Y163096D01*
X511843Y164522D01*
X511755Y164653D01*
X511694Y164799D01*
X510837Y166083D01*
X510725Y166195D01*
X510637Y166326D01*
X509546Y167418D01*
X509414Y167506D01*
X509303Y167617D01*
X508019Y168475D01*
X507873Y168535D01*
X507741Y168623D01*
X506315Y169214D01*
X506160Y169245D01*
X506014Y169305D01*
X504500Y169606D01*
X504381D01*
X504266Y169635D01*
X503494Y169673D01*
X503457Y169668D01*
X503420Y169675D01*
X495330Y169699D01*
X495183Y169670D01*
X495034Y169672D01*
X495013Y169664D01*
X494251D01*
X491794Y169941D01*
X489383Y170491D01*
X487049Y171308D01*
X484821Y172381D01*
X482727Y173696D01*
X480794Y175238D01*
X479045Y176987D01*
X477503Y178920D01*
X476188Y181014D01*
X475115Y183242D01*
X474298Y185576D01*
X473748Y187987D01*
X473471Y190444D01*
Y192917D01*
X473748Y195374D01*
X474298Y197785D01*
X475115Y200119D01*
X476188Y202347D01*
X477503Y204441D01*
X479045Y206374D01*
X480794Y208123D01*
X482727Y209665D01*
X484821Y210980D01*
X487049Y212053D01*
X489383Y212870D01*
X491794Y213420D01*
X494251Y213697D01*
X495487D01*
X495511Y213702D01*
X495536Y213698D01*
X495607Y213700D01*
X503643D01*
X503759Y213672D01*
X503828Y213684D01*
X503897Y213673D01*
X504668Y213711D01*
X504784Y213740D01*
X504903D01*
X506417Y214041D01*
X506563Y214102D01*
X506718Y214133D01*
X508144Y214723D01*
X508276Y214811D01*
X508422Y214872D01*
X509705Y215729D01*
X509817Y215841D01*
X509948Y215929D01*
X511040Y217020D01*
X511128Y217152D01*
X511239Y217264D01*
X512097Y218547D01*
X512158Y218693D01*
X512245Y218825D01*
X512836Y220251D01*
X512867Y220406D01*
X512927Y220552D01*
X513229Y222066D01*
Y222185D01*
X513258Y222300D01*
X513296Y223072D01*
X513289Y223112D01*
X513297Y223152D01*
X513259Y275551D01*
X513244Y275626D01*
X513252Y275704D01*
X513216Y276068D01*
Y276608D01*
X513457Y277819D01*
X513930Y278960D01*
X514616Y279987D01*
X515489Y280860D01*
X516516Y281546D01*
X517656Y282018D01*
X518867Y282259D01*
X519485D01*
X519489Y282260D01*
X519493Y282259D01*
X519775Y282261D01*
X633945Y282261D01*
X634070Y282286D01*
X634197Y282281D01*
X634321Y282300D01*
X634811D01*
X636023Y282060D01*
D02*
G37*
%LPC*%
G36*
X620128Y270862D02*
X619508Y270739D01*
X618982Y270387D01*
X618630Y269861D01*
X618507Y269240D01*
X618630Y268620D01*
X618982Y268094D01*
X619508Y267742D01*
X620128Y267619D01*
X620749Y267742D01*
X621275Y268094D01*
X621627Y268620D01*
X621750Y269240D01*
X621627Y269861D01*
X621275Y270387D01*
X620749Y270739D01*
X620128Y270862D01*
D02*
G37*
G36*
X553488Y268958D02*
X552868Y268835D01*
X552342Y268483D01*
X551990Y267957D01*
X551867Y267336D01*
X551990Y266716D01*
X552342Y266190D01*
X552868Y265838D01*
X553488Y265715D01*
X554109Y265838D01*
X554635Y266190D01*
X554987Y266716D01*
X555110Y267336D01*
X554987Y267957D01*
X554635Y268483D01*
X554109Y268835D01*
X553488Y268958D01*
D02*
G37*
G36*
X534004Y267950D02*
X533384Y267827D01*
X532857Y267475D01*
X532506Y266949D01*
X532382Y266329D01*
X532506Y265708D01*
X532857Y265182D01*
X533384Y264830D01*
X534004Y264707D01*
X534625Y264830D01*
X535151Y265182D01*
X535502Y265708D01*
X535626Y266329D01*
X535502Y266949D01*
X535151Y267475D01*
X534625Y267827D01*
X534004Y267950D01*
D02*
G37*
G36*
X603624Y263442D02*
X603004Y263319D01*
X602477Y262967D01*
X602126Y262441D01*
X602002Y261821D01*
X602126Y261200D01*
X602477Y260674D01*
X603004Y260322D01*
X603624Y260199D01*
X604245Y260322D01*
X604771Y260674D01*
X605122Y261200D01*
X605246Y261821D01*
X605122Y262441D01*
X604771Y262967D01*
X604245Y263319D01*
X603624Y263442D01*
D02*
G37*
G36*
X534770Y257519D02*
X534150Y257396D01*
X533624Y257044D01*
X533272Y256518D01*
X533149Y255897D01*
X533272Y255277D01*
X533624Y254751D01*
X534150Y254399D01*
X534770Y254276D01*
X535391Y254399D01*
X535917Y254751D01*
X536269Y255277D01*
X536392Y255897D01*
X536269Y256518D01*
X535917Y257044D01*
X535391Y257396D01*
X534770Y257519D01*
D02*
G37*
G36*
X571460Y252757D02*
X570839Y252634D01*
X570313Y252282D01*
X569962Y251756D01*
X569838Y251135D01*
X569962Y250515D01*
X570313Y249989D01*
X570839Y249637D01*
X571460Y249514D01*
X572080Y249637D01*
X572606Y249989D01*
X572958Y250515D01*
X573081Y251135D01*
X572958Y251756D01*
X572606Y252282D01*
X572080Y252634D01*
X571460Y252757D01*
D02*
G37*
G36*
X601079Y252366D02*
X600458Y252242D01*
X599932Y251891D01*
X599581Y251365D01*
X599457Y250744D01*
X599581Y250124D01*
X599932Y249597D01*
X600458Y249246D01*
X601079Y249122D01*
X601699Y249246D01*
X602226Y249597D01*
X602577Y250124D01*
X602701Y250744D01*
X602577Y251365D01*
X602226Y251891D01*
X601699Y252242D01*
X601079Y252366D01*
D02*
G37*
G36*
X637638Y256554D02*
X629638D01*
Y248554D01*
X637638D01*
Y256554D01*
D02*
G37*
G36*
X533864Y247229D02*
X533243Y247105D01*
X532717Y246754D01*
X532366Y246227D01*
X532242Y245607D01*
X532366Y244986D01*
X532717Y244460D01*
X533243Y244109D01*
X533864Y243985D01*
X534484Y244109D01*
X535010Y244460D01*
X535362Y244986D01*
X535486Y245607D01*
X535362Y246227D01*
X535010Y246754D01*
X534484Y247105D01*
X533864Y247229D01*
D02*
G37*
G36*
X533209Y243112D02*
X532588Y242989D01*
X532062Y242637D01*
X531711Y242111D01*
X531587Y241490D01*
X531711Y240870D01*
X532062Y240344D01*
X532588Y239992D01*
X533209Y239869D01*
X533829Y239992D01*
X534356Y240344D01*
X534707Y240870D01*
X534831Y241490D01*
X534707Y242111D01*
X534356Y242637D01*
X533829Y242989D01*
X533209Y243112D01*
D02*
G37*
G36*
X596928Y235755D02*
X596307Y235631D01*
X595781Y235280D01*
X595430Y234754D01*
X595306Y234133D01*
X595430Y233512D01*
X595781Y232986D01*
X596307Y232635D01*
X596928Y232511D01*
X597548Y232635D01*
X598075Y232986D01*
X598426Y233512D01*
X598550Y234133D01*
X598426Y234754D01*
X598075Y235280D01*
X597548Y235631D01*
X596928Y235755D01*
D02*
G37*
G36*
X593819Y233368D02*
X593198Y233245D01*
X592672Y232893D01*
X592320Y232367D01*
X592197Y231747D01*
X592320Y231126D01*
X592672Y230600D01*
X593198Y230248D01*
X593819Y230125D01*
X594439Y230248D01*
X594965Y230600D01*
X595317Y231126D01*
X595440Y231747D01*
X595317Y232367D01*
X594965Y232893D01*
X594439Y233245D01*
X593819Y233368D01*
D02*
G37*
G36*
X579195Y231500D02*
X578574Y231376D01*
X578048Y231025D01*
X577697Y230499D01*
X577573Y229878D01*
X577697Y229257D01*
X578048Y228731D01*
X578574Y228380D01*
X579195Y228256D01*
X579816Y228380D01*
X580342Y228731D01*
X580693Y229257D01*
X580817Y229878D01*
X580693Y230499D01*
X580342Y231025D01*
X579816Y231376D01*
X579195Y231500D01*
D02*
G37*
G36*
X520889Y230073D02*
Y226887D01*
X524075D01*
X524036Y227181D01*
X523633Y228154D01*
X522992Y228990D01*
X522156Y229631D01*
X521183Y230034D01*
X520889Y230073D01*
D02*
G37*
G36*
X519389D02*
X519095Y230034D01*
X518122Y229631D01*
X517286Y228990D01*
X516645Y228154D01*
X516242Y227181D01*
X516203Y226887D01*
X519389D01*
Y230073D01*
D02*
G37*
G36*
X553455Y259474D02*
X552604Y259305D01*
X551883Y258823D01*
X551401Y258102D01*
X551231Y257251D01*
X551401Y256400D01*
X551883Y255678D01*
X552604Y255196D01*
X553455Y255027D01*
X553506Y255037D01*
X572908Y235635D01*
Y227035D01*
X572446Y226844D01*
X554667Y244622D01*
Y247236D01*
X554710Y247265D01*
X555192Y247986D01*
X555362Y248837D01*
X555192Y249688D01*
X554710Y250410D01*
X553989Y250892D01*
X553138Y251061D01*
X552287Y250892D01*
X551565Y250410D01*
X551083Y249688D01*
X550914Y248837D01*
X551083Y247986D01*
X551565Y247265D01*
X551608Y247236D01*
Y243989D01*
X551725Y243404D01*
X552056Y242908D01*
X558272Y236692D01*
X558146Y236110D01*
X557607Y235750D01*
X557125Y235029D01*
X556956Y234178D01*
X557125Y233327D01*
X557607Y232605D01*
X558328Y232123D01*
X559179Y231954D01*
X559230Y231964D01*
X569727Y221468D01*
Y208359D01*
X569265Y208168D01*
X569182Y208250D01*
X568686Y208581D01*
X568101Y208698D01*
X529741D01*
X523834Y214605D01*
X524036Y215093D01*
X524173Y216137D01*
X524036Y217181D01*
X523633Y218154D01*
X522992Y218990D01*
X522156Y219631D01*
X521183Y220034D01*
X520139Y220171D01*
X519095Y220034D01*
X518122Y219631D01*
X517286Y218990D01*
X516645Y218154D01*
X516242Y217181D01*
X516105Y216137D01*
X516242Y215093D01*
X516645Y214120D01*
X517286Y213284D01*
X518122Y212643D01*
X519095Y212240D01*
X520139Y212102D01*
X521183Y212240D01*
X521671Y212442D01*
X526544Y207569D01*
X526352Y207107D01*
X524046D01*
X524036Y207181D01*
X523633Y208154D01*
X522992Y208990D01*
X522156Y209631D01*
X521183Y210034D01*
X520139Y210171D01*
X519095Y210034D01*
X518122Y209631D01*
X517286Y208990D01*
X516645Y208154D01*
X516242Y207181D01*
X516105Y206137D01*
X516242Y205093D01*
X516645Y204120D01*
X517286Y203284D01*
X518122Y202643D01*
X519095Y202240D01*
X520139Y202102D01*
X521183Y202240D01*
X522156Y202643D01*
X522992Y203284D01*
X523579Y204049D01*
X544632D01*
X544900Y203549D01*
X544847Y203469D01*
X544723Y202849D01*
X544847Y202228D01*
X545198Y201702D01*
X545724Y201350D01*
X546345Y201227D01*
X546965Y201350D01*
X547492Y201702D01*
X547843Y202228D01*
X547967Y202849D01*
X547843Y203469D01*
X547790Y203549D01*
X548057Y204049D01*
X548940D01*
X549207Y203549D01*
X549163Y203483D01*
X549040Y202863D01*
X549163Y202242D01*
X549515Y201716D01*
X550041Y201364D01*
X550662Y201241D01*
X551282Y201364D01*
X551808Y201716D01*
X552160Y202242D01*
X552283Y202863D01*
X552160Y203483D01*
X552116Y203549D01*
X552383Y204049D01*
X564866D01*
X564945Y203649D01*
X565427Y202927D01*
X566149Y202446D01*
X567000Y202276D01*
X567636Y202403D01*
X568136Y202080D01*
Y191607D01*
X568252Y191022D01*
X568584Y190526D01*
X576291Y182819D01*
X576281Y182768D01*
X576450Y181917D01*
X576932Y181195D01*
X577471Y180835D01*
X577597Y180254D01*
X576481Y179138D01*
X575496D01*
X575468Y179181D01*
X574746Y179663D01*
X573895Y179832D01*
X573044Y179663D01*
X572323Y179181D01*
X571841Y178460D01*
X571671Y177609D01*
X571841Y176758D01*
X572323Y176036D01*
X573044Y175554D01*
X573895Y175385D01*
X574746Y175554D01*
X575468Y176036D01*
X575496Y176079D01*
X577115D01*
X577700Y176196D01*
X578196Y176527D01*
X597323Y195654D01*
X597655Y196150D01*
X597771Y196736D01*
Y198179D01*
X598212Y198414D01*
X598286Y198365D01*
X598907Y198241D01*
X599528Y198365D01*
X600054Y198716D01*
X600405Y199242D01*
X600529Y199863D01*
X600405Y200483D01*
X600054Y201010D01*
X599528Y201361D01*
X599440Y201379D01*
X599295Y201857D01*
X628462Y231025D01*
X629942D01*
X630144Y230537D01*
X630785Y229701D01*
X631620Y229060D01*
X632593Y228657D01*
X633638Y228519D01*
X634682Y228657D01*
X635655Y229060D01*
X636490Y229701D01*
X637132Y230537D01*
X637535Y231510D01*
X637672Y232554D01*
X637535Y233598D01*
X637132Y234571D01*
X636490Y235407D01*
X635655Y236048D01*
X634682Y236451D01*
X633638Y236588D01*
X632593Y236451D01*
X631620Y236048D01*
X630785Y235407D01*
X630144Y234571D01*
X629942Y234083D01*
X627829D01*
X627243Y233967D01*
X626747Y233635D01*
X600542Y207431D01*
X600082Y207677D01*
X600174Y208143D01*
X600051Y208763D01*
X599699Y209289D01*
X599371Y209509D01*
X599539Y209954D01*
X599558Y209985D01*
X600170Y210106D01*
X600696Y210458D01*
X601048Y210984D01*
X601171Y211605D01*
X601048Y212225D01*
X600696Y212752D01*
X600170Y213103D01*
X600082Y213121D01*
X599937Y213599D01*
X618023Y231685D01*
X618496Y231503D01*
X618517Y231472D01*
X618400Y230882D01*
X618524Y230261D01*
X618875Y229735D01*
X619401Y229384D01*
X620022Y229260D01*
X620642Y229384D01*
X621169Y229735D01*
X621520Y230261D01*
X621643Y230882D01*
X621520Y231502D01*
X621169Y232029D01*
X620642Y232380D01*
X620022Y232504D01*
X619431Y232386D01*
X619401Y232408D01*
X619219Y232880D01*
X627363Y241024D01*
X629942D01*
X630144Y240537D01*
X630785Y239701D01*
X631620Y239060D01*
X632593Y238657D01*
X633638Y238519D01*
X634682Y238657D01*
X635655Y239060D01*
X636490Y239701D01*
X637132Y240537D01*
X637535Y241510D01*
X637672Y242554D01*
X637535Y243598D01*
X637132Y244571D01*
X636490Y245407D01*
X635655Y246048D01*
X634682Y246451D01*
X633638Y246588D01*
X632593Y246451D01*
X631620Y246048D01*
X630785Y245407D01*
X630144Y244571D01*
X629942Y244083D01*
X626729D01*
X626144Y243967D01*
X625648Y243635D01*
X599112Y217099D01*
X598569Y217264D01*
X598498Y217621D01*
X598147Y218147D01*
X597621Y218498D01*
X597000Y218622D01*
X596379Y218498D01*
X595853Y218147D01*
X595502Y217621D01*
X595378Y217000D01*
X595502Y216379D01*
X595853Y215853D01*
X596379Y215502D01*
X596736Y215431D01*
X596901Y214888D01*
X588203Y206191D01*
X587872Y205695D01*
X587756Y205110D01*
Y204760D01*
X587452Y204557D01*
X587151Y204107D01*
X586573Y204072D01*
X585851Y204555D01*
X585000Y204724D01*
X584949Y204714D01*
X575966Y213697D01*
Y236269D01*
X575850Y236854D01*
X575518Y237350D01*
X555669Y257200D01*
X555679Y257251D01*
X555510Y258102D01*
X555028Y258823D01*
X554306Y259305D01*
X553455Y259474D01*
D02*
G37*
G36*
X634388Y226490D02*
Y223304D01*
X637573D01*
X637535Y223598D01*
X637132Y224571D01*
X636490Y225407D01*
X635655Y226048D01*
X634682Y226451D01*
X634388Y226490D01*
D02*
G37*
G36*
X632888D02*
X632593Y226451D01*
X631620Y226048D01*
X630785Y225407D01*
X630144Y224571D01*
X629740Y223598D01*
X629702Y223304D01*
X632888D01*
Y226490D01*
D02*
G37*
G36*
X524075Y225387D02*
X520889D01*
Y222201D01*
X521183Y222240D01*
X522156Y222643D01*
X522992Y223284D01*
X523633Y224120D01*
X524036Y225093D01*
X524075Y225387D01*
D02*
G37*
G36*
X519389D02*
X516203D01*
X516242Y225093D01*
X516645Y224120D01*
X517286Y223284D01*
X518122Y222643D01*
X519095Y222240D01*
X519389Y222201D01*
Y225387D01*
D02*
G37*
G36*
X637573Y221804D02*
X634388D01*
Y218618D01*
X634682Y218657D01*
X635655Y219060D01*
X636490Y219701D01*
X637132Y220537D01*
X637535Y221510D01*
X637573Y221804D01*
D02*
G37*
G36*
X632888D02*
X629702D01*
X629740Y221510D01*
X630144Y220537D01*
X630785Y219701D01*
X631620Y219060D01*
X632593Y218657D01*
X632888Y218618D01*
Y221804D01*
D02*
G37*
G36*
X549389Y217664D02*
X548768Y217541D01*
X548242Y217189D01*
X547890Y216663D01*
X547767Y216043D01*
X547890Y215422D01*
X548242Y214896D01*
X548768Y214544D01*
X549389Y214421D01*
X550009Y214544D01*
X550535Y214896D01*
X550887Y215422D01*
X551010Y216043D01*
X550887Y216663D01*
X550535Y217189D01*
X550009Y217541D01*
X549389Y217664D01*
D02*
G37*
G36*
X588617Y216829D02*
X587996Y216705D01*
X587470Y216354D01*
X587119Y215827D01*
X586995Y215207D01*
X587119Y214586D01*
X587470Y214060D01*
X587996Y213709D01*
X588617Y213585D01*
X589237Y213709D01*
X589764Y214060D01*
X590115Y214586D01*
X590239Y215207D01*
X590115Y215827D01*
X589764Y216354D01*
X589237Y216705D01*
X588617Y216829D01*
D02*
G37*
G36*
X584271Y215720D02*
X583651Y215596D01*
X583124Y215245D01*
X582773Y214719D01*
X582650Y214098D01*
X582773Y213477D01*
X583124Y212951D01*
X583651Y212600D01*
X584271Y212476D01*
X584892Y212600D01*
X585418Y212951D01*
X585770Y213477D01*
X585893Y214098D01*
X585770Y214719D01*
X585418Y215245D01*
X584892Y215596D01*
X584271Y215720D01*
D02*
G37*
G36*
X562999Y213297D02*
X562379Y213173D01*
X561853Y212822D01*
X561501Y212295D01*
X561378Y211675D01*
X561501Y211054D01*
X561853Y210528D01*
X562379Y210176D01*
X562999Y210053D01*
X563620Y210176D01*
X564146Y210528D01*
X564498Y211054D01*
X564621Y211675D01*
X564498Y212295D01*
X564146Y212822D01*
X563620Y213173D01*
X562999Y213297D01*
D02*
G37*
G36*
X550892Y213023D02*
X550272Y212900D01*
X549746Y212548D01*
X549394Y212022D01*
X549271Y211402D01*
X549394Y210781D01*
X549746Y210255D01*
X550272Y209903D01*
X550892Y209780D01*
X551513Y209903D01*
X552039Y210255D01*
X552390Y210781D01*
X552514Y211402D01*
X552390Y212022D01*
X552039Y212548D01*
X551513Y212900D01*
X550892Y213023D01*
D02*
G37*
G36*
X584621Y211640D02*
X584000Y211516D01*
X583474Y211165D01*
X583122Y210639D01*
X582999Y210018D01*
X583122Y209398D01*
X583474Y208872D01*
X584000Y208520D01*
X584621Y208397D01*
X585241Y208520D01*
X585767Y208872D01*
X586119Y209398D01*
X586242Y210018D01*
X586119Y210639D01*
X585767Y211165D01*
X585241Y211516D01*
X584621Y211640D01*
D02*
G37*
G36*
X659273Y206438D02*
Y192619D01*
X673092D01*
X672971Y194158D01*
X672435Y196390D01*
X671557Y198510D01*
X670358Y200467D01*
X668867Y202213D01*
X667121Y203703D01*
X665164Y204903D01*
X663044Y205781D01*
X660812Y206317D01*
X659273Y206438D01*
D02*
G37*
G36*
X657773D02*
X656235Y206317D01*
X654003Y205781D01*
X651883Y204903D01*
X649925Y203703D01*
X648180Y202213D01*
X646689Y200467D01*
X645490Y198510D01*
X644612Y196390D01*
X644076Y194158D01*
X643955Y192619D01*
X657773D01*
Y206438D01*
D02*
G37*
G36*
X496219Y206176D02*
Y192357D01*
X510037D01*
X509916Y193895D01*
X509380Y196127D01*
X508502Y198248D01*
X507303Y200205D01*
X505812Y201950D01*
X504067Y203441D01*
X502109Y204640D01*
X499989Y205519D01*
X497757Y206055D01*
X496219Y206176D01*
D02*
G37*
G36*
X494719D02*
X493180Y206055D01*
X490948Y205519D01*
X488828Y204640D01*
X486871Y203441D01*
X485125Y201950D01*
X483635Y200205D01*
X482435Y198248D01*
X481557Y196127D01*
X481021Y193895D01*
X480900Y192357D01*
X494719D01*
Y206176D01*
D02*
G37*
G36*
X552779Y195491D02*
X552158Y195368D01*
X551632Y195016D01*
X551280Y194490D01*
X551157Y193870D01*
X551280Y193249D01*
X551632Y192723D01*
X552158Y192371D01*
X552779Y192248D01*
X553399Y192371D01*
X553925Y192723D01*
X554277Y193249D01*
X554400Y193870D01*
X554277Y194490D01*
X553925Y195016D01*
X553399Y195368D01*
X552779Y195491D01*
D02*
G37*
G36*
X524139Y200137D02*
X516139D01*
Y192137D01*
X524139D01*
Y200137D01*
D02*
G37*
G36*
X536026Y195226D02*
X535405Y195102D01*
X534879Y194750D01*
X534527Y194224D01*
X534404Y193604D01*
X534527Y192983D01*
X534879Y192457D01*
X535405Y192105D01*
X536026Y191982D01*
X536646Y192105D01*
X537172Y192457D01*
X537524Y192983D01*
X537647Y193604D01*
X537524Y194224D01*
X537172Y194750D01*
X536646Y195102D01*
X536026Y195226D01*
D02*
G37*
G36*
X610056Y192007D02*
X609436Y191884D01*
X608910Y191532D01*
X608558Y191006D01*
X608435Y190386D01*
X608558Y189765D01*
X608910Y189239D01*
X609436Y188887D01*
X610056Y188764D01*
X610677Y188887D01*
X611203Y189239D01*
X611555Y189765D01*
X611678Y190386D01*
X611555Y191006D01*
X611203Y191532D01*
X610677Y191884D01*
X610056Y192007D01*
D02*
G37*
G36*
X554583Y189745D02*
X553963Y189622D01*
X553436Y189270D01*
X553085Y188744D01*
X552961Y188124D01*
X553085Y187503D01*
X553436Y186977D01*
X553963Y186625D01*
X554583Y186502D01*
X555204Y186625D01*
X555730Y186977D01*
X556081Y187503D01*
X556205Y188124D01*
X556081Y188744D01*
X555730Y189270D01*
X555204Y189622D01*
X554583Y189745D01*
D02*
G37*
G36*
X613836Y189294D02*
X613215Y189170D01*
X612689Y188819D01*
X612338Y188293D01*
X612214Y187672D01*
X612338Y187051D01*
X612689Y186525D01*
X613215Y186174D01*
X613836Y186050D01*
X614457Y186174D01*
X614983Y186525D01*
X615334Y187051D01*
X615458Y187672D01*
X615334Y188293D01*
X614983Y188819D01*
X614457Y189170D01*
X613836Y189294D01*
D02*
G37*
G36*
X549060Y186484D02*
X548439Y186361D01*
X547913Y186009D01*
X547562Y185483D01*
X547438Y184862D01*
X547562Y184242D01*
X547913Y183715D01*
X548439Y183364D01*
X549060Y183240D01*
X549680Y183364D01*
X550206Y183715D01*
X550558Y184242D01*
X550681Y184862D01*
X550558Y185483D01*
X550206Y186009D01*
X549680Y186361D01*
X549060Y186484D01*
D02*
G37*
G36*
X595668Y184430D02*
X594817Y184261D01*
X594096Y183779D01*
X593655Y183119D01*
X593349Y183036D01*
X593095Y183015D01*
X592621Y183332D01*
X592000Y183455D01*
X591379Y183332D01*
X590853Y182980D01*
X590502Y182454D01*
X590378Y181833D01*
X590502Y181213D01*
X590853Y180687D01*
X591379Y180335D01*
X591467Y180318D01*
X591612Y179839D01*
X580664Y168891D01*
X576912D01*
X576883Y168934D01*
X576162Y169416D01*
X575311Y169585D01*
X574460Y169416D01*
X573738Y168934D01*
X573256Y168212D01*
X573087Y167361D01*
X573256Y166510D01*
X573738Y165789D01*
X574460Y165307D01*
X575311Y165137D01*
X576162Y165307D01*
X576883Y165789D01*
X576912Y165832D01*
X581297D01*
X581882Y165948D01*
X582379Y166280D01*
X595747Y179648D01*
X595960Y179966D01*
X596052Y180059D01*
X596519Y180152D01*
X597240Y180634D01*
X597723Y181355D01*
X597892Y182206D01*
X597723Y183057D01*
X597240Y183779D01*
X596519Y184261D01*
X595668Y184430D01*
D02*
G37*
G36*
X535868Y185634D02*
X535248Y185510D01*
X534722Y185159D01*
X534370Y184633D01*
X534247Y184012D01*
X534370Y183391D01*
X534722Y182865D01*
X535248Y182514D01*
X535868Y182390D01*
X536489Y182514D01*
X537015Y182865D01*
X537366Y183391D01*
X537490Y184012D01*
X537366Y184633D01*
X537015Y185159D01*
X536489Y185510D01*
X535868Y185634D01*
D02*
G37*
G36*
X530754D02*
X530133Y185510D01*
X529607Y185159D01*
X529256Y184633D01*
X529132Y184012D01*
X529256Y183391D01*
X529607Y182865D01*
X530133Y182514D01*
X530754Y182390D01*
X531375Y182514D01*
X531901Y182865D01*
X532252Y183391D01*
X532376Y184012D01*
X532252Y184633D01*
X531901Y185159D01*
X531375Y185510D01*
X530754Y185634D01*
D02*
G37*
G36*
X525020D02*
X524400Y185510D01*
X523873Y185159D01*
X523522Y184633D01*
X523398Y184012D01*
X523522Y183391D01*
X523873Y182865D01*
X524400Y182514D01*
X525020Y182390D01*
X525641Y182514D01*
X526167Y182865D01*
X526518Y183391D01*
X526642Y184012D01*
X526518Y184633D01*
X526167Y185159D01*
X525641Y185510D01*
X525020Y185634D01*
D02*
G37*
G36*
X603826Y185415D02*
X603206Y185292D01*
X602679Y184940D01*
X602328Y184414D01*
X602205Y183794D01*
X602328Y183173D01*
X602679Y182647D01*
X603206Y182295D01*
X603826Y182172D01*
X604447Y182295D01*
X604973Y182647D01*
X605325Y183173D01*
X605448Y183794D01*
X605325Y184414D01*
X604973Y184940D01*
X604447Y185292D01*
X603826Y185415D01*
D02*
G37*
G36*
X545942Y182200D02*
X545321Y182077D01*
X544795Y181725D01*
X544443Y181199D01*
X544320Y180578D01*
X544443Y179958D01*
X544795Y179432D01*
X545321Y179080D01*
X545942Y178957D01*
X546562Y179080D01*
X547088Y179432D01*
X547440Y179958D01*
X547563Y180578D01*
X547440Y181199D01*
X547088Y181725D01*
X546562Y182077D01*
X545942Y182200D01*
D02*
G37*
G36*
X673092Y191119D02*
X659273D01*
Y177301D01*
X660812Y177422D01*
X663044Y177957D01*
X665164Y178836D01*
X667121Y180035D01*
X668867Y181526D01*
X670358Y183271D01*
X671557Y185229D01*
X672435Y187349D01*
X672971Y189581D01*
X673092Y191119D01*
D02*
G37*
G36*
X657773D02*
X643955D01*
X644076Y189581D01*
X644612Y187349D01*
X645490Y185229D01*
X646689Y183271D01*
X648180Y181526D01*
X649925Y180035D01*
X651883Y178836D01*
X654003Y177957D01*
X656235Y177422D01*
X657773Y177301D01*
Y191119D01*
D02*
G37*
G36*
X510037Y190857D02*
X496219D01*
Y177038D01*
X497757Y177159D01*
X499989Y177695D01*
X502109Y178574D01*
X504067Y179773D01*
X505812Y181263D01*
X507303Y183009D01*
X508502Y184966D01*
X509380Y187087D01*
X509916Y189319D01*
X510037Y190857D01*
D02*
G37*
G36*
X494719D02*
X480900D01*
X481021Y189319D01*
X481557Y187087D01*
X482435Y184966D01*
X483635Y183009D01*
X485125Y181263D01*
X486871Y179773D01*
X488828Y178574D01*
X490948Y177695D01*
X493180Y177159D01*
X494719Y177038D01*
Y190857D01*
D02*
G37*
G36*
X530822Y173160D02*
X530201Y173037D01*
X529675Y172685D01*
X529324Y172159D01*
X529200Y171539D01*
X529324Y170918D01*
X529675Y170392D01*
X530201Y170040D01*
X530822Y169917D01*
X531443Y170040D01*
X531969Y170392D01*
X532320Y170918D01*
X532444Y171539D01*
X532320Y172159D01*
X531969Y172685D01*
X531443Y173037D01*
X530822Y173160D01*
D02*
G37*
G36*
X525460Y173080D02*
X524839Y172957D01*
X524313Y172605D01*
X523961Y172079D01*
X523838Y171459D01*
X523961Y170838D01*
X524313Y170312D01*
X524839Y169960D01*
X525460Y169837D01*
X526080Y169960D01*
X526606Y170312D01*
X526958Y170838D01*
X527081Y171459D01*
X526958Y172079D01*
X526606Y172605D01*
X526080Y172957D01*
X525460Y173080D01*
D02*
G37*
G36*
X536243Y172952D02*
X535623Y172829D01*
X535097Y172477D01*
X534745Y171951D01*
X534621Y171330D01*
X534745Y170710D01*
X535097Y170184D01*
X535623Y169832D01*
X536243Y169709D01*
X536864Y169832D01*
X537390Y170184D01*
X537742Y170710D01*
X537865Y171330D01*
X537742Y171951D01*
X537390Y172477D01*
X536864Y172829D01*
X536243Y172952D01*
D02*
G37*
G36*
X563949Y171490D02*
X563328Y171366D01*
X562802Y171014D01*
X562451Y170488D01*
X562327Y169868D01*
X562451Y169247D01*
X562802Y168721D01*
X563328Y168369D01*
X563949Y168246D01*
X564570Y168369D01*
X565096Y168721D01*
X565447Y169247D01*
X565571Y169868D01*
X565447Y170488D01*
X565096Y171014D01*
X564570Y171366D01*
X563949Y171490D01*
D02*
G37*
G36*
X525488Y168342D02*
X524867Y168218D01*
X524341Y167867D01*
X523989Y167341D01*
X523866Y166720D01*
X523989Y166099D01*
X524341Y165573D01*
X524867Y165222D01*
X525488Y165098D01*
X526108Y165222D01*
X526634Y165573D01*
X526986Y166099D01*
X527109Y166720D01*
X526986Y167341D01*
X526634Y167867D01*
X526108Y168218D01*
X525488Y168342D01*
D02*
G37*
G36*
X536098Y168064D02*
X535477Y167940D01*
X534951Y167589D01*
X534599Y167063D01*
X534476Y166442D01*
X534599Y165822D01*
X534951Y165296D01*
X535477Y164944D01*
X536098Y164821D01*
X536718Y164944D01*
X537245Y165296D01*
X537596Y165822D01*
X537719Y166442D01*
X537596Y167063D01*
X537245Y167589D01*
X536718Y167940D01*
X536098Y168064D01*
D02*
G37*
G36*
X530724Y168005D02*
X530103Y167881D01*
X529577Y167530D01*
X529225Y167004D01*
X529102Y166383D01*
X529225Y165762D01*
X529577Y165236D01*
X530103Y164885D01*
X530724Y164761D01*
X531344Y164885D01*
X531871Y165236D01*
X532222Y165762D01*
X532345Y166383D01*
X532222Y167004D01*
X531871Y167530D01*
X531344Y167881D01*
X530724Y168005D01*
D02*
G37*
G36*
X566257Y158757D02*
X565636Y158633D01*
X565110Y158282D01*
X564758Y157756D01*
X564635Y157135D01*
X564758Y156515D01*
X565110Y155989D01*
X565636Y155637D01*
X566257Y155514D01*
X566877Y155637D01*
X567403Y155989D01*
X567755Y156515D01*
X567878Y157135D01*
X567755Y157756D01*
X567403Y158282D01*
X566877Y158633D01*
X566257Y158757D01*
D02*
G37*
G36*
X555546Y150024D02*
X554926Y149901D01*
X554400Y149549D01*
X554048Y149023D01*
X553925Y148403D01*
X554048Y147782D01*
X554400Y147256D01*
X554926Y146905D01*
X555546Y146781D01*
X556167Y146905D01*
X556693Y147256D01*
X557045Y147782D01*
X557168Y148403D01*
X557045Y149023D01*
X556693Y149549D01*
X556167Y149901D01*
X555546Y150024D01*
D02*
G37*
G36*
X540353Y148148D02*
X539733Y148024D01*
X539206Y147673D01*
X538855Y147147D01*
X538731Y146526D01*
X538855Y145906D01*
X539206Y145380D01*
X539733Y145028D01*
X540353Y144905D01*
X540974Y145028D01*
X541500Y145380D01*
X541851Y145906D01*
X541975Y146526D01*
X541851Y147147D01*
X541500Y147673D01*
X540974Y148024D01*
X540353Y148148D01*
D02*
G37*
G36*
X531900Y146919D02*
X531279Y146795D01*
X530753Y146444D01*
X530402Y145918D01*
X530278Y145297D01*
X530402Y144677D01*
X530753Y144150D01*
X531279Y143799D01*
X531900Y143675D01*
X532521Y143799D01*
X533047Y144150D01*
X533398Y144677D01*
X533522Y145297D01*
X533398Y145918D01*
X533047Y146444D01*
X532521Y146795D01*
X531900Y146919D01*
D02*
G37*
G36*
X622921Y142690D02*
X622300Y142566D01*
X621774Y142215D01*
X621422Y141689D01*
X621299Y141068D01*
X621422Y140447D01*
X621774Y139921D01*
X622300Y139570D01*
X622921Y139446D01*
X623541Y139570D01*
X624067Y139921D01*
X624419Y140447D01*
X624543Y141068D01*
X624419Y141689D01*
X624067Y142215D01*
X623541Y142566D01*
X622921Y142690D01*
D02*
G37*
G36*
X612983Y139599D02*
Y135468D01*
X617114D01*
X617043Y136007D01*
X616545Y137208D01*
X615754Y138239D01*
X614723Y139031D01*
X613522Y139528D01*
X612983Y139599D01*
D02*
G37*
G36*
X611483D02*
X610944Y139528D01*
X609743Y139031D01*
X608712Y138239D01*
X607920Y137208D01*
X607423Y136007D01*
X607352Y135468D01*
X611483D01*
Y139599D01*
D02*
G37*
G36*
X617114Y133968D02*
X612983D01*
Y129837D01*
X613522Y129908D01*
X614723Y130406D01*
X615754Y131197D01*
X616545Y132228D01*
X617043Y133429D01*
X617114Y133968D01*
D02*
G37*
G36*
X611483D02*
X607352D01*
X607423Y133429D01*
X607920Y132228D01*
X608712Y131197D01*
X609743Y130406D01*
X610944Y129908D01*
X611483Y129837D01*
Y133968D01*
D02*
G37*
G36*
X575831Y139655D02*
X565957D01*
Y129781D01*
X575831D01*
Y139655D01*
D02*
G37*
G36*
X598453Y139698D02*
X597164Y139528D01*
X595963Y139031D01*
X594932Y138239D01*
X594141Y137208D01*
X593643Y136007D01*
X593474Y134718D01*
X593643Y133429D01*
X594141Y132228D01*
X594932Y131197D01*
X595963Y130406D01*
X597164Y129908D01*
X598453Y129738D01*
X599742Y129908D01*
X600943Y130406D01*
X601974Y131197D01*
X602766Y132228D01*
X603263Y133429D01*
X603433Y134718D01*
X603263Y136007D01*
X602766Y137208D01*
X601974Y138239D01*
X600943Y139031D01*
X599742Y139528D01*
X598453Y139698D01*
D02*
G37*
G36*
X584674D02*
X583385Y139528D01*
X582184Y139031D01*
X581152Y138239D01*
X580361Y137208D01*
X579864Y136007D01*
X579694Y134718D01*
X579864Y133429D01*
X580361Y132228D01*
X581152Y131197D01*
X582184Y130406D01*
X583385Y129908D01*
X584674Y129738D01*
X585962Y129908D01*
X587163Y130406D01*
X588195Y131197D01*
X588986Y132228D01*
X589483Y133429D01*
X589653Y134718D01*
X589483Y136007D01*
X588986Y137208D01*
X588195Y138239D01*
X587163Y139031D01*
X585962Y139528D01*
X584674Y139698D01*
D02*
G37*
G36*
X535945Y132347D02*
X535324Y132224D01*
X534798Y131872D01*
X534447Y131346D01*
X534323Y130725D01*
X534447Y130105D01*
X534798Y129579D01*
X535324Y129227D01*
X535945Y129104D01*
X536566Y129227D01*
X537092Y129579D01*
X537443Y130105D01*
X537567Y130725D01*
X537443Y131346D01*
X537092Y131872D01*
X536566Y132224D01*
X535945Y132347D01*
D02*
G37*
G36*
X632500Y129995D02*
X631456Y129858D01*
X630483Y129455D01*
X629647Y128814D01*
X629006Y127978D01*
X628603Y127005D01*
X628466Y125961D01*
X628603Y124916D01*
X629006Y123943D01*
X629647Y123108D01*
X630483Y122467D01*
X631456Y122064D01*
X632500Y121926D01*
X633544Y122064D01*
X634517Y122467D01*
X635353Y123108D01*
X635994Y123943D01*
X636397Y124916D01*
X636535Y125961D01*
X636397Y127005D01*
X635994Y127978D01*
X635353Y128814D01*
X634517Y129455D01*
X633544Y129858D01*
X632500Y129995D01*
D02*
G37*
G36*
X612983Y119914D02*
Y115783D01*
X617114D01*
X617043Y116322D01*
X616545Y117523D01*
X615754Y118554D01*
X614723Y119345D01*
X613522Y119843D01*
X612983Y119914D01*
D02*
G37*
G36*
X611483D02*
X610944Y119843D01*
X609743Y119345D01*
X608712Y118554D01*
X607920Y117523D01*
X607423Y116322D01*
X607352Y115783D01*
X611483D01*
Y119914D01*
D02*
G37*
G36*
X636500Y119961D02*
X628500D01*
Y111961D01*
X636500D01*
Y119961D01*
D02*
G37*
G36*
X617114Y114283D02*
X612983D01*
Y110152D01*
X613522Y110223D01*
X614723Y110721D01*
X615754Y111512D01*
X616545Y112543D01*
X617043Y113744D01*
X617114Y114283D01*
D02*
G37*
G36*
X611483D02*
X607352D01*
X607423Y113744D01*
X607920Y112543D01*
X608712Y111512D01*
X609743Y110721D01*
X610944Y110223D01*
X611483Y110152D01*
Y114283D01*
D02*
G37*
G36*
X575831Y119970D02*
X565957D01*
Y110096D01*
X575831D01*
Y119970D01*
D02*
G37*
G36*
X598453Y120013D02*
X597164Y119843D01*
X595963Y119345D01*
X594932Y118554D01*
X594141Y117523D01*
X593643Y116322D01*
X593474Y115033D01*
X593643Y113744D01*
X594141Y112543D01*
X594932Y111512D01*
X595963Y110721D01*
X597164Y110223D01*
X598453Y110053D01*
X599742Y110223D01*
X600943Y110721D01*
X601974Y111512D01*
X602766Y112543D01*
X603263Y113744D01*
X603433Y115033D01*
X603263Y116322D01*
X602766Y117523D01*
X601974Y118554D01*
X600943Y119345D01*
X599742Y119843D01*
X598453Y120013D01*
D02*
G37*
G36*
X584674D02*
X583385Y119843D01*
X582184Y119345D01*
X581152Y118554D01*
X580361Y117523D01*
X579864Y116322D01*
X579694Y115033D01*
X579864Y113744D01*
X580361Y112543D01*
X581152Y111512D01*
X582184Y110721D01*
X583385Y110223D01*
X584674Y110053D01*
X585962Y110223D01*
X587163Y110721D01*
X588195Y111512D01*
X588986Y112543D01*
X589483Y113744D01*
X589653Y115033D01*
X589483Y116322D01*
X588986Y117523D01*
X588195Y118554D01*
X587163Y119345D01*
X585962Y119843D01*
X584674Y120013D01*
D02*
G37*
%LPD*%
G36*
X598034Y211072D02*
X598051Y210984D01*
X598403Y210458D01*
X598731Y210239D01*
X598563Y209793D01*
X598544Y209763D01*
X597932Y209641D01*
X597406Y209289D01*
X597054Y208763D01*
X596931Y208143D01*
X597054Y207522D01*
X597406Y206996D01*
X597932Y206644D01*
X598553Y206521D01*
X599018Y206613D01*
X599264Y206153D01*
X595160Y202048D01*
X594829Y201552D01*
X594712Y200967D01*
Y197369D01*
X581019Y183676D01*
X580437Y183801D01*
X580077Y184340D01*
X579356Y184822D01*
X578505Y184992D01*
X578454Y184982D01*
X571195Y192241D01*
Y202098D01*
X571657Y202289D01*
X576906Y197040D01*
X576445Y196351D01*
X576276Y195500D01*
X576445Y194649D01*
X576928Y193928D01*
X577649Y193446D01*
X578500Y193276D01*
X579351Y193446D01*
X580072Y193928D01*
X580555Y194649D01*
X580724Y195500D01*
X580654Y195850D01*
X581079Y196275D01*
X581463Y196198D01*
X582314Y196368D01*
X583036Y196850D01*
X583518Y197571D01*
X583687Y198422D01*
X583518Y199273D01*
X583036Y199995D01*
X582881Y200098D01*
X582876Y200122D01*
X582545Y200618D01*
X574376Y208787D01*
Y210308D01*
X574838Y210499D01*
X582786Y202551D01*
X582776Y202500D01*
X582945Y201649D01*
X583427Y200927D01*
X584149Y200446D01*
X585000Y200276D01*
X585851Y200446D01*
X586573Y200927D01*
X586873Y201378D01*
X587452Y201412D01*
X588173Y200930D01*
X589024Y200761D01*
X589875Y200930D01*
X590597Y201412D01*
X591079Y202134D01*
X591248Y202985D01*
X591079Y203836D01*
X590814Y204232D01*
Y204476D01*
X597555Y211217D01*
X598034Y211072D01*
D02*
G37*
D24*
X595668Y181838D02*
Y182206D01*
X589285Y203245D02*
Y205110D01*
X573895Y177609D02*
X577115D01*
X596242Y196736D02*
Y200967D01*
X589285Y205110D02*
X626729Y242554D01*
X529107Y207169D02*
X568101D01*
X578500Y195500D02*
Y197608D01*
X521772Y214504D02*
X529107Y207169D01*
X521772Y215772D02*
X522000Y216000D01*
X572847Y208154D02*
Y224280D01*
X577115Y177609D02*
X596242Y196736D01*
X566631Y204500D02*
X567000D01*
X569665Y191607D02*
X578505Y182768D01*
X581297Y167361D02*
X594665Y180729D01*
X571256Y204853D02*
Y222101D01*
X596242Y200967D02*
X627829Y232554D01*
X553138Y243989D02*
X572847Y224280D01*
X574437Y213063D02*
Y236269D01*
X575311Y167361D02*
X581297D01*
X581463Y198422D02*
Y199537D01*
X594665Y180835D02*
X595668Y181838D01*
X589024Y202985D02*
X589285Y203245D01*
X594665Y180729D02*
Y180835D01*
X521772Y214504D02*
Y215772D01*
X574437Y213063D02*
X585000Y202500D01*
X568101Y207169D02*
X569665Y205604D01*
X627829Y232554D02*
X633638D01*
X572847Y208154D02*
X581463Y199537D01*
X571256Y204853D02*
X578500Y197608D01*
X559179Y234178D02*
X571256Y222101D01*
X626729Y242554D02*
X633638D01*
X522000Y206000D02*
X522422Y205578D01*
X569665Y191607D02*
Y205604D01*
X522422Y205578D02*
X565553D01*
X566631Y204500D01*
X553138Y243989D02*
Y248837D01*
X553455Y257251D02*
X574437Y236269D01*
D28*
X598453Y115033D02*
D03*
X584674D02*
D03*
Y134718D02*
D03*
X598453D02*
D03*
X612233D02*
D03*
Y115033D02*
D03*
D29*
X570894D02*
D03*
Y134718D02*
D03*
D30*
X632500Y115961D02*
D03*
X520139Y196137D02*
D03*
X633638Y252554D02*
D03*
D31*
X632500Y125961D02*
D03*
X520139Y226137D02*
D03*
Y206137D02*
D03*
Y216137D02*
D03*
X633638Y222554D02*
D03*
Y242554D02*
D03*
Y232554D02*
D03*
D32*
X495469Y191607D02*
D03*
X658523Y191869D02*
D03*
D33*
X578505Y182768D02*
D03*
X575311Y167361D02*
D03*
X595668Y182206D02*
D03*
X573895Y177609D02*
D03*
X567000Y204500D02*
D03*
X560797Y194669D02*
D03*
X573182Y172442D02*
D03*
X611007Y220676D02*
D03*
X578500Y195500D02*
D03*
X581463Y198422D02*
D03*
X589024Y202985D02*
D03*
X585000Y202500D02*
D03*
X607977Y166718D02*
D03*
X559179Y234178D02*
D03*
X536610Y108608D02*
D03*
X517109Y163801D02*
D03*
X553138Y248837D02*
D03*
X553455Y257251D02*
D03*
X594007Y160716D02*
D03*
X516063Y271997D02*
D03*
X516425Y261227D02*
D03*
X516031Y249464D02*
D03*
X516379Y238966D02*
D03*
X537640Y222783D02*
D03*
X608696Y239446D02*
D03*
X629082Y182595D02*
D03*
X628868Y176372D02*
D03*
X594271Y168156D02*
D03*
X525412Y146894D02*
D03*
X518172Y146559D02*
D03*
X571304Y231365D02*
D03*
D34*
X598907Y199863D02*
D03*
X599549Y211605D02*
D03*
X598553Y208143D02*
D03*
X597000Y217000D02*
D03*
X566257Y157135D02*
D03*
X592000Y181833D02*
D03*
X554583Y188124D02*
D03*
X552779Y193870D02*
D03*
X562999Y211675D02*
D03*
X550662Y202863D02*
D03*
X601079Y250744D02*
D03*
X546345Y202849D02*
D03*
X550892Y211402D02*
D03*
X584621Y210018D02*
D03*
X610056Y190386D02*
D03*
X549389Y216043D02*
D03*
X588617Y215207D02*
D03*
X584271Y214098D02*
D03*
X536098Y166442D02*
D03*
X536243Y171330D02*
D03*
X549060Y184862D02*
D03*
X571460Y251135D02*
D03*
X525488Y166720D02*
D03*
X530724Y166383D02*
D03*
X531900Y145297D02*
D03*
X596928Y234133D02*
D03*
X545942Y180578D02*
D03*
X535868Y184012D02*
D03*
X530754D02*
D03*
X525020D02*
D03*
X540353Y146526D02*
D03*
X555546Y148403D02*
D03*
X530822Y171539D02*
D03*
X525460Y171459D02*
D03*
X620022Y230882D02*
D03*
X533864Y245607D02*
D03*
X533209Y241490D02*
D03*
X534004Y266329D02*
D03*
X534770Y255897D02*
D03*
X563949Y169868D02*
D03*
X593819Y231747D02*
D03*
X603826Y183794D02*
D03*
X613836Y187672D02*
D03*
X579195Y229878D02*
D03*
X536026Y193604D02*
D03*
X620128Y269240D02*
D03*
X603624Y261821D02*
D03*
X553488Y267336D02*
D03*
X622921Y141068D02*
D03*
X535945Y130725D02*
D03*
%TF.MD5,fef989d07e00aaa4c460e4f83a181d8b*%
M02*
